<svg width="20" height="20" viewBox="0 0 20 20" fill="none" xmlns="http://www.w3.org/2000/svg">
<g clip-path="url(#clip0_1573_18504)">
<path d="M13.7491 0C12.6828 0.0737496 11.4366 0.756245 10.7103 1.64499C10.0479 2.45124 9.50286 3.64873 9.71535 4.81247C10.8803 4.84872 12.0841 4.14998 12.7816 3.24623C13.4341 2.40499 13.9278 1.21499 13.7491 0Z" fill="black"/>
<path d="M17.9629 6.71001C16.9392 5.42627 15.5004 4.68127 14.1417 4.68127C12.348 4.68127 11.5892 5.54002 10.343 5.54002C9.05798 5.54002 8.08174 4.68377 6.5305 4.68377C5.00676 4.68377 3.38427 5.61502 2.35552 7.20751C0.909281 9.45 1.15678 13.6662 3.50052 17.2574C4.33926 18.5424 5.45925 19.9874 6.92425 19.9999C8.22799 20.0124 8.59549 19.1637 10.3617 19.1549C12.128 19.1449 12.463 20.0112 13.7642 19.9974C15.2304 19.9862 16.4117 18.3849 17.2504 17.1C17.8517 16.1787 18.0754 15.715 18.5417 14.675C15.1504 13.3837 14.6067 8.56125 17.9629 6.71001Z" fill="black"/>
</g>
<defs>
<clipPath id="clip0_1573_18504">
<rect width="20" height="20" fill="white"/>
</clipPath>
</defs>
</svg>
