<svg width="48" height="48" viewBox="0 0 48 48" fill="none" xmlns="http://www.w3.org/2000/svg">
<path d="M16.5858 8.58579C16.9609 8.21071 17.4696 8 18 8L30 8C30.5304 8 31.0391 8.21071 31.4142 8.58579L34.8284 12L40 12C42.2091 12 44 13.7909 44 16L44 36C44 38.2091 42.2091 40 40 40L8 40C5.79086 40 4 38.2091 4 36L4 16C4 13.7909 5.79086 12 8 12L13.1716 12L16.5858 8.58579ZM18.8284 12L15.4142 15.4142C15.0391 15.7893 14.5304 16 14 16L8 16L8 36L40 36L40 16L34 16C33.4696 16 32.9609 15.7893 32.5858 15.4142L29.1716 12L18.8284 12ZM24 21C21.7909 21 20 22.7909 20 25C20 27.2091 21.7909 29 24 29C26.2091 29 28 27.2091 28 25C28 22.7909 26.2091 21 24 21ZM16 25C16 20.5817 19.5817 17 24 17C28.4183 17 32 20.5817 32 25C32 29.4183 28.4183 33 24 33C19.5817 33 16 29.4183 16 25Z" fill="white"/>
</svg>
