<svg width="98" height="98" viewBox="0 0 98 98" fill="none" xmlns="http://www.w3.org/2000/svg">
<rect x="0.30957" y="0.309509" width="97.4888" height="97.4883" rx="48" fill="url(#paint0_radial_90_598)"/>
<path d="M41.5936 33.5788C41.9687 33.2037 42.4774 32.993 43.0078 32.993H55.0078C55.5382 32.993 56.047 33.2037 56.422 33.5788L59.8362 36.993H65.0078C67.217 36.993 69.0078 38.7839 69.0078 40.993V60.993C69.0078 63.2022 67.217 64.993 65.0078 64.993H33.0078C30.7987 64.993 29.0078 63.2022 29.0078 60.993V40.993C29.0078 38.7839 30.7987 36.993 33.0078 36.993H38.1794L41.5936 33.5788ZM43.8362 36.993L40.422 40.4072C40.047 40.7823 39.5382 40.993 39.0078 40.993L33.0078 40.993V60.993H65.0078V40.993H59.0078C58.4774 40.993 57.9687 40.7823 57.5936 40.4072L54.1794 36.993H43.8362ZM49.0078 45.993C46.7987 45.993 45.0078 47.7839 45.0078 49.993C45.0078 52.2022 46.7987 53.993 49.0078 53.993C51.217 53.993 53.0078 52.2022 53.0078 49.993C53.0078 47.7839 51.217 45.993 49.0078 45.993ZM41.0078 49.993C41.0078 45.5747 44.5895 41.993 49.0078 41.993C53.4261 41.993 57.0078 45.5747 57.0078 49.993C57.0078 54.4113 53.4261 57.993 49.0078 57.993C44.5895 57.993 41.0078 54.4113 41.0078 49.993Z" fill="white"/>
<defs>
<radialGradient id="paint0_radial_90_598" cx="0" cy="0" r="1" gradientUnits="userSpaceOnUse" gradientTransform="translate(-3.53001 -25.3128) rotate(52.386) scale(136.715 136.715)">
<stop stop-color="#E5F0F3"/>
<stop offset="1" stop-color="#66C0DC"/>
</radialGradient>
</defs>
</svg>
