<svg width="48" height="48" viewBox="0 0 48 48" fill="none" xmlns="http://www.w3.org/2000/svg">
<path d="M22.6405 24L28.0345 29.394C28.1952 29.5548 28.2854 29.7727 28.2854 30C28.2854 30.2273 28.1952 30.4453 28.0345 30.606C27.8738 30.7667 27.6558 30.857 27.4285 30.857C27.2012 30.857 26.9832 30.7667 26.8225 30.606L20.8225 24.606C20.6618 24.4453 20.5715 24.2273 20.5715 24C20.5715 23.7727 20.6618 23.5548 20.8225 23.394L26.8225 17.394C26.9832 17.2333 27.2012 17.1431 27.4285 17.1431C27.6558 17.1431 27.8738 17.2333 28.0345 17.394C28.1952 17.5548 28.2855 17.7727 28.2855 18C28.2855 18.2273 28.1952 18.4453 28.0345 18.606L22.6405 24Z" fill="#66C0DC"/>
</svg>
