<svg width="165" height="145" viewBox="0 0 165 145" fill="none" xmlns="http://www.w3.org/2000/svg">
<g filter="url(#filter0_d_90_521)">
<rect width="127.987" height="127.501" rx="63.7505" transform="matrix(0.990344 -0.138635 0.139714 0.990192 8 17.7434)" fill="url(#paint0_radial_90_521)"/>
</g>
<g filter="url(#filter1_bii_90_521)">
<rect width="127.996" height="127.51" rx="60" transform="matrix(0.990344 -0.138635 0.139714 0.990192 8 18.7407)" fill="white" fill-opacity="0.1"/>
</g>
<path d="M29.9592 68.416C29.9592 67.328 30.2099 66.352 30.7112 65.488C31.2232 64.624 31.9112 63.952 32.7752 63.472C33.6499 62.9813 34.6045 62.736 35.6392 62.736C36.8232 62.736 37.8739 63.0293 38.7912 63.616C39.7192 64.192 40.3912 65.0133 40.8072 66.08H38.6152C38.3272 65.4933 37.9272 65.056 37.4152 64.768C36.9032 64.48 36.3112 64.336 35.6392 64.336C34.9032 64.336 34.2472 64.5013 33.6712 64.832C33.0952 65.1627 32.6419 65.6373 32.3112 66.256C31.9912 66.8747 31.8312 67.5947 31.8312 68.416C31.8312 69.2373 31.9912 69.9573 32.3112 70.576C32.6419 71.1947 33.0952 71.6747 33.6712 72.016C34.2472 72.3467 34.9032 72.512 35.6392 72.512C36.3112 72.512 36.9032 72.368 37.4152 72.08C37.9272 71.792 38.3272 71.3547 38.6152 70.768H40.8072C40.3912 71.8347 39.7192 72.656 38.7912 73.232C37.8739 73.808 36.8232 74.096 35.6392 74.096C34.5939 74.096 33.6392 73.856 32.7752 73.376C31.9112 72.8853 31.2232 72.208 30.7112 71.344C30.2099 70.48 29.9592 69.504 29.9592 68.416ZM47.7662 74.144C46.9342 74.144 46.1822 73.9573 45.5102 73.584C44.8382 73.2 44.3102 72.6667 43.9262 71.984C43.5422 71.2907 43.3502 70.4907 43.3502 69.584C43.3502 68.688 43.5475 67.8933 43.9422 67.2C44.3369 66.5067 44.8755 65.9733 45.5582 65.6C46.2409 65.2267 47.0035 65.04 47.8462 65.04C48.6889 65.04 49.4515 65.2267 50.1342 65.6C50.8169 65.9733 51.3555 66.5067 51.7502 67.2C52.1449 67.8933 52.3422 68.688 52.3422 69.584C52.3422 70.48 52.1395 71.2747 51.7342 71.968C51.3289 72.6613 50.7742 73.2 50.0702 73.584C49.3769 73.9573 48.6089 74.144 47.7662 74.144ZM47.7662 72.56C48.2355 72.56 48.6729 72.448 49.0782 72.224C49.4942 72 49.8302 71.664 50.0862 71.216C50.3422 70.768 50.4702 70.224 50.4702 69.584C50.4702 68.944 50.3475 68.4053 50.1022 67.968C49.8569 67.52 49.5315 67.184 49.1262 66.96C48.7209 66.736 48.2835 66.624 47.8142 66.624C47.3449 66.624 46.9075 66.736 46.5022 66.96C46.1075 67.184 45.7929 67.52 45.5582 67.968C45.3235 68.4053 45.2062 68.944 45.2062 69.584C45.2062 70.5333 45.4462 71.2693 45.9262 71.792C46.4169 72.304 47.0302 72.56 47.7662 72.56ZM59.5933 65.04C60.2866 65.04 60.9053 65.184 61.4493 65.472C62.004 65.76 62.436 66.1867 62.7453 66.752C63.0546 67.3173 63.2093 68 63.2093 68.8V74H61.4013V69.072C61.4013 68.2827 61.204 67.68 60.8093 67.264C60.4146 66.8373 59.876 66.624 59.1933 66.624C58.5106 66.624 57.9666 66.8373 57.5613 67.264C57.1666 67.68 56.9693 68.2827 56.9693 69.072V74H55.1453V65.184H56.9693V66.192C57.268 65.8293 57.6466 65.5467 58.1053 65.344C58.5746 65.1413 59.0706 65.04 59.5933 65.04ZM68.6639 66.672V71.552C68.6639 71.8827 68.7386 72.1227 68.8879 72.272C69.0479 72.4107 69.3146 72.48 69.6879 72.48H70.8079V74H69.3679C68.5466 74 67.9173 73.808 67.4799 73.424C67.0426 73.04 66.8239 72.416 66.8239 71.552V66.672H65.7839V65.184H66.8239V62.992H68.6639V65.184H70.8079V66.672H68.6639ZM75.3131 66.464C75.5797 66.016 75.9317 65.6693 76.3691 65.424C76.8171 65.168 77.3451 65.04 77.9531 65.04V66.928H77.4891C76.7744 66.928 76.2304 67.1093 75.8571 67.472C75.4944 67.8347 75.3131 68.464 75.3131 69.36V74H73.4891V65.184H75.3131V66.464ZM80.0217 69.552C80.0217 68.6667 80.203 67.8827 80.5657 67.2C80.939 66.5173 81.4404 65.9893 82.0697 65.616C82.7097 65.232 83.4137 65.04 84.1817 65.04C84.875 65.04 85.4777 65.1787 85.9897 65.456C86.5124 65.7227 86.9284 66.0587 87.2377 66.464V65.184H89.0777V74H87.2377V72.688C86.9284 73.104 86.507 73.4507 85.9737 73.728C85.4404 74.0053 84.8324 74.144 84.1497 74.144C83.3924 74.144 82.699 73.952 82.0697 73.568C81.4404 73.1733 80.939 72.6293 80.5657 71.936C80.203 71.232 80.0217 70.4373 80.0217 69.552ZM87.2377 69.584C87.2377 68.976 87.1097 68.448 86.8537 68C86.6084 67.552 86.283 67.2107 85.8777 66.976C85.4724 66.7413 85.035 66.624 84.5657 66.624C84.0964 66.624 83.659 66.7413 83.2537 66.976C82.8484 67.2 82.5177 67.536 82.2617 67.984C82.0164 68.4213 81.8937 68.944 81.8937 69.552C81.8937 70.16 82.0164 70.6933 82.2617 71.152C82.5177 71.6107 82.8484 71.9627 83.2537 72.208C83.6697 72.4427 84.107 72.56 84.5657 72.56C85.035 72.56 85.4724 72.4427 85.8777 72.208C86.283 71.9733 86.6084 71.632 86.8537 71.184C87.1097 70.7253 87.2377 70.192 87.2377 69.584ZM91.8654 69.584C91.8654 68.6773 92.0468 67.8827 92.4094 67.2C92.7828 66.5067 93.2948 65.9733 93.9454 65.6C94.5961 65.2267 95.3428 65.04 96.1854 65.04C97.2521 65.04 98.1321 65.296 98.8254 65.808C99.5294 66.3093 100.004 67.0293 100.249 67.968H98.2814C98.1214 67.5307 97.8654 67.1893 97.5134 66.944C97.1614 66.6987 96.7188 66.576 96.1854 66.576C95.4388 66.576 94.8414 66.8427 94.3934 67.376C93.9561 67.8987 93.7374 68.6347 93.7374 69.584C93.7374 70.5333 93.9561 71.2747 94.3934 71.808C94.8414 72.3413 95.4388 72.608 96.1854 72.608C97.2414 72.608 97.9401 72.144 98.2814 71.216H100.249C99.9934 72.112 99.5134 72.8267 98.8094 73.36C98.1054 73.8827 97.2308 74.144 96.1854 74.144C95.3428 74.144 94.5961 73.9573 93.9454 73.584C93.2948 73.2 92.7828 72.6667 92.4094 71.984C92.0468 71.2907 91.8654 70.4907 91.8654 69.584ZM105.195 66.672V71.552C105.195 71.8827 105.27 72.1227 105.419 72.272C105.579 72.4107 105.846 72.48 106.219 72.48H107.339V74H105.899C105.078 74 104.449 73.808 104.011 73.424C103.574 73.04 103.355 72.416 103.355 71.552V66.672H102.315V65.184H103.355V62.992H105.195V65.184H107.339V66.672H105.195ZM110.948 64.016C110.618 64.016 110.34 63.904 110.116 63.68C109.892 63.456 109.78 63.1787 109.78 62.848C109.78 62.5173 109.892 62.24 110.116 62.016C110.34 61.792 110.618 61.68 110.948 61.68C111.268 61.68 111.54 61.792 111.764 62.016C111.988 62.24 112.1 62.5173 112.1 62.848C112.1 63.1787 111.988 63.456 111.764 63.68C111.54 63.904 111.268 64.016 110.948 64.016ZM111.844 65.184V74H110.02V65.184H111.844ZM119.063 74.144C118.231 74.144 117.479 73.9573 116.807 73.584C116.135 73.2 115.607 72.6667 115.223 71.984C114.839 71.2907 114.647 70.4907 114.647 69.584C114.647 68.688 114.844 67.8933 115.239 67.2C115.634 66.5067 116.172 65.9733 116.855 65.6C117.538 65.2267 118.3 65.04 119.143 65.04C119.986 65.04 120.748 65.2267 121.431 65.6C122.114 65.9733 122.652 66.5067 123.047 67.2C123.442 67.8933 123.639 68.688 123.639 69.584C123.639 70.48 123.436 71.2747 123.031 71.968C122.626 72.6613 122.071 73.2 121.367 73.584C120.674 73.9573 119.906 74.144 119.063 74.144ZM119.063 72.56C119.532 72.56 119.97 72.448 120.375 72.224C120.791 72 121.127 71.664 121.383 71.216C121.639 70.768 121.767 70.224 121.767 69.584C121.767 68.944 121.644 68.4053 121.399 67.968C121.154 67.52 120.828 67.184 120.423 66.96C120.018 66.736 119.58 66.624 119.111 66.624C118.642 66.624 118.204 66.736 117.799 66.96C117.404 67.184 117.09 67.52 116.855 67.968C116.62 68.4053 116.503 68.944 116.503 69.584C116.503 70.5333 116.743 71.2693 117.223 71.792C117.714 72.304 118.327 72.56 119.063 72.56ZM130.89 65.04C131.584 65.04 132.202 65.184 132.746 65.472C133.301 65.76 133.733 66.1867 134.042 66.752C134.352 67.3173 134.506 68 134.506 68.8V74H132.698V69.072C132.698 68.2827 132.501 67.68 132.106 67.264C131.712 66.8373 131.173 66.624 130.49 66.624C129.808 66.624 129.264 66.8373 128.858 67.264C128.464 67.68 128.266 68.2827 128.266 69.072V74H126.442V65.184H128.266V66.192C128.565 65.8293 128.944 65.5467 129.402 65.344C129.872 65.1413 130.368 65.04 130.89 65.04ZM64.8901 90.192C64.8901 90.7573 64.7567 91.2907 64.4901 91.792C64.2234 92.2933 63.7967 92.704 63.2101 93.024C62.6234 93.3333 61.8714 93.488 60.9541 93.488H58.9381V98H57.1141V86.88H60.9541C61.8074 86.88 62.5274 87.0293 63.1141 87.328C63.7114 87.616 64.1541 88.0107 64.4421 88.512C64.7407 89.0133 64.8901 89.5733 64.8901 90.192ZM60.9541 92C61.6474 92 62.1647 91.8453 62.5061 91.536C62.8474 91.216 63.0181 90.768 63.0181 90.192C63.0181 88.976 62.3301 88.368 60.9541 88.368H58.9381V92H60.9541ZM67.0217 93.552C67.0217 92.6667 67.203 91.8827 67.5657 91.2C67.939 90.5173 68.4404 89.9893 69.0697 89.616C69.7097 89.232 70.4137 89.04 71.1817 89.04C71.875 89.04 72.4777 89.1787 72.9897 89.456C73.5124 89.7227 73.9284 90.0587 74.2377 90.464V89.184H76.0777V98H74.2377V96.688C73.9284 97.104 73.507 97.4507 72.9737 97.728C72.4404 98.0053 71.8324 98.144 71.1497 98.144C70.3924 98.144 69.699 97.952 69.0697 97.568C68.4404 97.1733 67.939 96.6293 67.5657 95.936C67.203 95.232 67.0217 94.4373 67.0217 93.552ZM74.2377 93.584C74.2377 92.976 74.1097 92.448 73.8537 92C73.6084 91.552 73.283 91.2107 72.8777 90.976C72.4724 90.7413 72.035 90.624 71.5657 90.624C71.0964 90.624 70.659 90.7413 70.2537 90.976C69.8484 91.2 69.5177 91.536 69.2617 91.984C69.0164 92.4213 68.8937 92.944 68.8937 93.552C68.8937 94.16 69.0164 94.6933 69.2617 95.152C69.5177 95.6107 69.8484 95.9627 70.2537 96.208C70.6697 96.4427 71.107 96.56 71.5657 96.56C72.035 96.56 72.4724 96.4427 72.8777 96.208C73.283 95.9733 73.6084 95.632 73.8537 95.184C74.1097 94.7253 74.2377 94.192 74.2377 93.584ZM87.4574 89.184V98H85.6334V96.96C85.3454 97.3227 84.9668 97.6107 84.4974 97.824C84.0388 98.0267 83.5481 98.128 83.0254 98.128C82.3321 98.128 81.7081 97.984 81.1534 97.696C80.6094 97.408 80.1774 96.9813 79.8574 96.416C79.5481 95.8507 79.3934 95.168 79.3934 94.368V89.184H81.2014V94.096C81.2014 94.8853 81.3988 95.4933 81.7934 95.92C82.1881 96.336 82.7268 96.544 83.4094 96.544C84.0921 96.544 84.6308 96.336 85.0254 95.92C85.4308 95.4933 85.6334 94.8853 85.6334 94.096V89.184H87.4574ZM94.0641 98.144C93.3707 98.144 92.7467 98.0213 92.1921 97.776C91.6481 97.52 91.2161 97.1787 90.8961 96.752C90.5761 96.3147 90.4054 95.8293 90.3841 95.296H92.2721C92.3041 95.6693 92.4801 95.984 92.8001 96.24C93.1307 96.4853 93.5414 96.608 94.0321 96.608C94.5441 96.608 94.9387 96.512 95.2161 96.32C95.5041 96.1173 95.6481 95.8613 95.6481 95.552C95.6481 95.2213 95.4881 94.976 95.1681 94.816C94.8587 94.656 94.3627 94.48 93.6801 94.288C93.0187 94.1067 92.4801 93.9307 92.0641 93.76C91.6481 93.5893 91.2854 93.328 90.9761 92.976C90.6774 92.624 90.5281 92.16 90.5281 91.584C90.5281 91.1147 90.6667 90.688 90.9441 90.304C91.2214 89.9093 91.6161 89.6 92.1281 89.376C92.6507 89.152 93.2481 89.04 93.9201 89.04C94.9227 89.04 95.7281 89.296 96.3361 89.808C96.9547 90.3093 97.2854 90.9973 97.3281 91.872H95.5041C95.4721 91.4773 95.3121 91.1627 95.0241 90.928C94.7361 90.6933 94.3467 90.576 93.8561 90.576C93.3761 90.576 93.0081 90.6667 92.7521 90.848C92.4961 91.0293 92.3681 91.2693 92.3681 91.568C92.3681 91.8027 92.4534 92 92.6241 92.16C92.7947 92.32 93.0027 92.448 93.2481 92.544C93.4934 92.6293 93.8561 92.7413 94.3361 92.88C94.9761 93.0507 95.4987 93.2267 95.9041 93.408C96.3201 93.5787 96.6774 93.8347 96.9761 94.176C97.2747 94.5173 97.4294 94.9707 97.4401 95.536C97.4401 96.0373 97.3014 96.4853 97.0241 96.88C96.7467 97.2747 96.3521 97.584 95.8401 97.808C95.3387 98.032 94.7467 98.144 94.0641 98.144ZM108.491 93.376C108.491 93.7067 108.47 94.0053 108.427 94.272H101.691C101.744 94.976 102.006 95.5413 102.475 95.968C102.944 96.3947 103.52 96.608 104.203 96.608C105.184 96.608 105.878 96.1973 106.283 95.376H108.251C107.984 96.1867 107.499 96.8533 106.795 97.376C106.102 97.888 105.238 98.144 104.203 98.144C103.36 98.144 102.603 97.9573 101.931 97.584C101.27 97.2 100.747 96.6667 100.363 95.984C99.9896 95.2907 99.8029 94.4907 99.8029 93.584C99.8029 92.6773 99.9843 91.8827 100.347 91.2C100.72 90.5067 101.238 89.9733 101.899 89.6C102.571 89.2267 103.339 89.04 104.203 89.04C105.035 89.04 105.776 89.2213 106.427 89.584C107.078 89.9467 107.584 90.4587 107.947 91.12C108.31 91.7707 108.491 92.5227 108.491 93.376ZM106.587 92.8C106.576 92.128 106.336 91.5893 105.867 91.184C105.398 90.7787 104.816 90.576 104.123 90.576C103.494 90.576 102.955 90.7787 102.507 91.184C102.059 91.5787 101.792 92.1173 101.707 92.8H106.587Z" fill="white"/>
<defs>
<filter id="filter0_d_90_521" x="12.2788" y="8.24741" width="136.007" height="135.499" filterUnits="userSpaceOnUse" color-interpolation-filters="sRGB">
<feFlood flood-opacity="0" result="BackgroundImageFix"/>
<feColorMatrix in="SourceAlpha" type="matrix" values="0 0 0 0 0 0 0 0 0 0 0 0 0 0 0 0 0 0 127 0" result="hardAlpha"/>
<feOffset dy="4"/>
<feGaussianBlur stdDeviation="2"/>
<feComposite in2="hardAlpha" operator="out"/>
<feColorMatrix type="matrix" values="0 0 0 0 0 0 0 0 0 0 0 0 0 0 0 0 0 0 0.25 0"/>
<feBlend mode="normal" in2="BackgroundImageFix" result="effect1_dropShadow_90_521"/>
<feBlend mode="normal" in="SourceGraphic" in2="effect1_dropShadow_90_521" result="shape"/>
</filter>
<filter id="filter1_bii_90_521" x="-4.21313" y="-11.2728" width="169.001" height="168.542" filterUnits="userSpaceOnUse" color-interpolation-filters="sRGB">
<feFlood flood-opacity="0" result="BackgroundImageFix"/>
<feGaussianBlur in="BackgroundImageFix" stdDeviation="10"/>
<feComposite in2="SourceAlpha" operator="in" result="effect1_backgroundBlur_90_521"/>
<feBlend mode="normal" in="SourceGraphic" in2="effect1_backgroundBlur_90_521" result="shape"/>
<feColorMatrix in="SourceAlpha" type="matrix" values="0 0 0 0 0 0 0 0 0 0 0 0 0 0 0 0 0 0 127 0" result="hardAlpha"/>
<feOffset dy="10"/>
<feGaussianBlur stdDeviation="5"/>
<feComposite in2="hardAlpha" operator="arithmetic" k2="-1" k3="1"/>
<feColorMatrix type="matrix" values="0 0 0 0 1 0 0 0 0 1 0 0 0 0 1 0 0 0 0.15 0"/>
<feBlend mode="normal" in2="shape" result="effect2_innerShadow_90_521"/>
<feColorMatrix in="SourceAlpha" type="matrix" values="0 0 0 0 0 0 0 0 0 0 0 0 0 0 0 0 0 0 127 0" result="hardAlpha"/>
<feOffset dy="-10"/>
<feGaussianBlur stdDeviation="5"/>
<feComposite in2="hardAlpha" operator="arithmetic" k2="-1" k3="1"/>
<feColorMatrix type="matrix" values="0 0 0 0 0.996078 0 0 0 0 0.317647 0 0 0 0 0.588235 0 0 0 0.15 0"/>
<feBlend mode="normal" in2="effect2_innerShadow_90_521" result="effect3_innerShadow_90_521"/>
</filter>
<radialGradient id="paint0_radial_90_521" cx="0" cy="0" r="1" gradientUnits="userSpaceOnUse" gradientTransform="translate(-5.04075 -33.5103) rotate(52.2807) scale(179.057 179.23)">
<stop stop-color="#E5F0F3"/>
<stop offset="1" stop-color="#66C0DC"/>
</radialGradient>
</defs>
</svg>
