<svg width="165" height="145" viewBox="0 0 165 145" fill="none" xmlns="http://www.w3.org/2000/svg">
<g filter="url(#filter0_d_75_848)">
<rect width="128.004" height="128.366" rx="64.002" transform="matrix(0.990211 -0.139575 0.138772 0.990324 9 17.8662)" fill="#DE9798"/>
</g>
<g filter="url(#filter1_bii_75_848)">
<rect width="128.013" height="128.375" rx="60" transform="matrix(0.990211 -0.139575 0.138772 0.990324 9 17.8674)" fill="white" fill-opacity="0.1"/>
</g>
<path d="M43.2869 62.1477H41.5142C41.446 61.7689 41.3191 61.4356 41.1335 61.1477C40.9479 60.8598 40.7206 60.6155 40.4517 60.4148C40.1828 60.214 39.8816 60.0625 39.5483 59.9602C39.2188 59.858 38.8684 59.8068 38.4972 59.8068C37.8267 59.8068 37.2263 59.9754 36.696 60.3125C36.1695 60.6496 35.7528 61.1439 35.446 61.7955C35.143 62.447 34.9915 63.2424 34.9915 64.1818C34.9915 65.1288 35.143 65.928 35.446 66.5795C35.7528 67.2311 36.1714 67.7235 36.7017 68.0568C37.232 68.3902 37.8286 68.5568 38.4915 68.5568C38.8589 68.5568 39.2074 68.5076 39.5369 68.4091C39.8703 68.3068 40.1714 68.1572 40.4403 67.9602C40.7093 67.7633 40.9366 67.5227 41.1222 67.2386C41.3116 66.9508 41.4422 66.6212 41.5142 66.25L43.2869 66.2557C43.1922 66.8277 43.0085 67.3542 42.7358 67.8352C42.4669 68.3125 42.1203 68.7254 41.696 69.0739C41.2756 69.4186 40.7945 69.6856 40.2528 69.875C39.7112 70.0644 39.1203 70.1591 38.4801 70.1591C37.4725 70.1591 36.5748 69.9205 35.7869 69.4432C34.9991 68.9621 34.3778 68.2746 33.9233 67.3807C33.4725 66.4867 33.2472 65.4205 33.2472 64.1818C33.2472 62.9394 33.4744 61.8731 33.929 60.983C34.3835 60.089 35.0047 59.4034 35.7926 58.9261C36.5805 58.4451 37.4763 58.2045 38.4801 58.2045C39.0975 58.2045 39.6733 58.2936 40.2074 58.4716C40.7453 58.6458 41.2282 58.9034 41.6562 59.2443C42.0843 59.5814 42.4384 59.9943 42.7188 60.483C42.9991 60.9678 43.1884 61.5227 43.2869 62.1477ZM49.9276 70.1761C49.1094 70.1761 48.3954 69.9886 47.7855 69.6136C47.1757 69.2386 46.7022 68.714 46.3651 68.0398C46.0279 67.3655 45.8594 66.5777 45.8594 65.6761C45.8594 64.7708 46.0279 63.9792 46.3651 63.3011C46.7022 62.6231 47.1757 62.0966 47.7855 61.7216C48.3954 61.3466 49.1094 61.1591 49.9276 61.1591C50.7457 61.1591 51.4598 61.3466 52.0696 61.7216C52.6795 62.0966 53.1529 62.6231 53.4901 63.3011C53.8272 63.9792 53.9957 64.7708 53.9957 65.6761C53.9957 66.5777 53.8272 67.3655 53.4901 68.0398C53.1529 68.714 52.6795 69.2386 52.0696 69.6136C51.4598 69.9886 50.7457 70.1761 49.9276 70.1761ZM49.9332 68.75C50.4635 68.75 50.9029 68.6098 51.2514 68.3295C51.5999 68.0492 51.8575 67.6761 52.0241 67.2102C52.1946 66.7443 52.2798 66.2311 52.2798 65.6705C52.2798 65.1136 52.1946 64.6023 52.0241 64.1364C51.8575 63.6667 51.5999 63.2898 51.2514 63.0057C50.9029 62.7216 50.4635 62.5795 49.9332 62.5795C49.3991 62.5795 48.956 62.7216 48.6037 63.0057C48.2552 63.2898 47.9957 63.6667 47.8253 64.1364C47.6586 64.6023 47.5753 65.1136 47.5753 65.6705C47.5753 66.2311 47.6586 66.7443 47.8253 67.2102C47.9957 67.6761 48.2552 68.0492 48.6037 68.3295C48.956 68.6098 49.3991 68.75 49.9332 68.75ZM58.5909 64.8182V70H56.892V61.2727H58.5227V62.6932H58.6307C58.8314 62.2311 59.1458 61.8598 59.5739 61.5795C60.0057 61.2992 60.5492 61.1591 61.2045 61.1591C61.7992 61.1591 62.3201 61.2841 62.767 61.5341C63.214 61.7803 63.5606 62.1477 63.8068 62.6364C64.053 63.125 64.1761 63.7292 64.1761 64.4489V70H62.4773V64.6534C62.4773 64.0208 62.3125 63.5265 61.983 63.1705C61.6534 62.8106 61.2008 62.6307 60.625 62.6307C60.2311 62.6307 59.8807 62.7159 59.5739 62.8864C59.2708 63.0568 59.0303 63.3068 58.8523 63.6364C58.678 63.9621 58.5909 64.3561 58.5909 64.8182ZM71.5284 61.2727V62.6364H66.7614V61.2727H71.5284ZM68.0398 59.1818H69.7386V67.4375C69.7386 67.767 69.7879 68.0152 69.8864 68.1818C69.9848 68.3447 70.1117 68.4564 70.267 68.517C70.4261 68.5739 70.5985 68.6023 70.7841 68.6023C70.9205 68.6023 71.0398 68.5928 71.142 68.5739C71.2443 68.5549 71.3239 68.5398 71.3807 68.5284L71.6875 69.9318C71.589 69.9697 71.4489 70.0076 71.267 70.0455C71.0852 70.0871 70.858 70.1098 70.5852 70.1136C70.1383 70.1212 69.7216 70.0417 69.3352 69.875C68.9489 69.7083 68.6364 69.4508 68.3977 69.1023C68.1591 68.7538 68.0398 68.3163 68.0398 67.7898V59.1818ZM74.4077 70V61.2727H76.0497V62.6591H76.1406C76.2997 62.1894 76.58 61.8201 76.9815 61.5511C77.3868 61.2784 77.8452 61.142 78.3565 61.142C78.4626 61.142 78.5876 61.1458 78.7315 61.1534C78.8793 61.161 78.9948 61.1705 79.0781 61.1818V62.8068C79.0099 62.7879 78.8887 62.767 78.7145 62.7443C78.5402 62.7178 78.366 62.7045 78.1918 62.7045C77.7902 62.7045 77.4323 62.7898 77.1179 62.9602C76.8073 63.1269 76.5611 63.3598 76.3793 63.6591C76.1974 63.9545 76.1065 64.2917 76.1065 64.6705V70H74.4077ZM84.0099 70.1932C83.4569 70.1932 82.9569 70.0909 82.5099 69.8864C82.063 69.678 81.7088 69.3769 81.4474 68.983C81.1899 68.589 81.0611 68.1061 81.0611 67.5341C81.0611 67.0417 81.1558 66.6364 81.3452 66.3182C81.5346 66 81.7902 65.7481 82.1122 65.5625C82.4342 65.3769 82.794 65.2367 83.1918 65.142C83.5895 65.0473 83.9948 64.9754 84.4077 64.9261C84.9304 64.8655 85.3546 64.8163 85.6804 64.7784C86.0062 64.7367 86.2429 64.6705 86.3906 64.5795C86.5384 64.4886 86.6122 64.3409 86.6122 64.1364V64.0966C86.6122 63.6004 86.4721 63.2159 86.1918 62.9432C85.9152 62.6705 85.5024 62.5341 84.9531 62.5341C84.3812 62.5341 83.9304 62.661 83.6009 62.9148C83.2751 63.1648 83.0497 63.4432 82.9247 63.75L81.3281 63.3864C81.5175 62.8561 81.794 62.428 82.1577 62.1023C82.5251 61.7727 82.9474 61.5341 83.4247 61.3864C83.902 61.2348 84.4039 61.1591 84.9304 61.1591C85.2789 61.1591 85.6482 61.2008 86.0384 61.2841C86.4323 61.3636 86.7997 61.5114 87.1406 61.7273C87.4853 61.9432 87.7675 62.2519 87.9872 62.6534C88.2069 63.0511 88.3168 63.5682 88.3168 64.2045V70H86.6577V68.8068H86.5895C86.4796 69.0265 86.3149 69.2424 86.0952 69.4545C85.8755 69.6667 85.5933 69.8428 85.2486 69.983C84.9039 70.1231 84.491 70.1932 84.0099 70.1932ZM84.3793 68.8295C84.849 68.8295 85.2505 68.7367 85.5838 68.5511C85.9209 68.3655 86.1766 68.1231 86.3509 67.8239C86.5289 67.5208 86.6179 67.197 86.6179 66.8523V65.7273C86.5573 65.7879 86.4399 65.8447 86.2656 65.8977C86.0952 65.947 85.9001 65.9905 85.6804 66.0284C85.4607 66.0625 85.2467 66.0947 85.0384 66.125C84.83 66.1515 84.6558 66.1742 84.5156 66.1932C84.1861 66.2348 83.8849 66.3049 83.6122 66.4034C83.3433 66.5019 83.1274 66.6439 82.9645 66.8295C82.8054 67.0114 82.7259 67.2538 82.7259 67.5568C82.7259 67.9773 82.8812 68.2955 83.1918 68.5114C83.5024 68.7235 83.8982 68.8295 84.3793 68.8295ZM95.2557 70.1761C94.411 70.1761 93.6837 69.9848 93.0739 69.6023C92.4678 69.2159 92.0019 68.6837 91.6761 68.0057C91.3504 67.3277 91.1875 66.5511 91.1875 65.6761C91.1875 64.7898 91.3542 64.0076 91.6875 63.3295C92.0208 62.6477 92.4905 62.1155 93.0966 61.733C93.7027 61.3504 94.4167 61.1591 95.2386 61.1591C95.9015 61.1591 96.4924 61.2822 97.0114 61.5284C97.5303 61.7708 97.9489 62.1117 98.267 62.5511C98.589 62.9905 98.7803 63.5038 98.8409 64.0909H97.1875C97.0966 63.6818 96.8883 63.3295 96.5625 63.0341C96.2405 62.7386 95.8087 62.5909 95.267 62.5909C94.7936 62.5909 94.3788 62.7159 94.0227 62.9659C93.6705 63.2121 93.3958 63.5644 93.1989 64.0227C93.0019 64.4773 92.9034 65.0152 92.9034 65.6364C92.9034 66.2727 93 66.822 93.1932 67.2841C93.3864 67.7462 93.6591 68.1042 94.0114 68.358C94.3674 68.6117 94.786 68.7386 95.267 68.7386C95.589 68.7386 95.8807 68.6799 96.142 68.5625C96.4072 68.4413 96.6288 68.2689 96.8068 68.0455C96.9886 67.822 97.1155 67.553 97.1875 67.2386H98.8409C98.7803 67.803 98.5966 68.3068 98.2898 68.75C97.983 69.1932 97.572 69.5417 97.0568 69.7955C96.5455 70.0492 95.9451 70.1761 95.2557 70.1761ZM105.732 61.2727V62.6364H100.964V61.2727H105.732ZM102.243 59.1818H103.942V67.4375C103.942 67.767 103.991 68.0152 104.089 68.1818C104.188 68.3447 104.315 68.4564 104.47 68.517C104.629 68.5739 104.802 68.6023 104.987 68.6023C105.124 68.6023 105.243 68.5928 105.345 68.5739C105.447 68.5549 105.527 68.5398 105.584 68.5284L105.891 69.9318C105.792 69.9697 105.652 70.0076 105.47 70.0455C105.288 70.0871 105.061 70.1098 104.788 70.1136C104.341 70.1212 103.925 70.0417 103.538 69.875C103.152 69.7083 102.839 69.4508 102.601 69.1023C102.362 68.7538 102.243 68.3163 102.243 67.7898V59.1818ZM108.611 70V61.2727H110.31V70H108.611ZM109.469 59.9261C109.173 59.9261 108.92 59.8277 108.707 59.6307C108.499 59.4299 108.395 59.1913 108.395 58.9148C108.395 58.6345 108.499 58.3958 108.707 58.1989C108.92 57.9981 109.173 57.8977 109.469 57.8977C109.764 57.8977 110.016 57.9981 110.224 58.1989C110.437 58.3958 110.543 58.6345 110.543 58.9148C110.543 59.1913 110.437 59.4299 110.224 59.6307C110.016 59.8277 109.764 59.9261 109.469 59.9261ZM117.271 70.1761C116.453 70.1761 115.739 69.9886 115.129 69.6136C114.519 69.2386 114.046 68.714 113.709 68.0398C113.372 67.3655 113.203 66.5777 113.203 65.6761C113.203 64.7708 113.372 63.9792 113.709 63.3011C114.046 62.6231 114.519 62.0966 115.129 61.7216C115.739 61.3466 116.453 61.1591 117.271 61.1591C118.089 61.1591 118.804 61.3466 119.413 61.7216C120.023 62.0966 120.497 62.6231 120.834 63.3011C121.171 63.9792 121.339 64.7708 121.339 65.6761C121.339 66.5777 121.171 67.3655 120.834 68.0398C120.497 68.714 120.023 69.2386 119.413 69.6136C118.804 69.9886 118.089 70.1761 117.271 70.1761ZM117.277 68.75C117.807 68.75 118.247 68.6098 118.595 68.3295C118.944 68.0492 119.201 67.6761 119.368 67.2102C119.538 66.7443 119.624 66.2311 119.624 65.6705C119.624 65.1136 119.538 64.6023 119.368 64.1364C119.201 63.6667 118.944 63.2898 118.595 63.0057C118.247 62.7216 117.807 62.5795 117.277 62.5795C116.743 62.5795 116.3 62.7216 115.947 63.0057C115.599 63.2898 115.339 63.6667 115.169 64.1364C115.002 64.6023 114.919 65.1136 114.919 65.6705C114.919 66.2311 115.002 66.7443 115.169 67.2102C115.339 67.6761 115.599 68.0492 115.947 68.3295C116.3 68.6098 116.743 68.75 117.277 68.75ZM125.935 64.8182V70H124.236V61.2727H125.866V62.6932H125.974C126.175 62.2311 126.49 61.8598 126.918 61.5795C127.349 61.2992 127.893 61.1591 128.548 61.1591C129.143 61.1591 129.664 61.2841 130.111 61.5341C130.558 61.7803 130.904 62.1477 131.151 62.6364C131.397 63.125 131.52 63.7292 131.52 64.4489V70H129.821V64.6534C129.821 64.0208 129.656 63.5265 129.327 63.1705C128.997 62.8106 128.545 62.6307 127.969 62.6307C127.575 62.6307 127.224 62.7159 126.918 62.8864C126.615 63.0568 126.374 63.3068 126.196 63.6364C126.022 63.9621 125.935 64.3561 125.935 64.8182ZM69.1406 80.4205C69.08 79.8826 68.83 79.4659 68.3906 79.1705C67.9512 78.8712 67.3982 78.7216 66.7315 78.7216C66.2543 78.7216 65.8414 78.7973 65.4929 78.9489C65.1444 79.0966 64.8736 79.3011 64.6804 79.5625C64.491 79.8201 64.3963 80.1136 64.3963 80.4432C64.3963 80.7197 64.4607 80.9583 64.5895 81.1591C64.7221 81.3598 64.8944 81.5284 65.1065 81.6648C65.3224 81.7973 65.5535 81.9091 65.7997 82C66.0459 82.0871 66.2827 82.1591 66.5099 82.2159L67.6463 82.5114C68.0175 82.6023 68.3982 82.7254 68.7884 82.8807C69.1785 83.036 69.5402 83.2405 69.8736 83.4943C70.2069 83.7481 70.4759 84.0625 70.6804 84.4375C70.8887 84.8125 70.9929 85.2614 70.9929 85.7841C70.9929 86.4432 70.8224 87.0284 70.4815 87.5398C70.1444 88.0511 69.6539 88.4545 69.0099 88.75C68.3698 89.0455 67.5952 89.1932 66.6861 89.1932C65.8149 89.1932 65.0611 89.0549 64.4247 88.7784C63.7884 88.5019 63.2902 88.1098 62.9304 87.6023C62.5705 87.0909 62.3717 86.4848 62.3338 85.7841H64.0952C64.1293 86.2045 64.2656 86.5549 64.5043 86.8352C64.7467 87.1117 65.0554 87.3182 65.4304 87.4545C65.8092 87.5871 66.224 87.6534 66.6747 87.6534C67.1709 87.6534 67.6122 87.5758 67.9986 87.4205C68.3887 87.2614 68.6955 87.0417 68.919 86.7614C69.1425 86.4773 69.2543 86.1458 69.2543 85.767C69.2543 85.4223 69.1558 85.1402 68.9588 84.9205C68.7656 84.7008 68.5024 84.5189 68.169 84.375C67.8395 84.2311 67.4664 84.1042 67.0497 83.9943L65.6747 83.6193C64.7429 83.3655 64.0043 82.9924 63.4588 82.5C62.9171 82.0076 62.6463 81.3561 62.6463 80.5455C62.6463 79.875 62.8281 79.2898 63.1918 78.7898C63.5554 78.2898 64.0478 77.9015 64.669 77.625C65.2902 77.3447 65.991 77.2045 66.7713 77.2045C67.5592 77.2045 68.2543 77.3428 68.8565 77.6193C69.4626 77.8958 69.9399 78.2765 70.2884 78.7614C70.6368 79.2424 70.8187 79.7955 70.8338 80.4205H69.1406ZM78.0284 80.2727V81.6364H73.2614V80.2727H78.0284ZM74.5398 78.1818H76.2386V86.4375C76.2386 86.767 76.2879 87.0152 76.3864 87.1818C76.4848 87.3447 76.6117 87.4564 76.767 87.517C76.9261 87.5739 77.0985 87.6023 77.2841 87.6023C77.4205 87.6023 77.5398 87.5928 77.642 87.5739C77.7443 87.5549 77.8239 87.5398 77.8807 87.5284L78.1875 88.9318C78.089 88.9697 77.9489 89.0076 77.767 89.0455C77.5852 89.0871 77.358 89.1098 77.0852 89.1136C76.6383 89.1212 76.2216 89.0417 75.8352 88.875C75.4489 88.7083 75.1364 88.4508 74.8977 88.1023C74.6591 87.7538 74.5398 87.3163 74.5398 86.7898V78.1818ZM83.4474 89.1932C82.8944 89.1932 82.3944 89.0909 81.9474 88.8864C81.5005 88.678 81.1463 88.3769 80.8849 87.983C80.6274 87.589 80.4986 87.1061 80.4986 86.5341C80.4986 86.0417 80.5933 85.6364 80.7827 85.3182C80.9721 85 81.2277 84.7481 81.5497 84.5625C81.8717 84.3769 82.2315 84.2367 82.6293 84.142C83.027 84.0473 83.4323 83.9754 83.8452 83.9261C84.3679 83.8655 84.7921 83.8163 85.1179 83.7784C85.4437 83.7367 85.6804 83.6705 85.8281 83.5795C85.9759 83.4886 86.0497 83.3409 86.0497 83.1364V83.0966C86.0497 82.6004 85.9096 82.2159 85.6293 81.9432C85.3527 81.6705 84.9399 81.5341 84.3906 81.5341C83.8187 81.5341 83.3679 81.661 83.0384 81.9148C82.7126 82.1648 82.4872 82.4432 82.3622 82.75L80.7656 82.3864C80.955 81.8561 81.2315 81.428 81.5952 81.1023C81.9626 80.7727 82.3849 80.5341 82.8622 80.3864C83.3395 80.2348 83.8414 80.1591 84.3679 80.1591C84.7164 80.1591 85.0857 80.2008 85.4759 80.2841C85.8698 80.3636 86.2372 80.5114 86.5781 80.7273C86.9228 80.9432 87.205 81.2519 87.4247 81.6534C87.6444 82.0511 87.7543 82.5682 87.7543 83.2045V89H86.0952V87.8068H86.027C85.9171 88.0265 85.7524 88.2424 85.5327 88.4545C85.313 88.6667 85.0308 88.8428 84.6861 88.983C84.3414 89.1231 83.9285 89.1932 83.4474 89.1932ZM83.8168 87.8295C84.2865 87.8295 84.688 87.7367 85.0213 87.5511C85.3584 87.3655 85.6141 87.1231 85.7884 86.8239C85.9664 86.5208 86.0554 86.197 86.0554 85.8523V84.7273C85.9948 84.7879 85.8774 84.8447 85.7031 84.8977C85.5327 84.947 85.3376 84.9905 85.1179 85.0284C84.8982 85.0625 84.6842 85.0947 84.4759 85.125C84.2675 85.1515 84.0933 85.1742 83.9531 85.1932C83.6236 85.2348 83.3224 85.3049 83.0497 85.4034C82.7808 85.5019 82.5649 85.6439 82.402 85.8295C82.2429 86.0114 82.1634 86.2538 82.1634 86.5568C82.1634 86.9773 82.3187 87.2955 82.6293 87.5114C82.9399 87.7235 83.3357 87.8295 83.8168 87.8295ZM91.017 89V80.2727H92.6591V81.6591H92.75C92.9091 81.1894 93.1894 80.8201 93.5909 80.5511C93.9962 80.2784 94.4545 80.142 94.9659 80.142C95.072 80.142 95.197 80.1458 95.3409 80.1534C95.4886 80.161 95.6042 80.1705 95.6875 80.1818V81.8068C95.6193 81.7879 95.4981 81.767 95.3239 81.7443C95.1496 81.7178 94.9754 81.7045 94.8011 81.7045C94.3996 81.7045 94.0417 81.7898 93.7273 81.9602C93.4167 82.1269 93.1705 82.3598 92.9886 82.6591C92.8068 82.9545 92.7159 83.2917 92.7159 83.6705V89H91.017ZM102.747 80.2727V81.6364H97.9801V80.2727H102.747ZM99.2585 78.1818H100.957V86.4375C100.957 86.767 101.007 87.0152 101.105 87.1818C101.204 87.3447 101.33 87.4564 101.486 87.517C101.645 87.5739 101.817 87.6023 102.003 87.6023C102.139 87.6023 102.259 87.5928 102.361 87.5739C102.463 87.5549 102.543 87.5398 102.599 87.5284L102.906 88.9318C102.808 88.9697 102.668 89.0076 102.486 89.0455C102.304 89.0871 102.077 89.1098 101.804 89.1136C101.357 89.1212 100.94 89.0417 100.554 88.875C100.168 88.7083 99.8551 88.4508 99.6165 88.1023C99.3778 87.7538 99.2585 87.3163 99.2585 86.7898V78.1818Z" fill="white"/>
<defs>
<filter id="filter0_d_75_848" x="15.2788" y="8.30246" width="136.007" height="136.385" filterUnits="userSpaceOnUse" color-interpolation-filters="sRGB">
<feFlood flood-opacity="0" result="BackgroundImageFix"/>
<feColorMatrix in="SourceAlpha" type="matrix" values="0 0 0 0 0 0 0 0 0 0 0 0 0 0 0 0 0 0 127 0" result="hardAlpha"/>
<feOffset dx="2" dy="4"/>
<feGaussianBlur stdDeviation="2"/>
<feComposite in2="hardAlpha" operator="out"/>
<feColorMatrix type="matrix" values="0 0 0 0 0 0 0 0 0 0 0 0 0 0 0 0 0 0 0.15 0"/>
<feBlend mode="normal" in2="BackgroundImageFix" result="effect1_dropShadow_75_848"/>
<feBlend mode="normal" in="SourceGraphic" in2="effect1_dropShadow_75_848" result="shape"/>
</filter>
<filter id="filter1_bii_75_848" x="-3.26172" y="-12.2202" width="169.098" height="169.44" filterUnits="userSpaceOnUse" color-interpolation-filters="sRGB">
<feFlood flood-opacity="0" result="BackgroundImageFix"/>
<feGaussianBlur in="BackgroundImageFix" stdDeviation="10"/>
<feComposite in2="SourceAlpha" operator="in" result="effect1_backgroundBlur_75_848"/>
<feBlend mode="normal" in="SourceGraphic" in2="effect1_backgroundBlur_75_848" result="shape"/>
<feColorMatrix in="SourceAlpha" type="matrix" values="0 0 0 0 0 0 0 0 0 0 0 0 0 0 0 0 0 0 127 0" result="hardAlpha"/>
<feOffset dy="10"/>
<feGaussianBlur stdDeviation="5"/>
<feComposite in2="hardAlpha" operator="arithmetic" k2="-1" k3="1"/>
<feColorMatrix type="matrix" values="0 0 0 0 1 0 0 0 0 1 0 0 0 0 1 0 0 0 0.15 0"/>
<feBlend mode="normal" in2="shape" result="effect2_innerShadow_75_848"/>
<feColorMatrix in="SourceAlpha" type="matrix" values="0 0 0 0 0 0 0 0 0 0 0 0 0 0 0 0 0 0 127 0" result="hardAlpha"/>
<feOffset dy="-10"/>
<feGaussianBlur stdDeviation="5"/>
<feComposite in2="hardAlpha" operator="arithmetic" k2="-1" k3="1"/>
<feColorMatrix type="matrix" values="0 0 0 0 0.996078 0 0 0 0 0.317647 0 0 0 0 0.588235 0 0 0 0.15 0"/>
<feBlend mode="normal" in2="effect2_innerShadow_75_848" result="effect3_innerShadow_75_848"/>
</filter>
</defs>
</svg>
