<svg width="145" height="152" viewBox="0 0 145 152" fill="none" xmlns="http://www.w3.org/2000/svg">
<g filter="url(#filter0_d_55_338)">
<rect x="48" y="46" width="56" height="56" rx="16" fill="#DE9798"/>
</g>
<path d="M74.3335 85.6667H62.6668C61.7828 85.6667 60.9349 85.3155 60.3098 84.6904C59.6847 84.0652 59.3335 83.2174 59.3335 82.3333V65.6667C59.3335 64.7826 59.6847 63.9348 60.3098 63.3096C60.9349 62.6845 61.7828 62.3333 62.6668 62.3333H71.0002" stroke="white" stroke-width="3" stroke-linecap="round" stroke-linejoin="round"/>
<path d="M77.6665 62.3333H89.3332C90.2172 62.3333 91.0651 62.6845 91.6902 63.3096C92.3153 63.9348 92.6665 64.7826 92.6665 65.6667V82.3333C92.6665 83.2174 92.3153 84.0652 91.6902 84.6904C91.0651 85.3155 90.2172 85.6667 89.3332 85.6667H80.9998" stroke="white" stroke-width="3" stroke-linecap="round" stroke-linejoin="round"/>
<path d="M76 79C78.7614 79 81 76.7614 81 74C81 71.2386 78.7614 69 76 69C73.2386 69 71 71.2386 71 74C71 76.7614 73.2386 79 76 79Z" stroke="white" stroke-width="3" stroke-linecap="round" stroke-linejoin="round"/>
<path d="M86 90.6667L81 85.6667L86 80.6667" stroke="white" stroke-width="3" stroke-linecap="round" stroke-linejoin="round"/>
<path d="M66 57.3333L71 62.3333L66 67.3333" stroke="white" stroke-width="3" stroke-linecap="round" stroke-linejoin="round"/>
<defs>
<filter id="filter0_d_55_338" x="0" y="0" width="152" height="152" filterUnits="userSpaceOnUse" color-interpolation-filters="sRGB">
<feFlood flood-opacity="0" result="BackgroundImageFix"/>
<feColorMatrix in="SourceAlpha" type="matrix" values="0 0 0 0 0 0 0 0 0 0 0 0 0 0 0 0 0 0 127 0" result="hardAlpha"/>
<feOffset dy="2"/>
<feGaussianBlur stdDeviation="24"/>
<feColorMatrix type="matrix" values="0 0 0 0 0 0 0 0 0 0 0 0 0 0 0 0 0 0 0.04 0"/>
<feBlend mode="normal" in2="BackgroundImageFix" result="effect1_dropShadow_55_338"/>
<feBlend mode="normal" in="SourceGraphic" in2="effect1_dropShadow_55_338" result="shape"/>
</filter>
</defs>
</svg>
