<svg width="26" height="26" viewBox="0 0 26 26" fill="none" xmlns="http://www.w3.org/2000/svg">
<path d="M13.0002 15.3333C12.4111 15.3333 11.9336 14.8558 11.9336 14.2667V11.0667C11.9336 10.4776 12.4111 10 13.0002 10C13.5893 10 14.0669 10.4776 14.0669 11.0667V14.2667C14.0669 14.8558 13.5893 15.3333 13.0002 15.3333Z" fill="white"/>
<path d="M11.4002 18C11.4002 17.1164 12.1166 16.4 13.0002 16.4C13.8839 16.4 14.6002 17.1164 14.6002 18C14.6002 18.8837 13.8839 19.6 13.0002 19.6C12.1166 19.6 11.4002 18.8837 11.4002 18Z" fill="white"/>
<path d="M11.1124 3.82999C11.9122 2.31034 14.0882 2.31033 14.8881 3.82999L23.7879 20.7398C24.5356 22.1604 23.5055 23.8667 21.9001 23.8667H4.10035C2.495 23.8667 1.46484 22.1604 2.21253 20.7398L11.1124 3.82999ZM21.9001 21.7333L13.0002 4.82358L4.10035 21.7333L21.9001 21.7333Z" fill="white"/>
</svg>
