<svg width="135" height="263" viewBox="0 0 135 263" fill="none" xmlns="http://www.w3.org/2000/svg">
<path d="M105.786 219.865C105.786 219.865 114.385 246.891 116.328 259.687C118.068 269.411 117.964 271.542 117.964 271.542H7.92711C7.92711 271.542 5.57295 234.854 7.1094 224.391C8.64586 213.927 105.786 219.865 105.786 219.865Z" fill="#E5E5E5"/>
<mask id="mask0_75_1795" style="mask-type:luminance" maskUnits="userSpaceOnUse" x="0" y="0" width="135" height="272">
<path d="M0 0H135V272H0V0Z" fill="white"/>
</mask>
<g mask="url(#mask0_75_1795)">
<path d="M23.2813 55.0469L19.75 51.0157C19.75 51.0157 12.8385 35.0834 14.8906 22.3907C16.9375 9.69795 44.6771 -3.20309 56.9583 2.02087C69.2448 7.23962 81.9323 26.1771 90.8386 47.9844C99.7448 69.7865 96.9792 69.9896 112.438 85.4532C127.891 100.912 134.135 111.964 134.443 134.385C134.75 156.802 134.344 183.214 134.344 183.214L128.609 184.953L127.38 196.01C127.38 196.01 99.3334 189.047 92.8854 201.333C86.4375 213.62 70.2656 281.797 51.8386 269.615C33.4167 257.432 0.458339 235.219 0.354172 210.141C0.250006 185.057 19.9063 173.49 20.2135 162.333C20.5156 151.172 20.724 108.688 35.974 97.7344C36.7917 82.9948 36.7917 82.9948 36.7917 82.9948L26.0156 62.5365L23.2813 55.0469Z" fill="#BB9E9A"/>
</g>
<path d="M19.4843 48.8281C19.3385 49.5677 19.427 50.3333 19.7499 51.0156C22.6926 57.1719 39.2395 89.9896 55.1145 84.3281C72.6197 78.0833 71.5937 50.6458 71.5937 50.6458C71.5937 50.6458 48.5676 39.2865 29.6301 37.4375C29.6301 37.4375 21.3124 39.3281 19.4843 48.8281Z" fill="#EFC5BD"/>
<path d="M12.7396 156.906L21.849 150.865C21.849 150.865 22.6667 148.719 28.2969 148.406C33.9271 148.099 48.0521 147.797 48.0521 147.797C48.0521 147.797 50.4063 150.25 45.6979 152.349C45.6979 152.349 59.5156 155.474 56.8542 160.385C56.8542 160.385 59.276 163.354 57.1927 165.401C55.1146 167.448 54.2969 166.526 54.2969 166.526C54.2969 166.526 53.6823 169.599 49.8906 169.802C46.1042 170.01 42.625 169.802 42.625 169.802C42.625 169.802 43.651 172.568 39.0417 172.464C34.4375 172.365 16.3177 175.948 16.3177 175.948C16.3177 175.948 0.557293 176.562 12.7396 156.906Z" fill="#EFC5BD"/>
<path d="M7.10935 186.901C7.10935 186.901 8.74998 180.349 11 179.016C13.25 177.687 16.3229 175.948 16.3229 175.948C16.3229 175.948 13.0469 174.208 13.151 166.016C13.2552 157.828 19.5989 152.401 21.8541 150.865C21.8541 150.865 2.40102 149.844 1.27602 164.479C0.151019 179.12 7.10935 186.901 7.10935 186.901Z" fill="#E5E5E5"/>
<path d="M35.3594 237.984L31.4688 231.635C31.4688 231.635 17.2448 230.104 13.25 227.13C9.25524 224.161 1.98962 224.573 3.7292 227.13C5.46878 229.693 13.5573 234.911 13.9688 235.63C14.375 236.344 11.9219 236.859 9.35941 236.755C6.80212 236.656 5.26566 238.802 7.4167 241.26C9.56774 243.719 10.6927 244.125 10.6927 244.125C10.6927 244.125 10.1823 248.427 16.0157 248.839C16.0157 248.839 23.3855 259.995 35.974 254.469C48.5677 248.943 35.3594 237.984 35.3594 237.984Z" fill="#EFC5BD"/>
<path d="M127.588 195.089C127.588 195.089 104.963 189.662 94.9322 196.828C84.901 203.995 65.2499 218.531 65.2499 218.531C65.2499 218.531 50.4062 221.297 45.802 226.927C41.1926 232.557 39.7603 233.479 39.7603 233.479L31.4739 231.635C31.4739 231.635 22.2603 233.375 27.3749 244.844C32.4947 256.307 33.0051 258.047 46.6197 252.927C60.2343 247.807 80.4999 240.745 99.9478 227.953C119.396 215.156 126.151 211.88 127.073 204.714C127.995 197.547 127.588 195.089 127.588 195.089Z" fill="#E5E5E5"/>
<path d="M78.047 240.073C77.8647 240.073 77.6928 239.974 77.5991 239.802C77.4689 239.557 77.5678 239.255 77.8126 239.125C83.8699 235.943 106.271 222.537 106.5 222.401C106.734 222.26 107.047 222.339 107.188 222.573C107.328 222.813 107.25 223.12 107.016 223.266C106.787 223.401 84.3595 236.818 78.2761 240.016C78.2032 240.052 78.1251 240.073 78.047 240.073Z" fill="black"/>
<path d="M14.7865 244.63H10.6927C10.4167 244.63 10.1875 244.401 10.1875 244.125C10.1875 243.849 10.4115 243.625 10.6927 243.625H14.7865C15.0625 243.625 15.2917 243.849 15.2917 244.125C15.2917 244.401 15.0625 244.63 14.7865 244.63Z" fill="black"/>
<path d="M42.6301 170.307C42.4895 170.307 42.354 170.25 42.2551 170.146C42.229 170.115 40.4165 168.214 36.453 168.365C32.1822 168.516 29.0676 168.354 29.0415 168.354C28.7655 168.339 28.552 168.104 28.5624 167.828C28.578 167.547 28.8072 167.344 29.0936 167.349C29.1249 167.354 32.1926 167.51 36.4165 167.359C40.9009 167.203 42.9165 169.375 42.9999 169.469C43.1874 169.672 43.1718 169.99 42.9634 170.177C42.8697 170.266 42.7499 170.307 42.6301 170.307Z" fill="black"/>
<path d="M54.2967 167.031C54.2186 167.031 54.1405 167.016 54.0676 166.979C53.9686 166.927 43.9895 161.927 30.927 162.375C30.6509 162.396 30.4165 162.167 30.4061 161.891C30.3957 161.615 30.6145 161.38 30.8905 161.37C44.229 160.912 54.4217 166.031 54.5259 166.083C54.7707 166.208 54.8697 166.51 54.7447 166.76C54.6561 166.932 54.479 167.031 54.2967 167.031Z" fill="black"/>
<path d="M56.4583 161.057C55.8073 161.057 54.5416 160.833 51.9531 160.047C46.2656 158.323 38.3854 156.422 33.151 157.146C32.875 157.182 32.6198 156.995 32.5833 156.719C32.5416 156.443 32.7343 156.193 33.0104 156.151C38.4271 155.401 46.4583 157.333 52.2396 159.088C55.2083 159.984 56.1875 160.057 56.4791 160.052C56.5312 160 56.5885 159.953 56.6562 159.922C56.9114 159.818 57.2083 159.932 57.3177 160.187C57.4062 160.391 57.3646 160.63 57.2135 160.797C57.1041 160.917 56.9791 161.057 56.4583 161.057Z" fill="black"/>
<path d="M30.2916 152.854C30.0624 152.854 29.8541 152.693 29.802 152.458C29.7447 152.188 29.9114 151.922 30.1874 151.859C35.7343 150.625 45.3541 151.802 45.7603 151.854C46.0364 151.885 46.2343 152.135 46.1978 152.411C46.1614 152.688 45.9114 152.88 45.6353 152.849C45.5416 152.833 35.7812 151.646 30.401 152.839C30.3645 152.849 30.3281 152.854 30.2916 152.854Z" fill="black"/>
<path d="M69.797 99.0417C63.0626 99.0417 56.8595 97.8073 51.323 95.3698C40.8908 90.7604 36.5418 83.5521 36.3595 83.25C36.2189 83.0104 36.3022 82.7031 36.5418 82.5625C36.7762 82.4219 37.0835 82.5 37.2241 82.7396C37.271 82.8125 41.6251 90.0104 51.7918 94.474C61.1876 98.6042 77.6199 101.182 102.557 90.0104C102.813 89.8958 103.11 90.0104 103.224 90.2604C103.333 90.5156 103.224 90.8125 102.969 90.9271C91.8074 95.9271 81.3699 98.6406 71.9428 99C71.2189 99.0313 70.5053 99.0417 69.797 99.0417Z" fill="black"/>
<path d="M64.0834 94.4167C61.5157 94.4167 59.3229 94.0521 57.5052 93.5417C50.7969 91.6355 47.6719 87.4115 47.5417 87.2292C47.3802 87.0053 47.4323 86.6928 47.6563 86.5313C47.8802 86.3698 48.1927 86.4167 48.3594 86.6407C48.3854 86.6823 51.4427 90.7969 57.8438 92.5938C63.7761 94.2501 73.8855 94.2084 88.3594 84.5626C88.5886 84.4115 88.9011 84.474 89.0573 84.7032C89.2084 84.9323 89.1459 85.2448 88.9167 85.4011C78.4688 92.3594 70.2032 94.4167 64.0834 94.4167Z" fill="black"/>
<path d="M64.6876 83.4948C64.5157 83.4948 64.3543 83.4115 64.2553 83.2552C64.1147 83.0157 64.1876 82.7084 64.4272 82.5625C64.4793 82.5365 69.5053 79.4271 73.7449 71.724C77.6616 64.6042 81.6876 51.9948 78.6251 32.349C78.5834 32.0729 78.7657 31.8177 79.0418 31.7761C79.3178 31.7344 79.573 31.9167 79.6147 32.1927C82.7345 52.1667 78.6043 65.0104 74.5886 72.2709C70.2188 80.1823 65.1616 83.2969 64.948 83.4271C64.8647 83.474 64.7761 83.4948 64.6876 83.4948Z" fill="black"/>
<path d="M71.599 51.1459C71.5833 51.1459 71.5677 51.1459 71.5521 51.1459C71.276 51.1198 71.0729 50.8803 71.099 50.6042C71.1042 50.5261 71.724 42.9688 70.0052 34.5105C68.4323 26.7657 64.5208 16.6563 54.8125 12.4584C54.5625 12.349 54.4427 12.0573 54.5521 11.8021C54.6615 11.5469 54.9583 11.4271 55.2135 11.5365C63.2188 15 68.6771 22.8803 70.9948 34.3334C72.7344 42.9271 72.1042 50.6094 72.099 50.6875C72.0729 50.948 71.8542 51.1459 71.599 51.1459Z" fill="black"/>
<path d="M25.7656 57.3021C25.8229 56.4479 26.1562 55.625 26.6302 54.901C27.1094 54.1771 27.7552 53.5365 28.5156 53.0833C28.6979 52.9583 28.901 52.875 29.099 52.776C29.3021 52.6823 29.4948 52.5833 29.7083 52.5312C29.9219 52.4635 30.1302 52.401 30.3385 52.3437C30.5521 52.3021 30.7708 52.2708 30.9844 52.2448L31.3073 52.2031C31.4167 52.1979 31.5208 52.1979 31.6302 52.2031L32.2708 52.2187C32.6979 52.2656 33.1146 52.3542 33.5208 52.4635C33.1042 52.5781 32.6979 52.625 32.3021 52.7135L31.7135 52.8542L31.4271 52.9219L31.1458 53.0156C30.9583 53.0781 30.7708 53.1354 30.5885 53.1927C30.4115 53.2708 30.2292 53.3437 30.0521 53.4167C29.8698 53.4792 29.7031 53.5729 29.5365 53.6667C29.3698 53.7552 29.1927 53.8281 29.0365 53.9427C28.3802 54.3281 27.7917 54.8229 27.25 55.3854C26.7031 55.9531 26.2188 56.5885 25.7656 57.3021Z" fill="#EFC5BD"/>
<path d="M42.8855 49.9271C43.6615 49.224 44.599 48.7083 45.5782 48.3281C46.5626 47.9375 47.6199 47.7031 48.6928 47.6615C49.7657 47.6198 50.8647 47.776 51.8647 48.1615C52.8699 48.5365 53.7761 49.151 54.474 49.9271C53.5261 49.4896 52.599 49.1198 51.6355 48.9115C50.6772 48.7031 49.7084 48.625 48.7345 48.6667C47.7553 48.6979 46.7813 48.8542 45.8074 49.0729C44.8386 49.2969 43.8699 49.5833 42.8855 49.9271Z" fill="#EFC5BD"/>
<path d="M28.4531 59.7553C28.5937 59.1094 28.9062 58.5261 29.2917 57.9896C29.6823 57.4636 30.1615 56.9844 30.75 56.625C31.3281 56.2657 32.026 56.0313 32.7292 56.0417C33.4375 56.0521 34.1146 56.3125 34.5938 56.7605C33.9323 56.698 33.349 56.698 32.8021 56.8282C32.2604 56.9532 31.7552 57.1875 31.2708 57.4844C30.7865 57.7761 30.3281 58.1407 29.8646 58.5261C29.4062 58.9115 28.9479 59.3282 28.4531 59.7553Z" fill="#EFC5BD"/>
<path d="M51.4845 52.4427L49.2813 52.5573C48.5678 52.599 47.8699 52.6667 47.198 52.7917C46.5313 52.9271 45.8855 53.1094 45.3126 53.4375C45.0261 53.6042 44.7501 53.7917 44.5001 54.0365C44.2501 54.2761 44.0365 54.5573 43.8074 54.8698C43.823 54.4896 43.9324 54.1094 44.1042 53.7448C44.2917 53.3959 44.5417 53.0677 44.849 52.7969C45.4636 52.2552 46.2449 51.9532 47.0157 51.8021C47.7865 51.6615 48.5678 51.6615 49.3178 51.7709C50.0678 51.8802 50.8074 52.0782 51.4845 52.4427Z" fill="#EFC5BD"/>
<path d="M39.3542 65.4375C39.7657 65.7187 40.1199 65.9948 40.4688 66.2552C40.8178 66.5156 41.1563 66.75 41.4949 66.9219C41.8334 67.0937 42.1615 67.2083 42.5313 67.2344C42.9063 67.2813 43.3074 67.1563 43.8074 67.0521C43.7501 67.1563 43.6772 67.2604 43.6042 67.3646C43.5313 67.4687 43.4428 67.5625 43.3386 67.6406C43.2397 67.7187 43.1303 67.8021 43.0157 67.8698C42.8959 67.9219 42.7657 67.974 42.6355 68.0208C42.0938 68.1667 41.4949 68.0625 41.0261 67.8125C40.5522 67.5625 40.1824 67.1979 39.9011 66.7969C39.6199 66.3906 39.4115 65.9375 39.3542 65.4375Z" fill="#EFC5BD"/>
<path d="M45.5105 74.6511C46.7397 74.099 47.9532 73.5834 49.1407 73.0157C49.7292 72.7188 50.323 72.4427 50.8959 72.125C51.4688 71.8125 52.0417 71.5052 52.5938 71.1563C53.7032 70.474 54.7657 69.7292 55.7449 68.8802C56.2292 68.448 56.698 68 57.1407 67.5209C57.5834 67.0365 57.9845 66.5157 58.3907 65.974C58.1876 66.6146 57.8855 67.2292 57.5365 67.8177C57.1667 68.3907 56.7553 68.9375 56.2917 69.4427C55.8334 69.9532 55.3178 70.4011 54.7917 70.8386C54.2553 71.2657 53.6928 71.6511 53.1147 72.0105C51.948 72.7084 50.7136 73.2917 49.4376 73.7344C48.1667 74.1823 46.849 74.5052 45.5105 74.6511Z" fill="#EFC5BD"/>
</svg>
