<svg width="162" height="233" viewBox="0 0 162 233" fill="none" xmlns="http://www.w3.org/2000/svg">
<path d="M-42.5745 192.938C-40.5115 214.711 -31.422 228.57 -15.306 234.509C-2.70102 237.927 5.50959 228.912 9.32116 207.462C12.1428 186.49 8.01671 166.109 -3.05258 146.315C-6.57273 140.76 -11.6009 136.99 -18.137 135.006C-26.5372 134.006 -31.9123 135.676 -34.2621 140.006L-42.5745 192.938Z" fill="#DE9798"/>
<path d="M-42.8798 171.091C-42.7919 185.019 -41.3025 196.065 -38.4114 204.229C-37.0329 210.071 -33.411 216.367 -27.5549 223.12C-13.6917 237.724 -2.22921 238.663 6.83715 225.928C14.9414 212.329 18.1377 195.005 16.4308 173.959C15.2467 157.736 8.69668 137.272 -3.22373 112.566L-42.8798 171.091Z" fill="#473033" fill-opacity="0.1059"/>
<mask id="mask0_75_506" style="mask-type:luminance" maskUnits="userSpaceOnUse" x="-9" y="136" width="129" height="126">
<path d="M119.029 136.328H-8.86244V261.995H119.029V136.328Z" fill="white"/>
</mask>
<g mask="url(#mask0_75_506)">
<path d="M96.2241 136.962L98.3334 141.056C109.569 161.913 115.971 178.154 117.544 189.769C118.705 196.273 118.062 205.691 115.62 218.028L115.842 261.81L-7.71069 261.949L7.51248 144.604L96.2241 136.962Z" fill="#87646B"/>
</g>
<path d="M101.386 222.709C99.8783 223.962 97.422 225.091 94.0129 226.099C90.2198 227.163 86.9818 227.871 84.2897 228.223C80.9083 228.708 78.2392 228.963 76.278 228.981C72.5404 229.138 66.6843 228.981 58.7188 228.509C57.7844 228.514 57.0952 228.685 56.6511 229.023C55.4947 230.064 57.5393 231.41 62.7894 233.056C67.4891 234.291 72.0963 234.754 76.611 234.453C84.2943 234.009 91.3438 231.363 97.7736 226.511L101.386 222.709Z" fill="#473033" fill-opacity="0.2392"/>
<path d="M13.2575 204.16C14.7331 205.779 15.3807 208.661 15.2095 212.81C15.1216 213.786 14.9551 214.734 14.7146 215.645C13.4101 219.429 12.7718 221.492 12.7949 221.825C12.6746 222.047 12.5312 224.087 12.3555 227.95C12.2907 228.685 12.1797 229.411 12.0224 230.128C11.7171 231.572 11.2222 233.015 10.5422 234.458C9.01107 237.876 6.67972 239.958 3.55738 240.712C1.78574 241.11 0.208373 240.948 -1.17934 240.217C-2.6133 239.542 -3.13601 238.723 -2.75207 237.761L13.2575 204.16Z" fill="#473033" fill-opacity="0.2392"/>
<path d="M-5.98977 207.032C-4.6992 208.693 -3.84345 210.724 -3.42713 213.124C-3.23748 214.341 -3.12184 215.738 -3.08021 217.324C-3.02932 218.809 -3.05708 221.631 -3.15884 225.78C-3.15422 226.585 -3.11721 227.376 -3.04783 228.167C-2.89055 230.494 -2.43724 232.233 -1.6925 233.371C-0.346421 235.503 1.74902 236.479 4.59382 236.299C7.54964 235.638 9.39067 234.083 10.1169 231.641C10.3574 231.03 10.561 230.151 10.7229 229C11.0189 225.211 11.2271 223.116 11.352 222.723C12.735 216.385 13.3641 213.18 13.2485 213.106C13.4937 210.936 13.3595 208.952 12.8414 207.153C11.3658 201.634 6.7494 197.055 -1.00327 193.414L-5.98977 207.032Z" fill="#EFC5BD"/>
<mask id="mask1_75_506" style="mask-type:luminance" maskUnits="userSpaceOnUse" x="-65" y="105" width="67" height="108">
<path d="M1.79492 105.54H-65.0001V212.116H1.79492V105.54Z" fill="white"/>
</mask>
<g mask="url(#mask1_75_506)">
<path d="M-28.1196 106.701L-65.0003 168.671C-63.7144 175.226 -62.0676 180.199 -60.0647 183.58C-57.8952 187.688 -54.042 191.453 -48.4958 194.881C-39.7764 199.941 -25.2101 205.335 -4.78762 211.071C-2.64592 208.832 -1.10556 206.972 -0.180424 205.487C1.35531 203.628 1.88726 200.251 1.42469 195.357L-9.11264 174.754L-28.721 166.22L-14.6357 148.781L-28.1196 106.701Z" fill="#87646B"/>
</g>
<path d="M-13.5947 178.399C-13.5624 177.59 -13.4282 177.303 -13.1969 177.539C-11.8879 182.821 -9.8248 187.581 -7.017 191.814C-4.14444 196.069 -1.221 199.261 1.75794 201.384C1.96148 201.491 1.91522 200.057 1.61917 197.082C0.342482 189.714 -0.263484 185.837 -0.198725 185.453C-0.30049 185.028 -0.499396 180.735 -0.79544 172.571L-13.5947 178.399Z" fill="#473033" fill-opacity="0.2392"/>
<path d="M7.53072 22.2635L-30.6683 108.954C-19.1688 167.931 -4.87077 200.126 12.2258 205.538C16.6156 206.463 20.5937 204.641 24.1601 200.071C25.7467 198.142 27.3241 195.884 28.8968 193.303C36.8946 178.982 41.9968 170.332 44.194 167.344C48.0056 161.663 52.3306 157.149 57.1598 153.8C64.0706 148.008 78.0124 144.127 98.9854 142.161L71.999 65.3472L7.53072 22.2635Z" fill="#DE9798"/>
<mask id="mask2_75_506" style="mask-type:luminance" maskUnits="userSpaceOnUse" x="0" y="0" width="84" height="82">
<path d="M83.5034 0H0.610947V81.8563H83.5034V0Z" fill="white"/>
</mask>
<g mask="url(#mask2_75_506)">
<path d="M1.46222 40.979L1.8369 46.5345C3.60854 57.7241 8.79395 66.6748 17.3931 73.382C26.0524 80.0847 36.2475 82.7999 47.9828 81.5371C59.1817 79.7655 68.137 74.5847 74.8489 65.9902C76.9998 63.2148 78.7715 60.1849 80.1638 56.9099L81.9216 51.8633C82.8837 48.3848 83.374 44.7582 83.3833 40.979C83.0919 29.387 79.0907 19.7378 71.3889 12.0407C63.6825 4.34352 54.0286 0.346917 42.4228 0.0508728C30.8215 0.346917 21.1677 4.34352 13.4613 12.0407C5.75487 19.7378 1.75826 29.387 1.46222 40.979Z" fill="#DE9798"/>
</g>
<path d="M9.86708 31.2928V31.3252C9.39063 39.0964 8.90956 47.011 12.9247 56.8637C16.912 66.6517 25.4094 78.5027 36.5157 82.6103C39.985 83.8916 43.6855 84.4097 47.5202 84.4097C55.9899 84.4097 65.2413 81.8887 74.3724 79.4001L73.4935 78.808C74.5991 87.9854 75.7 97.1072 75.4641 107.298C75.2282 117.493 73.6554 128.766 72.0688 140.094C72.0179 140.478 72.2862 140.834 72.6702 140.889C73.0541 140.94 73.4103 140.672 73.4611 140.288C75.0431 128.983 76.6344 117.622 76.8703 107.33C77.1108 97.0286 75.996 87.805 74.8859 78.6415C74.8627 78.4379 74.7517 78.2575 74.5806 78.1419C74.414 78.0262 74.2013 77.9939 74.007 78.0447C64.825 80.5426 55.7632 83.0035 47.5202 83.0035C43.8104 83.0035 40.281 82.5039 37.0014 81.292C26.4317 77.3833 18.1517 65.9578 14.2291 56.3317C10.3435 46.7982 10.7968 39.1704 11.2687 31.4085L11.2733 31.3807C11.2964 30.9922 11.0004 30.6591 10.6118 30.636C10.2233 30.6082 9.89021 30.9043 9.86708 31.2928Z" fill="#87646B"/>
<path d="M71.5736 74.5662L71.8373 74.5569C72.5358 74.5754 73.1834 74.9224 73.7755 75.5977C74.0576 75.8845 74.3768 76.4026 74.7422 77.152C74.9319 77.5868 75.0568 78.0355 75.1308 78.5027C76.0421 77.6932 76.8562 77.2954 77.5732 77.3092C77.9895 77.3139 78.378 77.4573 78.7342 77.7302C78.8499 77.8227 78.9655 77.9291 79.0811 78.0493C79.2245 78.2297 79.3217 78.424 79.3679 78.6368C79.4651 79.0531 79.3587 79.5342 79.058 80.0708C78.6232 80.7369 78.2531 81.1994 77.9478 81.4631C77.6842 81.6898 77.3465 81.9072 76.9394 82.1153C75.3852 82.7722 74.2612 83.2856 73.5766 83.6557C73.4193 83.7205 73.2898 83.7528 73.1973 83.7482C72.9243 83.7528 72.7208 83.6511 72.5867 83.4383C72.5728 83.4244 72.5173 83.3458 72.4201 83.1977L71.1203 81.0653C70.0518 79.3075 69.4689 78.0771 69.3811 77.3647C69.3441 77.0594 69.3441 76.7773 69.3857 76.5182L69.4736 76.1482C69.5568 75.9076 69.6771 75.6949 69.839 75.5006C70.0009 75.3063 70.1998 75.1352 70.4403 74.9871C70.6855 74.8391 70.9677 74.7142 71.2868 74.6125L71.5736 74.5662Z" fill="#87646B"/>
<path d="M36.557 82.8092L40.253 82.2449C51.3917 80.612 59.0055 78.0216 63.0854 74.4645C64.7877 73.1323 66.2725 71.5225 67.54 69.6399L69.2376 66.5684L70.5374 62.9927L71.4117 58.899C72.2674 52.9041 72.0685 46.5021 70.8103 39.6977C70.1859 36.3857 69.3255 33.2356 68.2292 30.252L66.4159 26.0288L64.2742 22.3144L61.8087 19.2475L59.0379 16.9532C56.3828 15.6534 54.9581 15.1029 54.7592 15.3018C54.0792 15.0428 52.4047 15.126 49.7449 15.5608C42.7462 17.6008 36.1037 22.4346 29.822 30.0716C23.5542 37.6115 19.7796 45.0774 18.4937 52.4646L18.2902 55.957L18.614 59.2367L19.4142 62.3312C20.1034 64.3296 21.0425 66.2307 22.222 68.0347C22.6152 69.0154 24.7661 71.5734 28.6795 75.7041C29.4381 76.5414 32.0609 78.9097 36.557 82.8092Z" fill="#EFC5BD"/>
<path d="M53.9176 15.1954C54.5883 15.1954 54.9723 15.2463 55.0694 15.3573C55.0509 15.3157 55.0694 15.2925 55.1295 15.2925C55.421 15.2925 56.7254 15.8476 59.0382 16.9532L61.809 19.2475L64.2745 22.3144L66.4162 26.0288L68.2295 30.252C68.7846 31.7646 69.2795 33.3143 69.7144 34.9101C69.1917 34.1191 68.6412 33.3605 68.0584 32.6389C67.0268 31.3576 65.9028 30.1919 64.6816 29.1326C60.5832 25.779 56.5172 23.8038 52.4929 23.2164C50.8461 22.9481 49.2179 22.8093 47.6128 22.8093C45.2861 22.8093 43.0056 23.0961 40.7714 23.6651C38.4724 24.2756 36.7378 24.8354 35.5675 25.3534L32.7967 26.6949C38.4632 20.6954 44.3609 16.93 50.49 15.4082C52.0072 15.2648 53.1497 15.1954 53.9176 15.1954Z" fill="#87646B"/>
<path d="M81.3864 216.419C75.2596 215.072 70.7426 212.484 67.8354 208.656C67.0902 207.939 65.6086 205.676 63.3848 201.873C59.8049 198.992 57.4662 196.473 56.3615 194.31C53.3466 188.972 51.7843 184.55 51.682 181.052C51.8699 171.977 54.3402 166.024 59.09 163.195C62.6673 161.061 66.0912 160.147 69.3607 160.446C72.3452 160.302 75.0203 161.636 77.3887 164.445L81.3864 216.419Z" fill="#473033" fill-opacity="0.2392"/>
<path d="M91.6684 186.753C98.5121 191.218 101.53 196.407 100.721 202.321C99.2586 209.197 94.5213 213.807 86.5094 216.151C81.0059 217.042 75.4005 214.993 69.6932 210.003C66.273 205.925 64.707 201.501 65.0054 196.733C60.3634 191.977 57.3237 187.857 55.8846 184.359C53.9481 178.289 54.847 172.89 58.5885 168.169C59.6301 166.951 60.6096 166.051 61.5234 165.467C62.2261 164.909 63.6482 164.42 65.7841 164.009C66.6381 162.892 67.4601 162.192 68.2427 161.903C68.7009 161.537 69.8396 161.728 71.6485 162.474C73.2396 161.411 74.2695 161.049 74.7356 161.391C76.4936 161.983 77.7855 162.859 78.6214 164.022C79.4407 165.039 79.9501 166.181 80.1591 167.443C81.8616 168.812 82.9408 169.991 83.3911 170.966C83.9768 172.038 84.267 173.025 84.27 173.939C84.3315 175.258 83.9366 176.329 83.088 177.148C77.6442 180.768 75.0006 182.873 75.1581 183.469C74.3438 184.732 74.3519 186.649 75.1924 189.222L91.6684 186.753Z" fill="#EFC5BD"/>
<path d="M91.7587 187.483C91.0921 185.699 90.0873 184.315 88.7433 183.323C88.1297 182.892 87.3354 182.515 86.364 182.196L83.558 181.883C83.0983 181.709 82.7458 181.4 82.4895 180.95C82.1688 180.271 82.122 179.736 82.3491 179.345C82.4239 179.216 82.5216 179.11 82.6387 179.025C83.8879 178.359 84.6013 177.878 84.7825 177.586C85.1924 177.107 85.4002 176.551 85.4095 175.919C85.274 174.108 84.3081 172.405 82.5107 170.802C79.9024 168.99 76.9096 169.749 73.5399 173.086C69.5909 177.835 68.4076 182.362 69.9909 186.671C71.1937 189.309 72.9803 191.485 75.3533 193.194C77.8841 194.993 80.5224 196.277 83.2647 197.04L91.7587 187.483Z" fill="#EFC5BD"/>
<path d="M80.0438 168.674C80.6376 167.609 80.4851 166.18 79.5826 164.386C78.8921 163.199 77.6295 162.223 75.7985 161.46C74.3666 161.105 73.0775 161.479 71.9256 162.591C71.0388 163.614 70.7986 164.802 71.2087 166.159L80.0438 168.674Z" fill="#EFC5BD"/>
<path d="M66.3833 197.152C64.052 196.665 61.6996 194.914 59.3315 191.89C57.3683 189.557 56.0062 186.624 55.2519 183.089C54.5163 179.835 54.5419 176.91 55.3289 174.313C56.2604 171.832 57.777 170.538 59.8741 170.423L66.3833 197.152Z" fill="#EFC5BD"/>
<path d="M73.3013 205.465C73.8676 206.54 73.9081 207.512 73.4302 208.386C73.4283 208.396 73.4227 208.403 73.4171 208.411C72.8292 209.254 72.0522 209.39 71.099 208.817L71.1064 208.823C70.4074 208.443 69.8136 207.626 69.3325 206.378C69.3252 206.372 69.3243 206.366 69.3234 206.359C68.9901 205.154 68.9687 204.081 69.2583 203.133C69.2923 203.019 69.4148 202.95 69.5321 202.987C69.6494 203.023 69.7125 203.147 69.6785 203.26C69.4107 204.126 69.4344 205.12 69.746 206.239L69.7369 206.22C70.1843 207.367 70.7082 208.108 71.3178 208.437L71.3251 208.443C72.0442 208.873 72.6257 208.78 73.0587 208.156L73.0484 208.177C73.4525 207.439 73.4075 206.603 72.9134 205.67C72.8557 205.563 72.8972 205.431 73.0049 205.374C73.1125 205.316 73.2437 205.358 73.3013 205.465Z" fill="#DE9798"/>
<path d="M83.5219 182.344C81.8477 182.292 79.8235 183.23 77.4455 185.153L77.4483 185.149C76.3742 186.082 75.4179 187.127 74.583 188.288C73.22 190.198 72.4241 191.498 72.198 192.186C72.1575 192.301 72.0341 192.364 71.9196 192.323C71.8024 192.287 71.7393 192.163 71.7797 192.049C72.0227 191.316 72.8402 189.979 74.2274 188.03C75.0819 186.843 76.0615 185.775 77.1616 184.815L77.1681 184.814C79.6288 182.821 81.7541 181.85 83.5347 181.907C83.654 181.91 83.7506 182.012 83.7471 182.132C83.7408 182.255 83.6413 182.348 83.5219 182.344Z" fill="#DE9798"/>
<path d="M73.4262 178.291C74.5406 179.922 74.6965 181.254 73.892 182.275L73.8976 182.268C73.6457 182.622 73.2566 182.867 72.7239 183.003L72.7591 182.995C72.529 183.099 71.7041 183.198 70.2871 183.29L70.3066 183.287C70.064 183.324 69.8573 183.382 69.6959 183.457L69.7145 183.447C69.409 183.628 69.1708 184.01 69.0092 184.59L69.0111 184.58C68.9276 184.935 68.9607 185.442 69.1047 186.109L69.0947 186.084C70.8735 191.291 71.6058 194.159 71.2891 194.691L71.3185 194.568C71.444 196.499 70.6769 197.601 69.0267 197.869C69.0138 197.871 69.0036 197.869 68.9906 197.871C65.8663 197.886 63.563 195.481 62.08 190.649C60.2656 184.747 60.5074 180.94 62.8082 179.226C62.9076 179.156 63.0454 179.173 63.1179 179.269C63.1876 179.369 63.1701 179.506 63.0707 179.576C60.9381 181.169 60.7435 184.813 62.498 190.519C63.9166 195.145 66.0835 197.447 68.9904 197.435L68.9544 197.437C70.3462 197.21 70.9892 196.264 70.8798 194.595C70.8773 194.552 70.8877 194.508 70.912 194.468C71.1587 194.052 70.4164 191.304 68.6785 186.227C68.6776 186.22 68.6758 186.207 68.6749 186.201C68.5192 185.473 68.4902 184.899 68.5852 184.483L68.5871 184.473C68.7827 183.78 69.0852 183.312 69.4947 183.071C69.4975 183.068 69.5067 183.063 69.5132 183.062C69.7118 182.969 69.9527 182.896 70.237 182.851C70.2435 182.85 70.25 182.849 70.2601 182.851C71.6216 182.764 72.3955 182.678 72.5792 182.597C72.5912 182.588 72.6005 182.584 72.6135 182.582C73.0406 182.471 73.3517 182.283 73.5392 182.013L73.5448 182.006C74.2169 181.151 74.0582 179.991 73.0667 178.535C72.997 178.436 73.0246 178.3 73.1241 178.23C73.2243 178.167 73.3593 178.188 73.4262 178.291Z" fill="#DE9798"/>
<path d="M79.7084 178.31C79.7623 179.042 79.6421 179.659 79.3505 180.158L79.3524 180.148C78.9416 180.934 78.459 181.508 77.9082 181.874L77.9054 181.878C76.8988 182.507 75.7906 182.491 74.5779 181.831C74.4709 181.773 74.4328 181.64 74.4908 181.533C74.5488 181.426 74.6823 181.388 74.7893 181.446C75.8488 182.024 76.809 182.044 77.6726 181.504L77.667 181.511C78.1574 181.186 78.5879 180.665 78.9678 179.943L78.9697 179.933C79.2165 179.516 79.3186 178.984 79.2706 178.343C79.2639 178.222 79.3552 178.117 79.4727 178.108C79.594 178.101 79.6989 178.192 79.7084 178.31Z" fill="#DE9798"/>
<path d="M81.8273 179.007C81.3524 178.577 81.0357 178.313 80.8828 178.209L80.8791 178.206C80.5502 177.974 80.1971 177.758 79.8199 177.559L79.8236 177.561C79.0147 177.15 78.3536 176.927 77.8412 176.898C77.7219 176.895 77.6282 176.789 77.6381 176.669C77.6444 176.546 77.7477 176.456 77.8707 176.462C78.4394 176.493 79.1587 176.731 80.0211 177.171L80.0239 177.168C80.4196 177.381 80.7902 177.604 81.1338 177.848L81.1301 177.845C81.3015 177.963 81.6301 178.242 82.1188 178.677C82.209 178.757 82.2183 178.898 82.1382 178.988C82.0581 179.078 81.9175 179.087 81.8273 179.007Z" fill="#DE9798"/>
<path d="M73.4686 167.787C76.4804 172.403 77.1451 175.597 75.4601 177.373L75.4573 177.376C74.9306 177.894 74.0987 178.232 72.9617 178.391C72.9552 178.392 72.9487 178.393 72.9422 178.394L64.554 178.832L64.5577 178.834C63.4887 178.911 62.1601 179.238 60.5654 179.816C60.4486 179.856 60.325 179.797 60.2831 179.683C60.2412 179.57 60.303 179.443 60.4161 179.401C62.0488 178.811 63.4163 178.479 64.5242 178.397L64.5307 178.396L72.9217 177.954L72.9023 177.957C73.9421 177.811 74.6904 177.514 75.1474 177.065L75.1446 177.069C76.6648 175.465 75.9851 172.451 73.1017 168.026C73.0357 167.929 73.0661 167.789 73.1664 167.726C73.2658 167.657 73.4054 167.687 73.4686 167.787Z" fill="#DE9798"/>
<path d="M68.6732 174.003C67.6564 173.231 66.7303 171.819 65.9071 169.759L65.908 169.766C65.2649 168.226 65.0805 166.71 65.3567 165.229C65.3768 165.111 65.4911 165.029 65.6066 165.053C65.7285 165.076 65.8065 165.188 65.7836 165.31C65.5292 166.708 65.7049 168.136 66.3105 169.595L66.3142 169.598C67.1101 171.579 67.9819 172.932 68.9389 173.653C69.0347 173.726 69.0542 173.868 68.9815 173.964C68.9087 174.06 68.7689 174.076 68.6732 174.003Z" fill="#DE9798"/>
<path d="M72.6625 162.477C73.5824 163.216 74.287 164.047 74.7774 164.977L74.7811 164.98C75.3103 166.073 75.4257 166.892 75.1237 167.435L75.1217 167.446C74.7826 168.007 74.1205 168.259 73.1421 168.202L73.1717 168.201C72.7691 168.226 71.6663 167.912 69.8578 167.265C69.7433 167.224 69.6867 167.1 69.7271 166.985C69.7676 166.871 69.8919 166.814 70.0064 166.855C71.7558 167.48 72.8041 167.783 73.141 167.76C73.1511 167.761 73.1613 167.763 73.1678 167.762C73.9733 167.811 74.4962 167.627 74.7438 167.217L74.7419 167.227C74.9691 166.813 74.8492 166.129 74.3886 165.176L74.3895 165.182C73.9265 164.308 73.2605 163.517 72.3894 162.821C72.2927 162.742 72.2806 162.605 72.357 162.512C72.4297 162.416 72.5695 162.4 72.6625 162.477Z" fill="#DE9798"/>
<path d="M80.237 166.01C80.3737 166.671 80.3621 167.237 80.2011 167.702L80.1983 167.705C80.0619 168.084 79.7051 168.347 79.1233 168.486C78.1504 168.735 76.8511 168.335 75.2244 167.28C75.123 167.214 75.0979 167.079 75.1633 166.978C75.2287 166.876 75.363 166.845 75.4644 166.91C76.9823 167.894 78.1642 168.281 79.0157 168.062C79.4502 167.956 79.7047 167.789 79.7884 167.557L79.7856 167.56C79.9202 167.169 79.9296 166.682 79.81 166.098C79.7839 165.979 79.8605 165.863 79.979 165.837C80.0985 165.817 80.2146 165.894 80.237 166.01Z" fill="#DE9798"/>
<path d="M64.8797 166.761C64.564 166.649 64.3026 166.572 64.0891 166.532C63.8756 166.492 63.5872 166.459 63.2283 166.442C63.1053 166.436 63.0153 166.332 63.0187 166.213C63.025 166.09 63.1283 166 63.2513 166.006C63.6305 166.027 63.9383 166.058 64.1722 166.101C64.406 166.145 64.6913 166.229 65.0283 166.351C65.1428 166.391 65.1994 166.516 65.1589 166.63C65.1185 166.745 64.9942 166.801 64.8797 166.761Z" fill="#DE9798"/>
<path d="M77.2864 143.702C81.6068 148.809 85.9595 152.435 90.3447 154.582C92.0701 155.571 94.938 156.469 98.9577 157.274C100.984 157.713 102.496 157.658 103.486 157.103C105.17 156.201 105.734 153.957 105.179 150.381C105.235 148.688 103.274 142.078 99.2862 130.56L77.2864 143.702Z" fill="#473033" fill-opacity="0.2667"/>
<path d="M61.9753 76.7634C62.9652 75.2924 63.3722 73.345 63.1918 70.9211V70.9258C63.0531 68.2429 62.4425 66.2677 61.3601 64.9864C61.3508 64.9771 61.3416 64.9679 61.3323 64.9586C60.6523 64.385 60.0232 64.3203 59.4358 64.769L59.5422 64.7227C59.5237 64.7227 59.5052 64.7273 59.4866 64.7366C59.0657 64.8615 58.4505 65.93 57.6317 67.9283L57.6456 67.9052C57.6456 67.9098 57.641 67.9098 57.641 67.9098C57.6456 67.9098 57.6456 67.9098 57.6456 67.9098C57.6271 67.9144 57.5855 67.9098 57.5254 67.8913L57.6734 68.0116C54.8471 62.803 51.8728 59.1904 48.7504 57.1782L48.7597 57.1828C45.1007 54.5786 42.0339 54.0466 39.5499 55.587C39.5453 55.5916 39.536 55.5962 39.5314 55.6008C36.571 57.8813 35.9465 62.618 37.658 69.8017L37.6626 69.8156C39.5592 76.1574 42.922 81.5787 47.7559 86.0749C47.853 86.1674 48.0103 86.1628 48.1028 86.0657C48.1907 85.9685 48.1861 85.8113 48.0889 85.7187C43.3198 81.2827 40.0032 75.9354 38.1298 69.6768V69.6907C36.4692 62.7059 37.0335 58.1403 39.8274 55.9848L39.8089 55.9986C42.1033 54.5739 44.9943 55.1013 48.4729 57.5806L48.4821 57.5899C51.5397 59.5558 54.4585 63.1083 57.2432 68.2429C57.2756 68.303 57.3264 68.3446 57.3912 68.3631C57.5577 68.4094 57.7058 68.4094 57.826 68.3585C57.8954 68.3307 57.9555 68.2891 58.0064 68.2336C58.0296 68.2059 58.0527 68.1735 58.0758 68.1365C58.0804 68.1318 58.0804 68.1226 58.0851 68.1133C58.8437 66.2538 59.3571 65.2824 59.63 65.1992C59.63 65.1992 59.63 65.1992 59.6254 65.1992C59.6671 65.1945 59.6994 65.1806 59.7318 65.1529C60.1111 64.8661 60.5367 64.9262 61.0178 65.3333L60.99 65.3009C61.9984 66.499 62.572 68.3816 62.7061 70.9489V70.9535C62.8773 73.271 62.498 75.112 61.5728 76.4905C61.4942 76.6015 61.5266 76.7541 61.6376 76.8282C61.7486 76.9022 61.9013 76.8744 61.9753 76.7634Z" fill="#87646B"/>
<path d="M39.9109 89.225L79.5855 146.621C88.7027 150.765 94.4802 153.115 96.918 153.67C100.646 154.984 104.129 155.192 107.358 154.299C108.302 153.902 109.111 153.314 109.782 152.542C110.249 152.343 111.012 150.844 112.067 148.055C113.006 145.108 113.557 139.923 113.714 132.512L65.7408 71.1339C58.4646 72.3505 53.4318 74.0343 50.6379 76.1806C47.6913 78.054 44.1156 82.4021 39.9109 89.225Z" fill="#87646B"/>
<mask id="mask3_75_506" style="mask-type:luminance" maskUnits="userSpaceOnUse" x="116" y="143" width="46" height="31">
<path d="M161.474 143.434H116.66V173.038H161.474V143.434Z" fill="white"/>
</mask>
<g mask="url(#mask3_75_506)">
<path d="M161.474 155.331L152.158 143.614L143.855 156.238L135.422 153.86L131.828 163.518L125.366 161.654L117.063 172.52L126.763 165.808L132.582 169.629L139.803 161.182L146.968 164.189L150.849 154.928L161.474 155.331Z" fill="#DE9798"/>
</g>
<path d="M156.927 185.13L155.002 174.347L145.265 179.588L140.658 175.129L134.982 180.101L131.472 176.655L122.34 180.768L130.921 179.815L133.34 184.297L140.931 181.364L144.502 185.796L150.224 181.175L156.927 185.13Z" fill="#DE9798"/>
<path d="M129.502 207.236C131.939 210.404 132.92 212.532 132.448 213.629C132.43 213.679 132.411 213.73 132.402 213.786C132.3 214.253 131.981 214.655 131.435 214.998C131.421 215.012 131.403 215.021 131.389 215.035C130.936 215.368 129.529 215.835 127.166 216.441C127.119 216.455 127.078 216.469 127.036 216.487C126.675 216.649 126.398 216.825 126.208 217.019C126.069 217.158 125.968 217.306 125.903 217.472L126.153 217.135C126.005 217.255 125.884 217.417 125.801 217.62C125.639 217.991 125.56 218.624 125.56 219.526L125.579 219.341C125.57 219.392 125.56 219.448 125.556 219.508C125.51 219.97 125.653 221.728 125.977 224.781L125.972 224.679C125.963 225.285 125.903 225.826 125.787 226.303C125.782 226.312 125.782 226.321 125.778 226.335C125.616 227.117 125.385 227.765 125.084 228.269L125.13 228.195L122.915 231.141C122.642 231.502 122.711 232.02 123.076 232.293C123.442 232.566 123.96 232.497 124.233 232.131L126.449 229.185C126.467 229.162 126.481 229.138 126.499 229.115C126.897 228.449 127.193 227.63 127.392 226.664L127.388 226.696C127.536 226.095 127.614 225.433 127.624 224.702C127.624 224.67 127.624 224.638 127.619 224.605C127.304 221.663 127.161 220.017 127.198 219.665C127.193 219.679 127.193 219.697 127.189 219.716C127.203 219.656 127.207 219.591 127.207 219.531C127.212 218.856 127.244 218.435 127.318 218.268C127.295 218.314 127.253 218.365 127.189 218.416C127.3 218.328 127.383 218.213 127.434 218.083C127.42 218.129 127.401 218.162 127.378 218.18C127.425 218.134 127.536 218.069 127.707 217.995L127.577 218.041C130.145 217.38 131.74 216.82 132.365 216.362L132.319 216.395C133.253 215.803 133.817 215.049 134.016 214.128L133.965 214.281C134.692 212.592 133.642 209.909 130.811 206.232C130.533 205.871 130.015 205.802 129.654 206.079C129.293 206.357 129.224 206.875 129.502 207.236Z" fill="#DE9798"/>
</svg>
