<svg width="167" height="152" viewBox="0 0 167 152" fill="none" xmlns="http://www.w3.org/2000/svg">
<g filter="url(#filter0_d_24_1452)">
<rect x="11" y="24.8137" width="127.997" height="127.996" rx="63.998" transform="rotate(-8 11 24.8137)" fill="#DE9798"/>
</g>
<g filter="url(#filter1_bii_24_1452)">
<rect y="17.8149" width="128.006" height="128.005" rx="60" transform="rotate(-8 0 17.8149)" fill="white" fill-opacity="0.1"/>
</g>
<path d="M45.2869 71.1477H43.5142C43.446 70.7689 43.3191 70.4356 43.1335 70.1477C42.9479 69.8598 42.7206 69.6155 42.4517 69.4148C42.1828 69.214 41.8816 69.0625 41.5483 68.9602C41.2188 68.858 40.8684 68.8068 40.4972 68.8068C39.8267 68.8068 39.2263 68.9754 38.696 69.3125C38.1695 69.6496 37.7528 70.1439 37.446 70.7955C37.143 71.447 36.9915 72.2424 36.9915 73.1818C36.9915 74.1288 37.143 74.928 37.446 75.5795C37.7528 76.2311 38.1714 76.7235 38.7017 77.0568C39.232 77.3902 39.8286 77.5568 40.4915 77.5568C40.8589 77.5568 41.2074 77.5076 41.5369 77.4091C41.8703 77.3068 42.1714 77.1572 42.4403 76.9602C42.7093 76.7633 42.9366 76.5227 43.1222 76.2386C43.3116 75.9508 43.4422 75.6212 43.5142 75.25L45.2869 75.2557C45.1922 75.8277 45.0085 76.3542 44.7358 76.8352C44.4669 77.3125 44.1203 77.7254 43.696 78.0739C43.2756 78.4186 42.7945 78.6856 42.2528 78.875C41.7112 79.0644 41.1203 79.1591 40.4801 79.1591C39.4725 79.1591 38.5748 78.9205 37.7869 78.4432C36.9991 77.9621 36.3778 77.2746 35.9233 76.3807C35.4725 75.4867 35.2472 74.4205 35.2472 73.1818C35.2472 71.9394 35.4744 70.8731 35.929 69.983C36.3835 69.089 37.0047 68.4034 37.7926 67.9261C38.5805 67.4451 39.4763 67.2045 40.4801 67.2045C41.0975 67.2045 41.6733 67.2936 42.2074 67.4716C42.7453 67.6458 43.2282 67.9034 43.6562 68.2443C44.0843 68.5814 44.4384 68.9943 44.7188 69.483C44.9991 69.9678 45.1884 70.5227 45.2869 71.1477ZM51.9276 79.1761C51.1094 79.1761 50.3954 78.9886 49.7855 78.6136C49.1757 78.2386 48.7022 77.714 48.3651 77.0398C48.0279 76.3655 47.8594 75.5777 47.8594 74.6761C47.8594 73.7708 48.0279 72.9792 48.3651 72.3011C48.7022 71.6231 49.1757 71.0966 49.7855 70.7216C50.3954 70.3466 51.1094 70.1591 51.9276 70.1591C52.7457 70.1591 53.4598 70.3466 54.0696 70.7216C54.6795 71.0966 55.1529 71.6231 55.4901 72.3011C55.8272 72.9792 55.9957 73.7708 55.9957 74.6761C55.9957 75.5777 55.8272 76.3655 55.4901 77.0398C55.1529 77.714 54.6795 78.2386 54.0696 78.6136C53.4598 78.9886 52.7457 79.1761 51.9276 79.1761ZM51.9332 77.75C52.4635 77.75 52.9029 77.6098 53.2514 77.3295C53.5999 77.0492 53.8575 76.6761 54.0241 76.2102C54.1946 75.7443 54.2798 75.2311 54.2798 74.6705C54.2798 74.1136 54.1946 73.6023 54.0241 73.1364C53.8575 72.6667 53.5999 72.2898 53.2514 72.0057C52.9029 71.7216 52.4635 71.5795 51.9332 71.5795C51.3991 71.5795 50.956 71.7216 50.6037 72.0057C50.2552 72.2898 49.9957 72.6667 49.8253 73.1364C49.6586 73.6023 49.5753 74.1136 49.5753 74.6705C49.5753 75.2311 49.6586 75.7443 49.8253 76.2102C49.9957 76.6761 50.2552 77.0492 50.6037 77.3295C50.956 77.6098 51.3991 77.75 51.9332 77.75ZM60.5909 73.8182V79H58.892V70.2727H60.5227V71.6932H60.6307C60.8314 71.2311 61.1458 70.8598 61.5739 70.5795C62.0057 70.2992 62.5492 70.1591 63.2045 70.1591C63.7992 70.1591 64.3201 70.2841 64.767 70.5341C65.214 70.7803 65.5606 71.1477 65.8068 71.6364C66.053 72.125 66.1761 72.7292 66.1761 73.4489V79H64.4773V73.6534C64.4773 73.0208 64.3125 72.5265 63.983 72.1705C63.6534 71.8106 63.2008 71.6307 62.625 71.6307C62.2311 71.6307 61.8807 71.7159 61.5739 71.8864C61.2708 72.0568 61.0303 72.3068 60.8523 72.6364C60.678 72.9621 60.5909 73.3561 60.5909 73.8182ZM73.5284 70.2727V71.6364H68.7614V70.2727H73.5284ZM70.0398 68.1818H71.7386V76.4375C71.7386 76.767 71.7879 77.0152 71.8864 77.1818C71.9848 77.3447 72.1117 77.4564 72.267 77.517C72.4261 77.5739 72.5985 77.6023 72.7841 77.6023C72.9205 77.6023 73.0398 77.5928 73.142 77.5739C73.2443 77.5549 73.3239 77.5398 73.3807 77.5284L73.6875 78.9318C73.589 78.9697 73.4489 79.0076 73.267 79.0455C73.0852 79.0871 72.858 79.1098 72.5852 79.1136C72.1383 79.1212 71.7216 79.0417 71.3352 78.875C70.9489 78.7083 70.6364 78.4508 70.3977 78.1023C70.1591 77.7538 70.0398 77.3163 70.0398 76.7898V68.1818ZM76.4077 79V70.2727H78.0497V71.6591H78.1406C78.2997 71.1894 78.58 70.8201 78.9815 70.5511C79.3868 70.2784 79.8452 70.142 80.3565 70.142C80.4626 70.142 80.5876 70.1458 80.7315 70.1534C80.8793 70.161 80.9948 70.1705 81.0781 70.1818V71.8068C81.0099 71.7879 80.8887 71.767 80.7145 71.7443C80.5402 71.7178 80.366 71.7045 80.1918 71.7045C79.7902 71.7045 79.4323 71.7898 79.1179 71.9602C78.8073 72.1269 78.5611 72.3598 78.3793 72.6591C78.1974 72.9545 78.1065 73.2917 78.1065 73.6705V79H76.4077ZM86.0099 79.1932C85.4569 79.1932 84.9569 79.0909 84.5099 78.8864C84.063 78.678 83.7088 78.3769 83.4474 77.983C83.1899 77.589 83.0611 77.1061 83.0611 76.5341C83.0611 76.0417 83.1558 75.6364 83.3452 75.3182C83.5346 75 83.7902 74.7481 84.1122 74.5625C84.4342 74.3769 84.794 74.2367 85.1918 74.142C85.5895 74.0473 85.9948 73.9754 86.4077 73.9261C86.9304 73.8655 87.3546 73.8163 87.6804 73.7784C88.0062 73.7367 88.2429 73.6705 88.3906 73.5795C88.5384 73.4886 88.6122 73.3409 88.6122 73.1364V73.0966C88.6122 72.6004 88.4721 72.2159 88.1918 71.9432C87.9152 71.6705 87.5024 71.5341 86.9531 71.5341C86.3812 71.5341 85.9304 71.661 85.6009 71.9148C85.2751 72.1648 85.0497 72.4432 84.9247 72.75L83.3281 72.3864C83.5175 71.8561 83.794 71.428 84.1577 71.1023C84.5251 70.7727 84.9474 70.5341 85.4247 70.3864C85.902 70.2348 86.4039 70.1591 86.9304 70.1591C87.2789 70.1591 87.6482 70.2008 88.0384 70.2841C88.4323 70.3636 88.7997 70.5114 89.1406 70.7273C89.4853 70.9432 89.7675 71.2519 89.9872 71.6534C90.2069 72.0511 90.3168 72.5682 90.3168 73.2045V79H88.6577V77.8068H88.5895C88.4796 78.0265 88.3149 78.2424 88.0952 78.4545C87.8755 78.6667 87.5933 78.8428 87.2486 78.983C86.9039 79.1231 86.491 79.1932 86.0099 79.1932ZM86.3793 77.8295C86.849 77.8295 87.2505 77.7367 87.5838 77.5511C87.9209 77.3655 88.1766 77.1231 88.3509 76.8239C88.5289 76.5208 88.6179 76.197 88.6179 75.8523V74.7273C88.5573 74.7879 88.4399 74.8447 88.2656 74.8977C88.0952 74.947 87.9001 74.9905 87.6804 75.0284C87.4607 75.0625 87.2467 75.0947 87.0384 75.125C86.83 75.1515 86.6558 75.1742 86.5156 75.1932C86.1861 75.2348 85.8849 75.3049 85.6122 75.4034C85.3433 75.5019 85.1274 75.6439 84.9645 75.8295C84.8054 76.0114 84.7259 76.2538 84.7259 76.5568C84.7259 76.9773 84.8812 77.2955 85.1918 77.5114C85.5024 77.7235 85.8982 77.8295 86.3793 77.8295ZM97.2557 79.1761C96.411 79.1761 95.6837 78.9848 95.0739 78.6023C94.4678 78.2159 94.0019 77.6837 93.6761 77.0057C93.3504 76.3277 93.1875 75.5511 93.1875 74.6761C93.1875 73.7898 93.3542 73.0076 93.6875 72.3295C94.0208 71.6477 94.4905 71.1155 95.0966 70.733C95.7027 70.3504 96.4167 70.1591 97.2386 70.1591C97.9015 70.1591 98.4924 70.2822 99.0114 70.5284C99.5303 70.7708 99.9489 71.1117 100.267 71.5511C100.589 71.9905 100.78 72.5038 100.841 73.0909H99.1875C99.0966 72.6818 98.8883 72.3295 98.5625 72.0341C98.2405 71.7386 97.8087 71.5909 97.267 71.5909C96.7936 71.5909 96.3788 71.7159 96.0227 71.9659C95.6705 72.2121 95.3958 72.5644 95.1989 73.0227C95.0019 73.4773 94.9034 74.0152 94.9034 74.6364C94.9034 75.2727 95 75.822 95.1932 76.2841C95.3864 76.7462 95.6591 77.1042 96.0114 77.358C96.3674 77.6117 96.786 77.7386 97.267 77.7386C97.589 77.7386 97.8807 77.6799 98.142 77.5625C98.4072 77.4413 98.6288 77.2689 98.8068 77.0455C98.9886 76.822 99.1155 76.553 99.1875 76.2386H100.841C100.78 76.803 100.597 77.3068 100.29 77.75C99.983 78.1932 99.572 78.5417 99.0568 78.7955C98.5455 79.0492 97.9451 79.1761 97.2557 79.1761ZM107.732 70.2727V71.6364H102.964V70.2727H107.732ZM104.243 68.1818H105.942V76.4375C105.942 76.767 105.991 77.0152 106.089 77.1818C106.188 77.3447 106.315 77.4564 106.47 77.517C106.629 77.5739 106.802 77.6023 106.987 77.6023C107.124 77.6023 107.243 77.5928 107.345 77.5739C107.447 77.5549 107.527 77.5398 107.584 77.5284L107.891 78.9318C107.792 78.9697 107.652 79.0076 107.47 79.0455C107.288 79.0871 107.061 79.1098 106.788 79.1136C106.341 79.1212 105.925 79.0417 105.538 78.875C105.152 78.7083 104.839 78.4508 104.601 78.1023C104.362 77.7538 104.243 77.3163 104.243 76.7898V68.1818ZM110.611 79V70.2727H112.31V79H110.611ZM111.469 68.9261C111.173 68.9261 110.92 68.8277 110.707 68.6307C110.499 68.4299 110.395 68.1913 110.395 67.9148C110.395 67.6345 110.499 67.3958 110.707 67.1989C110.92 66.9981 111.173 66.8977 111.469 66.8977C111.764 66.8977 112.016 66.9981 112.224 67.1989C112.437 67.3958 112.543 67.6345 112.543 67.9148C112.543 68.1913 112.437 68.4299 112.224 68.6307C112.016 68.8277 111.764 68.9261 111.469 68.9261ZM119.271 79.1761C118.453 79.1761 117.739 78.9886 117.129 78.6136C116.519 78.2386 116.046 77.714 115.709 77.0398C115.372 76.3655 115.203 75.5777 115.203 74.6761C115.203 73.7708 115.372 72.9792 115.709 72.3011C116.046 71.6231 116.519 71.0966 117.129 70.7216C117.739 70.3466 118.453 70.1591 119.271 70.1591C120.089 70.1591 120.804 70.3466 121.413 70.7216C122.023 71.0966 122.497 71.6231 122.834 72.3011C123.171 72.9792 123.339 73.7708 123.339 74.6761C123.339 75.5777 123.171 76.3655 122.834 77.0398C122.497 77.714 122.023 78.2386 121.413 78.6136C120.804 78.9886 120.089 79.1761 119.271 79.1761ZM119.277 77.75C119.807 77.75 120.247 77.6098 120.595 77.3295C120.944 77.0492 121.201 76.6761 121.368 76.2102C121.538 75.7443 121.624 75.2311 121.624 74.6705C121.624 74.1136 121.538 73.6023 121.368 73.1364C121.201 72.6667 120.944 72.2898 120.595 72.0057C120.247 71.7216 119.807 71.5795 119.277 71.5795C118.743 71.5795 118.3 71.7216 117.947 72.0057C117.599 72.2898 117.339 72.6667 117.169 73.1364C117.002 73.6023 116.919 74.1136 116.919 74.6705C116.919 75.2311 117.002 75.7443 117.169 76.2102C117.339 76.6761 117.599 77.0492 117.947 77.3295C118.3 77.6098 118.743 77.75 119.277 77.75ZM127.935 73.8182V79H126.236V70.2727H127.866V71.6932H127.974C128.175 71.2311 128.49 70.8598 128.918 70.5795C129.349 70.2992 129.893 70.1591 130.548 70.1591C131.143 70.1591 131.664 70.2841 132.111 70.5341C132.558 70.7803 132.904 71.1477 133.151 71.6364C133.397 72.125 133.52 72.7292 133.52 73.4489V79H131.821V73.6534C131.821 73.0208 131.656 72.5265 131.327 72.1705C130.997 71.8106 130.545 71.6307 129.969 71.6307C129.575 71.6307 129.224 71.7159 128.918 71.8864C128.615 72.0568 128.374 72.3068 128.196 72.6364C128.022 72.9621 127.935 73.3561 127.935 73.8182ZM71.1406 89.4205C71.08 88.8826 70.83 88.4659 70.3906 88.1705C69.9512 87.8712 69.3982 87.7216 68.7315 87.7216C68.2543 87.7216 67.8414 87.7973 67.4929 87.9489C67.1444 88.0966 66.8736 88.3011 66.6804 88.5625C66.491 88.8201 66.3963 89.1136 66.3963 89.4432C66.3963 89.7197 66.4607 89.9583 66.5895 90.1591C66.7221 90.3598 66.8944 90.5284 67.1065 90.6648C67.3224 90.7973 67.5535 90.9091 67.7997 91C68.0459 91.0871 68.2827 91.1591 68.5099 91.2159L69.6463 91.5114C70.0175 91.6023 70.3982 91.7254 70.7884 91.8807C71.1785 92.036 71.5402 92.2405 71.8736 92.4943C72.2069 92.7481 72.4759 93.0625 72.6804 93.4375C72.8887 93.8125 72.9929 94.2614 72.9929 94.7841C72.9929 95.4432 72.8224 96.0284 72.4815 96.5398C72.1444 97.0511 71.6539 97.4545 71.0099 97.75C70.3698 98.0455 69.5952 98.1932 68.6861 98.1932C67.8149 98.1932 67.0611 98.0549 66.4247 97.7784C65.7884 97.5019 65.2902 97.1098 64.9304 96.6023C64.5705 96.0909 64.3717 95.4848 64.3338 94.7841H66.0952C66.1293 95.2045 66.2656 95.5549 66.5043 95.8352C66.7467 96.1117 67.0554 96.3182 67.4304 96.4545C67.8092 96.5871 68.224 96.6534 68.6747 96.6534C69.1709 96.6534 69.6122 96.5758 69.9986 96.4205C70.3887 96.2614 70.6955 96.0417 70.919 95.7614C71.1425 95.4773 71.2543 95.1458 71.2543 94.767C71.2543 94.4223 71.1558 94.1402 70.9588 93.9205C70.7656 93.7008 70.5024 93.5189 70.169 93.375C69.8395 93.2311 69.4664 93.1042 69.0497 92.9943L67.6747 92.6193C66.7429 92.3655 66.0043 91.9924 65.4588 91.5C64.9171 91.0076 64.6463 90.3561 64.6463 89.5455C64.6463 88.875 64.8281 88.2898 65.1918 87.7898C65.5554 87.2898 66.0478 86.9015 66.669 86.625C67.2902 86.3447 67.991 86.2045 68.7713 86.2045C69.5592 86.2045 70.2543 86.3428 70.8565 86.6193C71.4626 86.8958 71.9399 87.2765 72.2884 87.7614C72.6368 88.2424 72.8187 88.7955 72.8338 89.4205H71.1406ZM80.0284 89.2727V90.6364H75.2614V89.2727H80.0284ZM76.5398 87.1818H78.2386V95.4375C78.2386 95.767 78.2879 96.0152 78.3864 96.1818C78.4848 96.3447 78.6117 96.4564 78.767 96.517C78.9261 96.5739 79.0985 96.6023 79.2841 96.6023C79.4205 96.6023 79.5398 96.5928 79.642 96.5739C79.7443 96.5549 79.8239 96.5398 79.8807 96.5284L80.1875 97.9318C80.089 97.9697 79.9489 98.0076 79.767 98.0455C79.5852 98.0871 79.358 98.1098 79.0852 98.1136C78.6383 98.1212 78.2216 98.0417 77.8352 97.875C77.4489 97.7083 77.1364 97.4508 76.8977 97.1023C76.6591 96.7538 76.5398 96.3163 76.5398 95.7898V87.1818ZM85.4474 98.1932C84.8944 98.1932 84.3944 98.0909 83.9474 97.8864C83.5005 97.678 83.1463 97.3769 82.8849 96.983C82.6274 96.589 82.4986 96.1061 82.4986 95.5341C82.4986 95.0417 82.5933 94.6364 82.7827 94.3182C82.9721 94 83.2277 93.7481 83.5497 93.5625C83.8717 93.3769 84.2315 93.2367 84.6293 93.142C85.027 93.0473 85.4323 92.9754 85.8452 92.9261C86.3679 92.8655 86.7921 92.8163 87.1179 92.7784C87.4437 92.7367 87.6804 92.6705 87.8281 92.5795C87.9759 92.4886 88.0497 92.3409 88.0497 92.1364V92.0966C88.0497 91.6004 87.9096 91.2159 87.6293 90.9432C87.3527 90.6705 86.9399 90.5341 86.3906 90.5341C85.8187 90.5341 85.3679 90.661 85.0384 90.9148C84.7126 91.1648 84.4872 91.4432 84.3622 91.75L82.7656 91.3864C82.955 90.8561 83.2315 90.428 83.5952 90.1023C83.9626 89.7727 84.3849 89.5341 84.8622 89.3864C85.3395 89.2348 85.8414 89.1591 86.3679 89.1591C86.7164 89.1591 87.0857 89.2008 87.4759 89.2841C87.8698 89.3636 88.2372 89.5114 88.5781 89.7273C88.9228 89.9432 89.205 90.2519 89.4247 90.6534C89.6444 91.0511 89.7543 91.5682 89.7543 92.2045V98H88.0952V96.8068H88.027C87.9171 97.0265 87.7524 97.2424 87.5327 97.4545C87.313 97.6667 87.0308 97.8428 86.6861 97.983C86.3414 98.1231 85.9285 98.1932 85.4474 98.1932ZM85.8168 96.8295C86.2865 96.8295 86.688 96.7367 87.0213 96.5511C87.3584 96.3655 87.6141 96.1231 87.7884 95.8239C87.9664 95.5208 88.0554 95.197 88.0554 94.8523V93.7273C87.9948 93.7879 87.8774 93.8447 87.7031 93.8977C87.5327 93.947 87.3376 93.9905 87.1179 94.0284C86.8982 94.0625 86.6842 94.0947 86.4759 94.125C86.2675 94.1515 86.0933 94.1742 85.9531 94.1932C85.6236 94.2348 85.3224 94.3049 85.0497 94.4034C84.7808 94.5019 84.5649 94.6439 84.402 94.8295C84.2429 95.0114 84.1634 95.2538 84.1634 95.5568C84.1634 95.9773 84.3187 96.2955 84.6293 96.5114C84.9399 96.7235 85.3357 96.8295 85.8168 96.8295ZM93.017 98V89.2727H94.6591V90.6591H94.75C94.9091 90.1894 95.1894 89.8201 95.5909 89.5511C95.9962 89.2784 96.4545 89.142 96.9659 89.142C97.072 89.142 97.197 89.1458 97.3409 89.1534C97.4886 89.161 97.6042 89.1705 97.6875 89.1818V90.8068C97.6193 90.7879 97.4981 90.767 97.3239 90.7443C97.1496 90.7178 96.9754 90.7045 96.8011 90.7045C96.3996 90.7045 96.0417 90.7898 95.7273 90.9602C95.4167 91.1269 95.1705 91.3598 94.9886 91.6591C94.8068 91.9545 94.7159 92.2917 94.7159 92.6705V98H93.017ZM104.747 89.2727V90.6364H99.9801V89.2727H104.747ZM101.259 87.1818H102.957V95.4375C102.957 95.767 103.007 96.0152 103.105 96.1818C103.204 96.3447 103.33 96.4564 103.486 96.517C103.645 96.5739 103.817 96.6023 104.003 96.6023C104.139 96.6023 104.259 96.5928 104.361 96.5739C104.463 96.5549 104.543 96.5398 104.599 96.5284L104.906 97.9318C104.808 97.9697 104.668 98.0076 104.486 98.0455C104.304 98.0871 104.077 98.1098 103.804 98.1136C103.357 98.1212 102.94 98.0417 102.554 97.875C102.168 97.7083 101.855 97.4508 101.616 97.1023C101.378 96.7538 101.259 96.3163 101.259 95.7898V87.1818Z" fill="white"/>
<defs>
<filter id="filter0_d_24_1452" x="17.276" y="15.2761" width="136.013" height="136.012" filterUnits="userSpaceOnUse" color-interpolation-filters="sRGB">
<feFlood flood-opacity="0" result="BackgroundImageFix"/>
<feColorMatrix in="SourceAlpha" type="matrix" values="0 0 0 0 0 0 0 0 0 0 0 0 0 0 0 0 0 0 127 0" result="hardAlpha"/>
<feOffset dx="2" dy="4"/>
<feGaussianBlur stdDeviation="2"/>
<feComposite in2="hardAlpha" operator="out"/>
<feColorMatrix type="matrix" values="0 0 0 0 0 0 0 0 0 0 0 0 0 0 0 0 0 0 0.15 0"/>
<feBlend mode="normal" in2="BackgroundImageFix" result="effect1_dropShadow_24_1452"/>
<feBlend mode="normal" in="SourceGraphic" in2="effect1_dropShadow_24_1452" result="shape"/>
</filter>
<filter id="filter1_bii_24_1452" x="-12.241" y="-12.241" width="169.057" height="169.056" filterUnits="userSpaceOnUse" color-interpolation-filters="sRGB">
<feFlood flood-opacity="0" result="BackgroundImageFix"/>
<feGaussianBlur in="BackgroundImageFix" stdDeviation="10"/>
<feComposite in2="SourceAlpha" operator="in" result="effect1_backgroundBlur_24_1452"/>
<feBlend mode="normal" in="SourceGraphic" in2="effect1_backgroundBlur_24_1452" result="shape"/>
<feColorMatrix in="SourceAlpha" type="matrix" values="0 0 0 0 0 0 0 0 0 0 0 0 0 0 0 0 0 0 127 0" result="hardAlpha"/>
<feOffset dy="10"/>
<feGaussianBlur stdDeviation="5"/>
<feComposite in2="hardAlpha" operator="arithmetic" k2="-1" k3="1"/>
<feColorMatrix type="matrix" values="0 0 0 0 1 0 0 0 0 1 0 0 0 0 1 0 0 0 0.15 0"/>
<feBlend mode="normal" in2="shape" result="effect2_innerShadow_24_1452"/>
<feColorMatrix in="SourceAlpha" type="matrix" values="0 0 0 0 0 0 0 0 0 0 0 0 0 0 0 0 0 0 127 0" result="hardAlpha"/>
<feOffset dy="-10"/>
<feGaussianBlur stdDeviation="5"/>
<feComposite in2="hardAlpha" operator="arithmetic" k2="-1" k3="1"/>
<feColorMatrix type="matrix" values="0 0 0 0 0.996078 0 0 0 0 0.317647 0 0 0 0 0.588235 0 0 0 0.15 0"/>
<feBlend mode="normal" in2="effect2_innerShadow_24_1452" result="effect3_innerShadow_24_1452"/>
</filter>
</defs>
</svg>
