<svg width="162" height="233" viewBox="0 0 162 233" fill="none" xmlns="http://www.w3.org/2000/svg">
<path d="M-42.5745 192.938C-40.5115 214.711 -31.422 228.57 -15.306 234.509C-2.70102 237.927 5.50959 228.912 9.32116 207.462C12.1428 186.49 8.01671 166.109 -3.05258 146.315C-6.57273 140.76 -11.6009 136.99 -18.137 135.006C-26.5372 134.006 -31.9123 135.676 -34.2621 140.006L-42.5745 192.938Z" fill="#DE9798"/>
<path d="M-42.8798 171.091C-42.7919 185.019 -41.3025 196.065 -38.4114 204.229C-37.0329 210.071 -33.411 216.367 -27.5549 223.12C-13.6917 237.724 -2.22921 238.663 6.83715 225.928C14.9414 212.329 18.1377 195.005 16.4308 173.959C15.2467 157.736 8.69668 137.272 -3.22373 112.566L-42.8798 171.091Z" fill="#473033" fill-opacity="0.1059"/>
<mask id="mask0_75_451" style="mask-type:luminance" maskUnits="userSpaceOnUse" x="-9" y="136" width="129" height="126">
<path d="M119.029 136.328H-8.86269V261.995H119.029V136.328Z" fill="white"/>
</mask>
<g mask="url(#mask0_75_451)">
<path d="M96.2241 136.962L98.3334 141.056C109.569 161.913 115.971 178.154 117.544 189.769C118.705 196.273 118.062 205.691 115.62 218.028L115.842 261.81L-7.71069 261.949L7.51248 144.604L96.2241 136.962Z" fill="#87646B"/>
</g>
<path d="M101.386 222.709C99.8783 223.962 97.422 225.091 94.0129 226.099C90.2198 227.163 86.9818 227.871 84.2897 228.223C80.9083 228.708 78.2392 228.963 76.278 228.981C72.5404 229.138 66.6843 228.981 58.7188 228.509C57.7844 228.514 57.0952 228.685 56.6511 229.023C55.4947 230.064 57.5393 231.41 62.7894 233.056C67.4891 234.291 72.0963 234.754 76.611 234.453C84.2943 234.009 91.3438 231.363 97.7736 226.511L101.386 222.709Z" fill="#473033" fill-opacity="0.2392"/>
<path d="M13.2577 204.16C14.7333 205.779 15.3809 208.661 15.2097 212.81C15.1219 213.786 14.9553 214.734 14.7148 215.645C13.4104 219.429 12.772 221.492 12.7951 221.825C12.6749 222.047 12.5315 224.087 12.3557 227.95C12.2909 228.685 12.1799 229.411 12.0226 230.128C11.7173 231.572 11.2224 233.015 10.5424 234.458C9.01132 237.876 6.67997 239.958 3.55762 240.712C1.78598 241.11 0.208617 240.948 -1.17909 240.217C-2.61306 239.542 -3.13576 238.723 -2.75183 237.761L13.2577 204.16Z" fill="#473033" fill-opacity="0.2392"/>
<path d="M57.0305 167.344C54.3985 173.038 53.7278 178.2 55.0183 182.831C55.1386 183.858 56.0452 186.406 57.729 190.477C57.8585 195.07 58.4506 198.456 59.5053 200.644C61.9337 206.274 64.5103 210.192 67.2348 212.389C74.5758 217.727 80.8112 219.36 85.9365 217.287C89.7989 215.729 92.5975 213.555 94.3367 210.77C96.2564 208.48 96.8115 205.543 96.0066 201.958L57.0305 167.344Z" fill="#473033" fill-opacity="0.2392"/>
<path d="M-5.99001 207.032C-4.69944 208.693 -3.84369 210.724 -3.42738 213.124C-3.23772 214.341 -3.12208 215.738 -3.08045 217.324C-3.02957 218.809 -3.05732 221.631 -3.15909 225.78C-3.15446 226.585 -3.11746 227.376 -3.04807 228.167C-2.8908 230.494 -2.43748 232.233 -1.69274 233.371C-0.346665 235.503 1.74878 236.479 4.59358 236.299C7.5494 235.638 9.39042 234.083 10.1167 231.641C10.3572 231.03 10.5607 230.151 10.7226 229C11.0187 225.211 11.2268 223.116 11.3517 222.723C12.7348 216.385 13.3639 213.18 13.2483 213.106C13.4934 210.936 13.3593 208.952 12.8412 207.153C11.3656 201.634 6.74915 197.055 -1.00351 193.414L-5.99001 207.032Z" fill="#EFC5BD"/>
<mask id="mask1_75_451" style="mask-type:luminance" maskUnits="userSpaceOnUse" x="-66" y="105" width="68" height="108">
<path d="M1.79492 105.54H-65.0001V212.116H1.79492V105.54Z" fill="white"/>
</mask>
<g mask="url(#mask1_75_451)">
<path d="M-28.1194 106.701L-65.0001 168.671C-63.7141 175.226 -62.0674 180.199 -60.0644 183.58C-57.895 187.688 -54.0418 191.453 -48.4956 194.881C-39.7761 199.941 -25.2098 205.335 -4.78737 211.071C-2.64568 208.832 -1.10532 206.972 -0.18018 205.487C1.35555 203.628 1.88751 200.251 1.42494 195.357L-9.1124 174.754L-28.7207 166.22L-14.6355 148.781L-28.1194 106.701Z" fill="#87646B"/>
</g>
<path d="M-13.5947 178.399C-13.5624 177.59 -13.4282 177.303 -13.1969 177.539C-11.8879 182.821 -9.8248 187.581 -7.017 191.814C-4.14444 196.069 -1.221 199.261 1.75794 201.384C1.96148 201.491 1.91522 200.057 1.61917 197.082C0.342482 189.714 -0.263484 185.837 -0.198725 185.453C-0.30049 185.028 -0.499396 180.735 -0.79544 172.571L-13.5947 178.399Z" fill="#473033" fill-opacity="0.2392"/>
<path d="M7.53097 22.2635L-30.668 108.954C-19.1685 167.931 -4.87053 200.126 12.226 205.538C16.6158 206.463 20.5939 204.641 24.1603 200.071C25.747 198.142 27.3243 195.884 28.8971 193.303C36.8949 178.982 41.997 170.332 44.1942 167.344C48.0058 161.663 52.3308 157.149 57.1601 153.8C64.0708 148.008 78.0127 144.127 98.9856 142.161L71.9993 65.3472L7.53097 22.2635Z" fill="#DE9798"/>
<mask id="mask2_75_451" style="mask-type:luminance" maskUnits="userSpaceOnUse" x="0" y="0" width="84" height="82">
<path d="M83.5034 0H0.610947V81.8563H83.5034V0Z" fill="white"/>
</mask>
<g mask="url(#mask2_75_451)">
<path d="M1.46198 40.979L1.83665 46.5345C3.6083 57.7241 8.7937 66.6748 17.3929 73.382C26.0522 80.0847 36.2472 82.7999 47.9826 81.5371C59.1814 79.7655 68.1368 74.5847 74.8486 65.9902C76.9996 63.2148 78.7712 60.1849 80.1636 56.9099L81.9213 51.8633C82.8835 48.3848 83.3738 44.7582 83.3831 40.979C83.0916 29.387 79.0904 19.7378 71.3886 12.0407C63.6822 4.34352 54.0284 0.346917 42.4225 0.0508728C30.8213 0.346917 21.1674 4.34352 13.461 12.0407C5.75462 19.7378 1.75802 29.387 1.46198 40.979Z" fill="#DE9798"/>
</g>
<path d="M9.86708 31.2928V31.3252C9.39063 39.0964 8.90956 47.011 12.9247 56.8637C16.912 66.6517 25.4094 78.5027 36.5157 82.6103C39.985 83.8916 43.6855 84.4097 47.5202 84.4097C55.9899 84.4097 65.2413 81.8887 74.3724 79.4001L73.4935 78.808C74.5991 87.9854 75.7 97.1072 75.4641 107.298C75.2282 117.493 73.6554 128.766 72.0688 140.094C72.0179 140.478 72.2862 140.834 72.6702 140.889C73.0541 140.94 73.4103 140.672 73.4611 140.288C75.0431 128.983 76.6344 117.622 76.8703 107.33C77.1108 97.0286 75.996 87.805 74.8859 78.6415C74.8627 78.4379 74.7517 78.2575 74.5806 78.1419C74.414 78.0262 74.2013 77.9939 74.007 78.0447C64.825 80.5426 55.7632 83.0035 47.5202 83.0035C43.8104 83.0035 40.281 82.5039 37.0014 81.292C26.4317 77.3833 18.1517 65.9578 14.2291 56.3317C10.3435 46.7982 10.7968 39.1704 11.2687 31.4085L11.2733 31.3807C11.2964 30.9922 11.0004 30.6591 10.6118 30.636C10.2233 30.6082 9.89021 30.9043 9.86708 31.2928Z" fill="#87646B"/>
<path d="M71.5736 74.5662L71.8373 74.5569C72.5358 74.5754 73.1834 74.9224 73.7755 75.5977C74.0576 75.8845 74.3768 76.4026 74.7422 77.152C74.9319 77.5868 75.0568 78.0355 75.1308 78.5027C76.0421 77.6932 76.8562 77.2954 77.5732 77.3092C77.9895 77.3139 78.378 77.4573 78.7342 77.7302C78.8499 77.8227 78.9655 77.9291 79.0811 78.0493C79.2245 78.2297 79.3217 78.424 79.3679 78.6368C79.4651 79.0531 79.3587 79.5342 79.058 80.0708C78.6232 80.7369 78.2531 81.1994 77.9478 81.4631C77.6842 81.6898 77.3465 81.9072 76.9394 82.1153C75.3852 82.7722 74.2612 83.2856 73.5766 83.6557C73.4193 83.7205 73.2898 83.7528 73.1973 83.7482C72.9243 83.7528 72.7208 83.6511 72.5867 83.4383C72.5728 83.4244 72.5173 83.3458 72.4201 83.1977L71.1203 81.0653C70.0518 79.3075 69.4689 78.0771 69.3811 77.3647C69.3441 77.0594 69.3441 76.7773 69.3857 76.5182L69.4736 76.1482C69.5568 75.9076 69.6771 75.6949 69.839 75.5006C70.0009 75.3063 70.1998 75.1352 70.4403 74.9871C70.6855 74.8391 70.9677 74.7142 71.2868 74.6125L71.5736 74.5662Z" fill="#87646B"/>
<path d="M36.557 82.8092L40.253 82.2449C51.3917 80.612 59.0055 78.0216 63.0854 74.4645C64.7877 73.1323 66.2725 71.5225 67.54 69.6399L69.2376 66.5684L70.5374 62.9927L71.4117 58.899C72.2674 52.9041 72.0685 46.5021 70.8103 39.6977C70.1859 36.3857 69.3255 33.2356 68.2292 30.252L66.4159 26.0288L64.2742 22.3144L61.8087 19.2475L59.0379 16.9532C56.3828 15.6534 54.9581 15.1029 54.7592 15.3018C54.0792 15.0428 52.4047 15.126 49.7449 15.5608C42.7462 17.6008 36.1037 22.4346 29.822 30.0716C23.5542 37.6115 19.7796 45.0774 18.4937 52.4646L18.2902 55.957L18.614 59.2367L19.4142 62.3312C20.1034 64.3296 21.0425 66.2307 22.222 68.0347C22.6152 69.0154 24.7661 71.5734 28.6795 75.7041C29.4381 76.5414 32.0609 78.9097 36.557 82.8092Z" fill="#EFC5BD"/>
<path d="M53.9176 15.1954C54.5883 15.1954 54.9723 15.2463 55.0694 15.3573C55.0509 15.3157 55.0694 15.2925 55.1295 15.2925C55.421 15.2925 56.7254 15.8476 59.0382 16.9532L61.809 19.2475L64.2745 22.3144L66.4162 26.0288L68.2295 30.252C68.7846 31.7646 69.2795 33.3143 69.7144 34.9101C69.1917 34.1191 68.6412 33.3605 68.0584 32.6389C67.0268 31.3576 65.9028 30.1919 64.6816 29.1326C60.5832 25.779 56.5172 23.8038 52.4929 23.2164C50.8461 22.9481 49.2179 22.8093 47.6128 22.8093C45.2861 22.8093 43.0056 23.0961 40.7714 23.6651C38.4724 24.2756 36.7378 24.8354 35.5675 25.3534L32.7967 26.6949C38.4632 20.6954 44.3609 16.93 50.49 15.4082C52.0072 15.2648 53.1497 15.1954 53.9176 15.1954Z" fill="#87646B"/>
<path d="M86.8755 177.095C87.4584 168.944 85.1501 163.403 79.9509 160.47C73.5905 157.477 67.0544 158.462 60.3425 163.426C56.3043 167.27 54.5465 172.973 55.0692 180.536C56.2488 185.726 58.8253 189.649 62.8034 192.295C63.784 198.868 65.2273 203.78 67.1423 207.042C70.8059 212.255 75.649 214.803 81.6716 214.679C83.2721 214.586 84.5812 214.35 85.5988 213.975C86.4685 213.753 87.7174 212.916 89.3364 211.464C90.7426 211.459 91.7973 211.228 92.5004 210.779C93.0693 210.636 93.6059 209.613 94.1055 207.722C95.9141 207.097 96.8254 206.496 96.8346 205.917C97.4267 204.16 97.51 202.601 97.0891 201.232C96.7745 199.964 96.1732 198.868 95.2943 197.938C95.2342 195.755 94.9474 194.182 94.4432 193.234C93.9436 192.119 93.333 191.291 92.6068 190.736C91.5937 189.889 90.5021 189.556 89.3364 189.737C83.1611 191.883 79.8861 192.716 79.5068 192.23C78.0081 192.114 76.4862 190.949 74.9459 188.724L86.8755 177.095Z" fill="#EFC5BD"/>
<path d="M86.3482 176.581C87.3659 178.191 87.8608 179.829 87.8377 181.498C87.81 182.248 87.6296 183.108 87.2965 184.075L85.8487 186.499C85.7099 186.971 85.7423 187.438 85.9458 187.914C86.2927 188.58 86.6905 188.941 87.1392 188.997C87.2873 189.015 87.4307 189.001 87.5694 188.96C88.8554 188.368 89.6695 188.09 90.0118 188.122C90.6409 188.085 91.2098 188.257 91.7187 188.631C93.0786 189.834 93.8511 191.633 94.0408 194.034C93.9066 197.207 91.492 199.132 86.7969 199.798C80.6263 200.071 76.3059 198.276 73.8311 194.409C72.4573 191.855 71.805 189.117 71.8791 186.193C71.9762 183.09 72.5498 180.212 73.5998 177.567L86.3482 176.581Z" fill="#EFC5BD"/>
<path d="M94.2442 197.286C95.4515 197.457 96.4969 198.442 97.3804 200.246C97.9078 201.514 97.9216 203.11 97.4221 205.029C96.8392 206.385 95.7614 207.185 94.1795 207.43C92.8288 207.518 91.7371 206.991 90.9045 205.843L94.2442 197.286Z" fill="#EFC5BD"/>
<path d="M63.3031 190.944C62.2808 193.095 62.253 196.028 63.2291 199.742C63.8998 202.716 65.4124 205.575 67.7715 208.314C69.9178 210.867 72.263 212.615 74.8072 213.559C77.3467 214.318 79.2941 213.892 80.6541 212.292L63.3031 190.944Z" fill="#EFC5BD"/>
<path d="M60.8651 180.407C60.3517 179.306 59.6023 178.686 58.617 178.538C58.6078 178.533 58.5985 178.533 58.5893 178.533C57.5624 178.492 56.9842 179.028 56.8639 180.134V180.125C56.7436 180.911 57.0351 181.878 57.7382 183.016C57.7382 183.025 57.7428 183.03 57.7474 183.034C58.506 184.029 59.3479 184.695 60.2777 185.037C60.3887 185.079 60.5182 185.023 60.5598 184.908C60.6015 184.792 60.5413 184.667 60.4303 184.625C59.5792 184.315 58.8021 183.696 58.099 182.771L58.1082 182.789C57.4652 181.739 57.1923 180.874 57.2987 180.189V180.18C57.3912 179.347 57.8168 178.94 58.5754 178.973L58.5523 178.968C59.3849 179.093 60.0233 179.634 60.4673 180.592C60.5182 180.703 60.6477 180.749 60.7587 180.698C60.8698 180.647 60.916 180.518 60.8651 180.407Z" fill="#DE9798"/>
<path d="M85.4602 186.249C84.4888 187.614 82.5183 188.659 79.5486 189.39H79.5532C78.1609 189.681 76.75 189.811 75.3207 189.774C72.9754 189.704 71.4582 189.552 70.7736 189.316C70.658 189.279 70.5331 189.339 70.4961 189.455C70.4544 189.57 70.5146 189.695 70.6302 189.732C71.3611 189.982 72.9199 190.139 75.3114 190.213C76.7731 190.25 78.2164 190.116 79.6457 189.82L79.6503 189.815C82.7264 189.061 84.7849 187.956 85.8164 186.503C85.8858 186.406 85.8626 186.268 85.7655 186.198C85.6637 186.129 85.5296 186.152 85.4602 186.249Z" fill="#DE9798"/>
<path d="M82.5827 196.74C81.9583 194.867 80.9915 193.937 79.6917 193.96H79.7009C79.2661 193.946 78.8359 194.108 78.4057 194.45L78.4335 194.427C78.2115 194.548 77.6333 195.144 76.7035 196.217L76.7174 196.204C76.5416 196.375 76.3704 196.504 76.2132 196.587L76.2317 196.578C75.9032 196.712 75.4545 196.671 74.8948 196.449L74.9041 196.453C74.571 196.305 74.1871 195.972 73.743 195.454L73.7569 195.477C70.6855 190.912 68.8444 188.594 68.2292 188.525L68.3449 188.576C66.8831 187.308 65.5417 187.253 64.3298 188.405C64.3205 188.414 64.3159 188.423 64.3066 188.432C62.4055 190.912 62.9282 194.201 65.8794 198.304C69.4828 203.318 72.6606 205.427 75.4175 204.632C75.5332 204.595 75.6026 204.474 75.5702 204.359C75.5332 204.243 75.4129 204.174 75.2973 204.211C72.7393 204.946 69.7187 202.897 66.2355 198.049C63.4092 194.122 62.8865 191.004 64.6535 188.696L64.6304 188.724C65.6527 187.752 66.7952 187.813 68.0581 188.909C68.0904 188.937 68.1321 188.955 68.1783 188.96C68.6594 189.015 70.3987 191.268 73.3915 195.722C73.3961 195.727 73.4054 195.736 73.41 195.741C73.8957 196.305 74.3351 196.675 74.7237 196.851L74.7329 196.856C75.4037 197.119 75.9588 197.161 76.3982 196.981C76.4028 196.981 76.4121 196.976 76.4167 196.971C76.611 196.87 76.8145 196.722 77.0227 196.523C77.0273 196.518 77.0319 196.513 77.0365 196.504C77.9293 195.473 78.4659 194.908 78.6417 194.811C78.6555 194.807 78.6648 194.802 78.674 194.793C79.021 194.52 79.3586 194.386 79.6871 194.399H79.6963C80.7834 194.381 81.6114 195.209 82.1711 196.879C82.2081 196.995 82.333 197.055 82.4486 197.018C82.5596 196.976 82.6244 196.856 82.5827 196.74Z" fill="#DE9798"/>
<path d="M86.3666 191.726C85.8161 191.24 85.2518 190.963 84.6782 190.893L84.6875 190.898C83.8132 190.75 83.0638 190.787 82.4394 191.004H82.4347C81.3246 191.425 80.6677 192.318 80.4596 193.683C80.4411 193.803 80.5243 193.914 80.6446 193.932C80.7649 193.951 80.8759 193.868 80.8944 193.747C81.0748 192.554 81.6391 191.777 82.592 191.416H82.5828C83.1379 191.222 83.8132 191.194 84.6181 191.328L84.6273 191.333C85.1084 191.388 85.5941 191.629 86.0752 192.054C86.1677 192.133 86.3065 192.124 86.3851 192.036C86.4637 191.943 86.4545 191.804 86.3666 191.726Z" fill="#DE9798"/>
<path d="M87.0929 189.617C87.1484 190.255 87.1669 190.667 87.1577 190.852V190.856C87.1438 191.259 87.1022 191.67 87.0328 192.091V192.087C86.8709 192.979 86.6489 193.641 86.3621 194.066C86.2927 194.164 86.3204 194.302 86.4222 194.367C86.524 194.436 86.6581 194.409 86.7275 194.307C87.0467 193.835 87.2918 193.118 87.463 192.165H87.4676C87.537 191.721 87.5832 191.291 87.5971 190.87V190.875C87.6064 190.667 87.5832 190.236 87.5324 189.584C87.5231 189.464 87.4167 189.371 87.2965 189.381C87.1762 189.39 87.0837 189.496 87.0929 189.617Z" fill="#DE9798"/>
<path d="M90.9739 203.059C89.119 197.869 86.9773 195.408 84.5441 195.676H84.5395C83.8087 195.783 83.0362 196.241 82.222 197.05C82.2174 197.055 82.2128 197.059 82.2082 197.064L76.7869 203.48V203.475C76.0791 204.28 75.0152 205.14 73.5905 206.061C73.4887 206.13 73.461 206.264 73.5257 206.366C73.5905 206.468 73.7293 206.496 73.831 206.431C75.2881 205.487 76.3798 204.599 77.1153 203.767L77.1199 203.762L82.5458 197.346L82.532 197.36C83.2767 196.62 83.9659 196.204 84.5997 196.111H84.595C86.7922 195.87 88.7813 198.234 90.5622 203.207C90.5992 203.318 90.7287 203.378 90.8397 203.336C90.9554 203.299 91.0155 203.17 90.9739 203.059Z" fill="#DE9798"/>
<path d="M83.1241 203.119C83.1241 204.396 83.6884 205.987 84.831 207.888L84.8264 207.883C85.6636 209.327 86.7599 210.391 88.106 211.066C88.2124 211.121 88.3465 211.08 88.3974 210.973C88.4529 210.862 88.4113 210.733 88.3003 210.677C87.0328 210.034 86.0013 209.031 85.2057 207.666V207.661C84.1094 205.83 83.5589 204.317 83.5635 203.119C83.5635 202.999 83.4618 202.897 83.3415 202.897C83.2212 202.897 83.1241 202.999 83.1241 203.119Z" fill="#DE9798"/>
<path d="M94.7161 206.912C94.6838 205.732 94.4479 204.669 94.0038 203.716V203.711C93.4533 202.629 92.8705 202.041 92.2553 201.953L92.246 201.949C91.5938 201.879 90.9925 202.254 90.4466 203.068L90.4651 203.045C90.2015 203.35 89.7852 204.419 89.2069 206.251C89.1699 206.366 89.2347 206.486 89.3503 206.523C89.466 206.56 89.5863 206.496 89.6233 206.38C90.183 204.608 90.5762 203.591 90.7982 203.336C90.8028 203.327 90.8074 203.318 90.8121 203.313C91.2608 202.642 91.7233 202.337 92.1998 202.388L92.1905 202.383C92.6577 202.453 93.1295 202.962 93.6106 203.905L93.606 203.901C94.0223 204.798 94.249 205.806 94.2767 206.921C94.2813 207.046 94.3831 207.139 94.5034 207.134C94.6236 207.134 94.7208 207.032 94.7161 206.912Z" fill="#DE9798"/>
<path d="M96.483 198.743C96.0389 198.234 95.581 197.901 95.1138 197.748H95.1092C94.7252 197.628 94.2997 197.753 93.8371 198.132C93.0507 198.757 92.5835 200.034 92.4401 201.967C92.4309 202.087 92.5234 202.189 92.6437 202.198C92.7639 202.208 92.8703 202.12 92.8796 202C93.0137 200.195 93.4208 199.021 94.11 198.475C94.4569 198.193 94.7437 198.091 94.9796 198.165H94.975C95.3682 198.294 95.7614 198.581 96.1546 199.03C96.2332 199.122 96.372 199.132 96.4645 199.053C96.5524 198.97 96.5616 198.831 96.483 198.743Z" fill="#DE9798"/>
<path d="M86.5979 210.52C86.4962 210.839 86.399 211.094 86.3019 211.288C86.2047 211.482 86.0567 211.732 85.8532 212.028C85.7838 212.13 85.8116 212.264 85.9087 212.333C86.0105 212.403 86.1446 212.375 86.214 212.273C86.4268 211.959 86.5887 211.695 86.6951 211.482C86.8015 211.269 86.9078 210.992 87.0142 210.65C87.0512 210.534 86.9865 210.414 86.8708 210.377C86.7552 210.34 86.6349 210.404 86.5979 210.52Z" fill="#DE9798"/>
<path d="M77.2864 143.702C81.6068 148.809 85.9595 152.435 90.3447 154.582C92.0701 155.571 94.938 156.469 98.9577 157.274C100.984 157.713 102.496 157.658 103.486 157.103C105.17 156.201 105.734 153.957 105.179 150.381C105.235 148.688 103.274 142.078 99.2862 130.56L77.2864 143.702Z" fill="#473033" fill-opacity="0.2667"/>
<path d="M61.9753 76.7634C62.9652 75.2924 63.3722 73.345 63.1918 70.9211V70.9258C63.0531 68.2429 62.4425 66.2677 61.3601 64.9864C61.3508 64.9771 61.3416 64.9679 61.3323 64.9586C60.6523 64.385 60.0232 64.3203 59.4358 64.769L59.5422 64.7227C59.5237 64.7227 59.5052 64.7273 59.4866 64.7366C59.0657 64.8615 58.4505 65.93 57.6317 67.9283L57.6456 67.9052C57.6456 67.9098 57.641 67.9098 57.641 67.9098C57.6456 67.9098 57.6456 67.9098 57.6456 67.9098C57.6271 67.9144 57.5855 67.9098 57.5254 67.8913L57.6734 68.0116C54.8471 62.803 51.8728 59.1904 48.7504 57.1782L48.7597 57.1828C45.1007 54.5786 42.0339 54.0466 39.5499 55.587C39.5453 55.5916 39.536 55.5962 39.5314 55.6008C36.571 57.8813 35.9465 62.618 37.658 69.8017L37.6626 69.8156C39.5592 76.1574 42.922 81.5787 47.7559 86.0749C47.853 86.1674 48.0103 86.1628 48.1028 86.0657C48.1907 85.9685 48.1861 85.8113 48.0889 85.7187C43.3198 81.2827 40.0032 75.9354 38.1298 69.6768V69.6907C36.4692 62.7059 37.0335 58.1403 39.8274 55.9848L39.8089 55.9986C42.1033 54.5739 44.9943 55.1013 48.4729 57.5806L48.4821 57.5899C51.5397 59.5558 54.4585 63.1083 57.2432 68.2429C57.2756 68.303 57.3264 68.3446 57.3912 68.3631C57.5577 68.4094 57.7058 68.4094 57.826 68.3585C57.8954 68.3307 57.9555 68.2891 58.0064 68.2336C58.0296 68.2059 58.0527 68.1735 58.0758 68.1365C58.0804 68.1318 58.0804 68.1226 58.0851 68.1133C58.8437 66.2538 59.3571 65.2824 59.63 65.1992C59.63 65.1992 59.63 65.1992 59.6254 65.1992C59.6671 65.1945 59.6994 65.1806 59.7318 65.1529C60.1111 64.8661 60.5367 64.9262 61.0178 65.3333L60.99 65.3009C61.9984 66.499 62.572 68.3816 62.7061 70.9489V70.9535C62.8773 73.271 62.498 75.112 61.5728 76.4905C61.4942 76.6015 61.5266 76.7541 61.6376 76.8282C61.7486 76.9022 61.9013 76.8744 61.9753 76.7634Z" fill="#87646B"/>
<path d="M39.9106 89.225L79.5852 146.621C88.7025 150.765 94.48 153.115 96.9177 153.67C100.646 154.984 104.129 155.192 107.358 154.299C108.302 153.902 109.111 153.314 109.782 152.542C110.249 152.343 111.012 150.844 112.067 148.055C113.006 145.108 113.556 139.923 113.714 132.512L65.7405 71.1339C58.4643 72.3505 53.4316 74.0343 50.6376 76.1806C47.6911 78.054 44.1154 82.4021 39.9106 89.225Z" fill="#87646B"/>
<mask id="mask3_75_451" style="mask-type:luminance" maskUnits="userSpaceOnUse" x="116" y="143" width="46" height="31">
<path d="M161.474 143.434H116.66V173.038H161.474V143.434Z" fill="white"/>
</mask>
<g mask="url(#mask3_75_451)">
<path d="M161.474 155.331L152.158 143.614L143.855 156.238L135.422 153.86L131.828 163.518L125.366 161.654L117.063 172.52L126.763 165.808L132.582 169.629L139.803 161.182L146.968 164.189L150.849 154.928L161.474 155.331Z" fill="#DE9798"/>
</g>
<path d="M156.927 185.13L155.003 174.347L145.266 179.588L140.658 175.129L134.983 180.101L131.472 176.655L122.341 180.768L130.921 179.815L133.341 184.297L140.931 181.364L144.502 185.796L150.224 181.175L156.927 185.13Z" fill="#DE9798"/>
<path d="M129.501 207.236C131.939 210.404 132.92 212.532 132.448 213.629C132.429 213.679 132.411 213.73 132.402 213.786C132.3 214.253 131.981 214.655 131.435 214.998C131.421 215.012 131.402 215.021 131.389 215.035C130.935 215.368 129.529 215.835 127.165 216.441C127.119 216.455 127.077 216.469 127.036 216.487C126.675 216.649 126.397 216.825 126.208 217.019C126.069 217.158 125.967 217.306 125.903 217.472L126.152 217.135C126.004 217.255 125.884 217.417 125.801 217.62C125.639 217.991 125.56 218.624 125.56 219.526L125.579 219.341C125.569 219.392 125.56 219.448 125.556 219.508C125.509 219.97 125.653 221.728 125.977 224.781L125.972 224.679C125.963 225.285 125.903 225.826 125.787 226.303C125.782 226.312 125.782 226.321 125.778 226.335C125.616 227.117 125.384 227.765 125.084 228.269L125.13 228.195L122.914 231.141C122.641 231.502 122.711 232.02 123.076 232.293C123.442 232.566 123.96 232.497 124.233 232.131L126.448 229.185C126.467 229.162 126.481 229.138 126.499 229.115C126.897 228.449 127.193 227.63 127.392 226.664L127.387 226.696C127.535 226.095 127.614 225.433 127.623 224.702C127.623 224.67 127.623 224.638 127.619 224.605C127.304 221.663 127.161 220.017 127.198 219.665C127.193 219.679 127.193 219.697 127.188 219.716C127.202 219.656 127.207 219.591 127.207 219.531C127.212 218.856 127.244 218.435 127.318 218.268C127.295 218.314 127.253 218.365 127.188 218.416C127.299 218.328 127.383 218.213 127.434 218.083C127.42 218.129 127.401 218.162 127.378 218.18C127.424 218.134 127.535 218.069 127.707 217.995L127.577 218.041C130.144 217.38 131.74 216.82 132.365 216.362L132.318 216.395C133.253 215.803 133.817 215.049 134.016 214.128L133.965 214.281C134.691 212.592 133.641 209.909 130.81 206.232C130.533 205.871 130.015 205.802 129.654 206.079C129.293 206.357 129.224 206.875 129.501 207.236Z" fill="#DE9798"/>
</svg>
