<svg width="165" height="156" viewBox="0 0 165 156" fill="none" xmlns="http://www.w3.org/2000/svg">
<g filter="url(#filter0_d_24_1384)">
<rect x="8" y="17.8137" width="127.997" height="127.996" rx="63.998" transform="rotate(-8 8 17.8137)" fill="url(#paint0_radial_24_1384)"/>
</g>
<g filter="url(#filter1_bii_24_1384)">
<rect x="15" y="28.8149" width="128.006" height="128.005" rx="60" transform="rotate(-8 15 28.8149)" fill="white" fill-opacity="0.1"/>
</g>
<path d="M29.9592 70.416C29.9592 69.328 30.2099 68.352 30.7112 67.488C31.2232 66.624 31.9112 65.952 32.7752 65.472C33.6499 64.9813 34.6045 64.736 35.6392 64.736C36.8232 64.736 37.8739 65.0293 38.7912 65.616C39.7192 66.192 40.3912 67.0133 40.8072 68.08H38.6152C38.3272 67.4933 37.9272 67.056 37.4152 66.768C36.9032 66.48 36.3112 66.336 35.6392 66.336C34.9032 66.336 34.2472 66.5013 33.6712 66.832C33.0952 67.1626 32.6419 67.6373 32.3112 68.256C31.9912 68.8746 31.8312 69.5946 31.8312 70.416C31.8312 71.2373 31.9912 71.9573 32.3112 72.576C32.6419 73.1946 33.0952 73.6746 33.6712 74.016C34.2472 74.3466 34.9032 74.512 35.6392 74.512C36.3112 74.512 36.9032 74.368 37.4152 74.08C37.9272 73.792 38.3272 73.3546 38.6152 72.768H40.8072C40.3912 73.8346 39.7192 74.656 38.7912 75.232C37.8739 75.808 36.8232 76.096 35.6392 76.096C34.5939 76.096 33.6392 75.856 32.7752 75.376C31.9112 74.8853 31.2232 74.208 30.7112 73.344C30.2099 72.48 29.9592 71.504 29.9592 70.416ZM47.7662 76.144C46.9342 76.144 46.1822 75.9573 45.5102 75.584C44.8382 75.2 44.3102 74.6666 43.9262 73.984C43.5422 73.2906 43.3502 72.4906 43.3502 71.584C43.3502 70.688 43.5475 69.8933 43.9422 69.2C44.3369 68.5066 44.8755 67.9733 45.5582 67.6C46.2409 67.2266 47.0035 67.04 47.8462 67.04C48.6889 67.04 49.4515 67.2266 50.1342 67.6C50.8169 67.9733 51.3555 68.5066 51.7502 69.2C52.1449 69.8933 52.3422 70.688 52.3422 71.584C52.3422 72.48 52.1395 73.2746 51.7342 73.968C51.3289 74.6613 50.7742 75.2 50.0702 75.584C49.3769 75.9573 48.6089 76.144 47.7662 76.144ZM47.7662 74.56C48.2355 74.56 48.6729 74.448 49.0782 74.224C49.4942 74 49.8302 73.664 50.0862 73.216C50.3422 72.768 50.4702 72.224 50.4702 71.584C50.4702 70.944 50.3475 70.4053 50.1022 69.968C49.8569 69.52 49.5315 69.184 49.1262 68.96C48.7209 68.736 48.2835 68.624 47.8142 68.624C47.3449 68.624 46.9075 68.736 46.5022 68.96C46.1075 69.184 45.7929 69.52 45.5582 69.968C45.3235 70.4053 45.2062 70.944 45.2062 71.584C45.2062 72.5333 45.4462 73.2693 45.9262 73.792C46.4169 74.304 47.0302 74.56 47.7662 74.56ZM59.5933 67.04C60.2866 67.04 60.9053 67.184 61.4493 67.472C62.004 67.76 62.436 68.1866 62.7453 68.752C63.0546 69.3173 63.2093 70 63.2093 70.8V76H61.4013V71.072C61.4013 70.2826 61.204 69.68 60.8093 69.264C60.4146 68.8373 59.876 68.624 59.1933 68.624C58.5106 68.624 57.9666 68.8373 57.5613 69.264C57.1666 69.68 56.9693 70.2826 56.9693 71.072V76H55.1453V67.184H56.9693V68.192C57.268 67.8293 57.6466 67.5466 58.1053 67.344C58.5746 67.1413 59.0706 67.04 59.5933 67.04ZM68.6639 68.672V73.552C68.6639 73.8826 68.7386 74.1226 68.8879 74.272C69.0479 74.4106 69.3146 74.48 69.6879 74.48H70.8079V76H69.3679C68.5466 76 67.9173 75.808 67.4799 75.424C67.0426 75.04 66.8239 74.416 66.8239 73.552V68.672H65.7839V67.184H66.8239V64.992H68.6639V67.184H70.8079V68.672H68.6639ZM75.3131 68.464C75.5797 68.016 75.9317 67.6693 76.3691 67.424C76.8171 67.168 77.3451 67.04 77.9531 67.04V68.928H77.4891C76.7744 68.928 76.2304 69.1093 75.8571 69.472C75.4944 69.8346 75.3131 70.464 75.3131 71.36V76H73.4891V67.184H75.3131V68.464ZM80.0217 71.552C80.0217 70.6666 80.203 69.8826 80.5657 69.2C80.939 68.5173 81.4404 67.9893 82.0697 67.616C82.7097 67.232 83.4137 67.04 84.1817 67.04C84.875 67.04 85.4777 67.1786 85.9897 67.456C86.5124 67.7226 86.9284 68.0586 87.2377 68.464V67.184H89.0777V76H87.2377V74.688C86.9284 75.104 86.507 75.4506 85.9737 75.728C85.4404 76.0053 84.8324 76.144 84.1497 76.144C83.3924 76.144 82.699 75.952 82.0697 75.568C81.4404 75.1733 80.939 74.6293 80.5657 73.936C80.203 73.232 80.0217 72.4373 80.0217 71.552ZM87.2377 71.584C87.2377 70.976 87.1097 70.448 86.8537 70C86.6084 69.552 86.283 69.2106 85.8777 68.976C85.4724 68.7413 85.035 68.624 84.5657 68.624C84.0964 68.624 83.659 68.7413 83.2537 68.976C82.8484 69.2 82.5177 69.536 82.2617 69.984C82.0164 70.4213 81.8937 70.944 81.8937 71.552C81.8937 72.16 82.0164 72.6933 82.2617 73.152C82.5177 73.6106 82.8484 73.9626 83.2537 74.208C83.6697 74.4426 84.107 74.56 84.5657 74.56C85.035 74.56 85.4724 74.4426 85.8777 74.208C86.283 73.9733 86.6084 73.632 86.8537 73.184C87.1097 72.7253 87.2377 72.192 87.2377 71.584ZM91.8654 71.584C91.8654 70.6773 92.0468 69.8826 92.4094 69.2C92.7828 68.5066 93.2948 67.9733 93.9454 67.6C94.5961 67.2266 95.3428 67.04 96.1854 67.04C97.2521 67.04 98.1321 67.296 98.8254 67.808C99.5294 68.3093 100.004 69.0293 100.249 69.968H98.2814C98.1214 69.5306 97.8654 69.1893 97.5134 68.944C97.1614 68.6986 96.7188 68.576 96.1854 68.576C95.4388 68.576 94.8414 68.8426 94.3934 69.376C93.9561 69.8986 93.7374 70.6346 93.7374 71.584C93.7374 72.5333 93.9561 73.2746 94.3934 73.808C94.8414 74.3413 95.4388 74.608 96.1854 74.608C97.2414 74.608 97.9401 74.144 98.2814 73.216H100.249C99.9934 74.112 99.5134 74.8266 98.8094 75.36C98.1054 75.8826 97.2308 76.144 96.1854 76.144C95.3428 76.144 94.5961 75.9573 93.9454 75.584C93.2948 75.2 92.7828 74.6666 92.4094 73.984C92.0468 73.2906 91.8654 72.4906 91.8654 71.584ZM105.195 68.672V73.552C105.195 73.8826 105.27 74.1226 105.419 74.272C105.579 74.4106 105.846 74.48 106.219 74.48H107.339V76H105.899C105.078 76 104.449 75.808 104.011 75.424C103.574 75.04 103.355 74.416 103.355 73.552V68.672H102.315V67.184H103.355V64.992H105.195V67.184H107.339V68.672H105.195ZM110.948 66.016C110.618 66.016 110.34 65.904 110.116 65.68C109.892 65.456 109.78 65.1786 109.78 64.848C109.78 64.5173 109.892 64.24 110.116 64.016C110.34 63.792 110.618 63.68 110.948 63.68C111.268 63.68 111.54 63.792 111.764 64.016C111.988 64.24 112.1 64.5173 112.1 64.848C112.1 65.1786 111.988 65.456 111.764 65.68C111.54 65.904 111.268 66.016 110.948 66.016ZM111.844 67.184V76H110.02V67.184H111.844ZM119.063 76.144C118.231 76.144 117.479 75.9573 116.807 75.584C116.135 75.2 115.607 74.6666 115.223 73.984C114.839 73.2906 114.647 72.4906 114.647 71.584C114.647 70.688 114.844 69.8933 115.239 69.2C115.634 68.5066 116.172 67.9733 116.855 67.6C117.538 67.2266 118.3 67.04 119.143 67.04C119.986 67.04 120.748 67.2266 121.431 67.6C122.114 67.9733 122.652 68.5066 123.047 69.2C123.442 69.8933 123.639 70.688 123.639 71.584C123.639 72.48 123.436 73.2746 123.031 73.968C122.626 74.6613 122.071 75.2 121.367 75.584C120.674 75.9573 119.906 76.144 119.063 76.144ZM119.063 74.56C119.532 74.56 119.97 74.448 120.375 74.224C120.791 74 121.127 73.664 121.383 73.216C121.639 72.768 121.767 72.224 121.767 71.584C121.767 70.944 121.644 70.4053 121.399 69.968C121.154 69.52 120.828 69.184 120.423 68.96C120.018 68.736 119.58 68.624 119.111 68.624C118.642 68.624 118.204 68.736 117.799 68.96C117.404 69.184 117.09 69.52 116.855 69.968C116.62 70.4053 116.503 70.944 116.503 71.584C116.503 72.5333 116.743 73.2693 117.223 73.792C117.714 74.304 118.327 74.56 119.063 74.56ZM130.89 67.04C131.584 67.04 132.202 67.184 132.746 67.472C133.301 67.76 133.733 68.1866 134.042 68.752C134.352 69.3173 134.506 70 134.506 70.8V76H132.698V71.072C132.698 70.2826 132.501 69.68 132.106 69.264C131.712 68.8373 131.173 68.624 130.49 68.624C129.808 68.624 129.264 68.8373 128.858 69.264C128.464 69.68 128.266 70.2826 128.266 71.072V76H126.442V67.184H128.266V68.192C128.565 67.8293 128.944 67.5466 129.402 67.344C129.872 67.1413 130.368 67.04 130.89 67.04ZM64.8901 92.192C64.8901 92.7573 64.7567 93.2906 64.4901 93.792C64.2234 94.2933 63.7967 94.704 63.2101 95.024C62.6234 95.3333 61.8714 95.488 60.9541 95.488H58.9381V100H57.1141V88.88H60.9541C61.8074 88.88 62.5274 89.0293 63.1141 89.328C63.7114 89.616 64.1541 90.0106 64.4421 90.512C64.7407 91.0133 64.8901 91.5733 64.8901 92.192ZM60.9541 94C61.6474 94 62.1647 93.8453 62.5061 93.536C62.8474 93.216 63.0181 92.768 63.0181 92.192C63.0181 90.976 62.3301 90.368 60.9541 90.368H58.9381V94H60.9541ZM67.0217 95.552C67.0217 94.6666 67.203 93.8826 67.5657 93.2C67.939 92.5173 68.4404 91.9893 69.0697 91.616C69.7097 91.232 70.4137 91.04 71.1817 91.04C71.875 91.04 72.4777 91.1786 72.9897 91.456C73.5124 91.7226 73.9284 92.0586 74.2377 92.464V91.184H76.0777V100H74.2377V98.688C73.9284 99.104 73.507 99.4506 72.9737 99.728C72.4404 100.005 71.8324 100.144 71.1497 100.144C70.3924 100.144 69.699 99.952 69.0697 99.568C68.4404 99.1733 67.939 98.6293 67.5657 97.936C67.203 97.232 67.0217 96.4373 67.0217 95.552ZM74.2377 95.584C74.2377 94.976 74.1097 94.448 73.8537 94C73.6084 93.552 73.283 93.2106 72.8777 92.976C72.4724 92.7413 72.035 92.624 71.5657 92.624C71.0964 92.624 70.659 92.7413 70.2537 92.976C69.8484 93.2 69.5177 93.536 69.2617 93.984C69.0164 94.4213 68.8937 94.944 68.8937 95.552C68.8937 96.16 69.0164 96.6933 69.2617 97.152C69.5177 97.6106 69.8484 97.9626 70.2537 98.208C70.6697 98.4426 71.107 98.56 71.5657 98.56C72.035 98.56 72.4724 98.4426 72.8777 98.208C73.283 97.9733 73.6084 97.632 73.8537 97.184C74.1097 96.7253 74.2377 96.192 74.2377 95.584ZM87.4574 91.184V100H85.6334V98.96C85.3454 99.3226 84.9668 99.6106 84.4974 99.824C84.0388 100.027 83.5481 100.128 83.0254 100.128C82.3321 100.128 81.7081 99.984 81.1534 99.696C80.6094 99.408 80.1774 98.9813 79.8574 98.416C79.5481 97.8506 79.3934 97.168 79.3934 96.368V91.184H81.2014V96.096C81.2014 96.8853 81.3988 97.4933 81.7934 97.92C82.1881 98.336 82.7268 98.544 83.4094 98.544C84.0921 98.544 84.6308 98.336 85.0254 97.92C85.4308 97.4933 85.6334 96.8853 85.6334 96.096V91.184H87.4574ZM94.0641 100.144C93.3707 100.144 92.7467 100.021 92.1921 99.776C91.6481 99.52 91.2161 99.1786 90.8961 98.752C90.5761 98.3146 90.4054 97.8293 90.3841 97.296H92.2721C92.3041 97.6693 92.4801 97.984 92.8001 98.24C93.1307 98.4853 93.5414 98.608 94.0321 98.608C94.5441 98.608 94.9387 98.512 95.2161 98.32C95.5041 98.1173 95.6481 97.8613 95.6481 97.552C95.6481 97.2213 95.4881 96.976 95.1681 96.816C94.8587 96.656 94.3627 96.48 93.6801 96.288C93.0187 96.1066 92.4801 95.9306 92.0641 95.76C91.6481 95.5893 91.2854 95.328 90.9761 94.976C90.6774 94.624 90.5281 94.16 90.5281 93.584C90.5281 93.1146 90.6667 92.688 90.9441 92.304C91.2214 91.9093 91.6161 91.6 92.1281 91.376C92.6507 91.152 93.2481 91.04 93.9201 91.04C94.9227 91.04 95.7281 91.296 96.3361 91.808C96.9547 92.3093 97.2854 92.9973 97.3281 93.872H95.5041C95.4721 93.4773 95.3121 93.1626 95.0241 92.928C94.7361 92.6933 94.3467 92.576 93.8561 92.576C93.3761 92.576 93.0081 92.6666 92.7521 92.848C92.4961 93.0293 92.3681 93.2693 92.3681 93.568C92.3681 93.8026 92.4534 94 92.6241 94.16C92.7947 94.32 93.0027 94.448 93.2481 94.544C93.4934 94.6293 93.8561 94.7413 94.3361 94.88C94.9761 95.0506 95.4987 95.2266 95.9041 95.408C96.3201 95.5786 96.6774 95.8346 96.9761 96.176C97.2747 96.5173 97.4294 96.9706 97.4401 97.536C97.4401 98.0373 97.3014 98.4853 97.0241 98.88C96.7467 99.2746 96.3521 99.584 95.8401 99.808C95.3387 100.032 94.7467 100.144 94.0641 100.144ZM108.491 95.376C108.491 95.7066 108.47 96.0053 108.427 96.272H101.691C101.744 96.976 102.006 97.5413 102.475 97.968C102.944 98.3946 103.52 98.608 104.203 98.608C105.184 98.608 105.878 98.1973 106.283 97.376H108.251C107.984 98.1866 107.499 98.8533 106.795 99.376C106.102 99.888 105.238 100.144 104.203 100.144C103.36 100.144 102.603 99.9573 101.931 99.584C101.27 99.2 100.747 98.6666 100.363 97.984C99.9896 97.2906 99.8029 96.4906 99.8029 95.584C99.8029 94.6773 99.9843 93.8826 100.347 93.2C100.72 92.5066 101.238 91.9733 101.899 91.6C102.571 91.2266 103.339 91.04 104.203 91.04C105.035 91.04 105.776 91.2213 106.427 91.584C107.078 91.9466 107.584 92.4586 107.947 93.12C108.31 93.7706 108.491 94.5226 108.491 95.376ZM106.587 94.8C106.576 94.128 106.336 93.5893 105.867 93.184C105.398 92.7786 104.816 92.576 104.123 92.576C103.494 92.576 102.955 92.7786 102.507 93.184C102.059 93.5786 101.792 94.1173 101.707 94.8H106.587Z" fill="white"/>
<defs>
<filter id="filter0_d_24_1384" x="12.2761" y="8.27606" width="136.012" height="136.012" filterUnits="userSpaceOnUse" color-interpolation-filters="sRGB">
<feFlood flood-opacity="0" result="BackgroundImageFix"/>
<feColorMatrix in="SourceAlpha" type="matrix" values="0 0 0 0 0 0 0 0 0 0 0 0 0 0 0 0 0 0 127 0" result="hardAlpha"/>
<feOffset dy="4"/>
<feGaussianBlur stdDeviation="2"/>
<feComposite in2="hardAlpha" operator="out"/>
<feColorMatrix type="matrix" values="0 0 0 0 0 0 0 0 0 0 0 0 0 0 0 0 0 0 0.25 0"/>
<feBlend mode="normal" in2="BackgroundImageFix" result="effect1_dropShadow_24_1384"/>
<feBlend mode="normal" in="SourceGraphic" in2="effect1_dropShadow_24_1384" result="shape"/>
</filter>
<filter id="filter1_bii_24_1384" x="2.75903" y="-1.24103" width="169.057" height="169.056" filterUnits="userSpaceOnUse" color-interpolation-filters="sRGB">
<feFlood flood-opacity="0" result="BackgroundImageFix"/>
<feGaussianBlur in="BackgroundImageFix" stdDeviation="10"/>
<feComposite in2="SourceAlpha" operator="in" result="effect1_backgroundBlur_24_1384"/>
<feBlend mode="normal" in="SourceGraphic" in2="effect1_backgroundBlur_24_1384" result="shape"/>
<feColorMatrix in="SourceAlpha" type="matrix" values="0 0 0 0 0 0 0 0 0 0 0 0 0 0 0 0 0 0 127 0" result="hardAlpha"/>
<feOffset dy="10"/>
<feGaussianBlur stdDeviation="5"/>
<feComposite in2="hardAlpha" operator="arithmetic" k2="-1" k3="1"/>
<feColorMatrix type="matrix" values="0 0 0 0 1 0 0 0 0 1 0 0 0 0 1 0 0 0 0.15 0"/>
<feBlend mode="normal" in2="shape" result="effect2_innerShadow_24_1384"/>
<feColorMatrix in="SourceAlpha" type="matrix" values="0 0 0 0 0 0 0 0 0 0 0 0 0 0 0 0 0 0 127 0" result="hardAlpha"/>
<feOffset dy="-10"/>
<feGaussianBlur stdDeviation="5"/>
<feComposite in2="hardAlpha" operator="arithmetic" k2="-1" k3="1"/>
<feColorMatrix type="matrix" values="0 0 0 0 0.996078 0 0 0 0 0.317647 0 0 0 0 0.588235 0 0 0 0.15 0"/>
<feBlend mode="normal" in2="effect2_innerShadow_24_1384" result="effect3_innerShadow_24_1384"/>
</filter>
<radialGradient id="paint0_radial_24_1384" cx="0" cy="0" r="1" gradientUnits="userSpaceOnUse" gradientTransform="translate(2.95887 -15.8268) rotate(52.386) scale(179.498 179.499)">
<stop stop-color="#E5F0F3"/>
<stop offset="1" stop-color="#66C0DC"/>
</radialGradient>
</defs>
</svg>
