<svg width="81" height="102" viewBox="0 0 81 102" fill="none" xmlns="http://www.w3.org/2000/svg">
<path fill-rule="evenodd" clip-rule="evenodd" d="M52.71 63.27C67.2498 58.2704 76.299 43.7684 74.3997 28.5107C72.5003 13.2531 60.1718 1.41229 44.85 0.13C43.99 0.05 43.12 0 42.25 0H0V59.42V65.06V101.06H80.24L52.71 63.27ZM69.14 32.51C69.14 44.709 60.9309 55.3809 49.14 58.51C48.4267 58.6967 47.7067 58.8567 46.98 58.99V6.04C59.7955 8.32997 69.13 19.4715 69.14 32.49V32.51ZM5.65001 59.39H41.35V5.6H5.65001V59.39ZM5.65001 95.36V65.03H41.35V95.4L5.65001 95.36ZM47 65.03V95.36L69.14 95.41L47 65.03Z" fill="black"/>
<path d="M69.1402 95.4L46.9902 65.02V95.4H69.1402Z" fill="#FFDE17"/>
<path d="M41.3499 5.59998H5.6499V59.38H41.3499V5.59998Z" fill="#FFDE17"/>
<path d="M41.3499 65.02H5.6499V95.4H41.3499V65.02Z" fill="#FFDE17"/>
<path d="M47 6.03992V58.9299C59.8188 56.65 69.1566 45.5048 69.1566 32.4849C69.1566 19.4649 59.8188 8.3198 47 6.03992Z" fill="#FFDE17"/>
</svg>
