<svg width="110" height="162" viewBox="0 0 110 162" fill="none" xmlns="http://www.w3.org/2000/svg">
<g clip-path="url(#clip0_7769_75093)">
<path fill-rule="evenodd" clip-rule="evenodd" d="M53.0699 64.14C67.6097 59.1404 76.6589 44.6384 74.7596 29.3807C72.8602 14.1231 60.5317 2.28229 45.2099 0.999995C44.3499 0.919995 43.4799 0.869995 42.6099 0.869995H0.359863V60.29V65.93V101.93H80.5999L53.0699 64.14ZM69.4999 33.38C69.4999 45.579 61.2908 56.2509 49.4999 59.38C48.7866 59.5667 48.0666 59.7267 47.3399 59.86V6.91C60.1554 9.19997 69.4899 20.3415 69.4999 33.36V33.38ZM6.00987 60.26H41.7099V6.47H6.00987V60.26ZM6.00987 96.23V65.9H41.7099V96.27L6.00987 96.23ZM47.3599 65.9V96.23L69.4999 96.28L47.3599 65.9Z" fill="black"/>
<path d="M69.5001 96.27L47.3501 65.89V96.27H69.5001Z" fill="#FFDE17"/>
<path d="M41.7098 6.46997H6.00977V60.25H41.7098V6.46997Z" fill="#FFDE17"/>
<path d="M41.7098 65.89H6.00977V96.27H41.7098V65.89Z" fill="#FFDE17"/>
<path d="M47.3599 6.90991V59.7999C60.1787 57.52 69.5165 46.3748 69.5165 33.3549C69.5165 20.3349 60.1787 9.18979 47.3599 6.90991Z" fill="#FFDE17"/>
<path d="M78.2291 113.576C78.228 113.43 78.2851 113.288 78.389 113.18C78.5074 113.066 78.6724 113.005 78.841 113.015H82.8319C82.9858 113.016 83.1338 113.07 83.2491 113.167C83.3724 113.271 83.4453 113.419 83.4508 113.576V127.52H90.8696C91.0237 127.519 91.1728 127.573 91.2866 127.672C91.4055 127.783 91.4687 127.937 91.4606 128.095V131.47C91.4617 131.615 91.4073 131.756 91.3075 131.866C91.1997 131.989 91.0378 132.058 90.8696 132.051H78.7853C78.6226 132.074 78.4581 132.022 78.3417 131.911C78.2254 131.801 78.1708 131.645 78.1943 131.49L78.2291 113.576Z" fill="black"/>
<path d="M73.6615 127.658H64.6228V124.356H71.3741C71.5366 124.365 71.6949 124.304 71.8052 124.191C71.8972 124.094 71.9514 123.971 71.958 123.841V121.073C71.974 120.927 71.9113 120.783 71.7911 120.69C71.6671 120.607 71.5183 120.566 71.367 120.571H64.6228V117.394H73.3625C73.5448 117.406 73.7216 117.331 73.8354 117.196C73.94 117.08 73.999 116.932 74.0023 116.78V113.616C74.0115 113.451 73.9517 113.289 73.8354 113.167C73.718 113.05 73.5525 112.99 73.3834 113.001H59.9712C59.808 112.991 59.648 113.049 59.5333 113.16C59.4234 113.278 59.3659 113.432 59.3732 113.589V131.476C59.3587 131.632 59.4201 131.785 59.5401 131.892C59.6605 131.988 59.8149 132.035 59.9712 132.025H73.6546C73.7379 132.023 73.8204 132.007 73.8979 131.978C73.9693 131.953 74.0303 131.907 74.0716 131.846C74.1324 131.767 74.1773 131.677 74.2038 131.582C74.2141 131.541 74.2141 131.498 74.2038 131.457V128.233C74.2291 128.073 74.1743 127.912 74.0554 127.796C73.9365 127.681 73.7676 127.625 73.5989 127.645" fill="black"/>
<path fill-rule="evenodd" clip-rule="evenodd" d="M39.3758 113.199C39.2681 113.316 39.2131 113.468 39.2228 113.622L39.2437 131.509C39.2292 131.664 39.2879 131.816 39.4035 131.925C39.5238 132.021 39.6783 132.068 39.8346 132.057H49.5688C50.3473 132.059 51.1177 131.904 51.8285 131.602C52.5286 131.3 53.1629 130.877 53.6986 130.353C54.2389 129.822 54.6725 129.202 54.9781 128.524C55.2923 127.824 55.4532 127.071 55.4508 126.311C55.4565 125.457 55.2617 124.613 54.8808 123.841C54.5172 123.077 53.9943 122.392 53.3442 121.826C53.7332 121.387 54.0368 120.886 54.2411 120.346C54.4556 119.772 54.5637 119.166 54.5608 118.556C54.5633 117.814 54.4072 117.079 54.102 116.396C53.8043 115.743 53.3798 115.15 52.8505 114.646C52.3225 114.142 51.6968 113.741 51.0079 113.464C50.3002 113.177 49.5384 113.031 48.7691 113.034H39.8137C39.649 113.024 39.4883 113.085 39.3758 113.199ZM49.4226 118.675C49.4257 118.428 49.3735 118.182 49.2698 117.955C49.1718 117.737 49.0329 117.538 48.8594 117.367C48.6694 117.195 48.4479 117.056 48.2059 116.958C47.9415 116.864 47.661 116.817 47.3785 116.819H44.4374V120.531H47.2951C47.5822 120.534 47.8673 120.487 48.1363 120.393C48.3838 120.316 48.6095 120.187 48.7969 120.016C48.9776 119.846 49.1218 119.644 49.2211 119.422C49.3319 119.187 49.3865 118.932 49.381 118.675H49.4226ZM50.0902 126.093C50.0867 125.273 49.6047 124.522 48.8387 124.144C48.5848 124.014 48.2997 123.948 48.0113 123.953H44.4374V128.233H48.0113C48.2966 128.237 48.5785 128.173 48.8317 128.048C49.0946 127.935 49.331 127.774 49.527 127.573C49.7157 127.381 49.8643 127.156 49.9651 126.912C50.0673 126.659 50.119 126.39 50.1179 126.119L50.0902 126.093Z" fill="black"/>
<path d="M34.6897 127.659H25.6511V124.356H32.4091C32.5716 124.365 32.7299 124.305 32.8402 124.191C32.9309 124.094 32.9827 123.97 32.9864 123.841V121.073C33.0023 120.927 32.9395 120.783 32.8195 120.69C32.6954 120.608 32.5465 120.566 32.3953 120.571H25.6511V117.394H34.3907C34.573 117.406 34.7498 117.332 34.8636 117.196C34.9658 117.079 35.0222 116.932 35.0235 116.78V113.616C35.0349 113.452 34.9772 113.291 34.8636 113.167C34.7441 113.049 34.5759 112.989 34.4048 113.002H20.9926C20.8312 112.991 20.6731 113.049 20.5615 113.16C20.4489 113.277 20.3912 113.432 20.4016 113.589V131.477C20.3872 131.631 20.4458 131.783 20.5615 131.893C20.6831 131.986 20.8366 132.033 20.9926 132.025H34.6758C34.7595 132.025 34.8423 132.01 34.9191 131.979C34.9913 131.951 35.0541 131.906 35.1001 131.846C35.1642 131.769 35.2093 131.678 35.2322 131.582C35.2542 131.544 35.2661 131.501 35.2668 131.457V128.233C35.2923 128.074 35.2373 127.912 35.1184 127.796C34.9995 127.681 34.8306 127.625 34.662 127.645" fill="black"/>
<path fill-rule="evenodd" clip-rule="evenodd" d="M0.148154 113.226C0.0455919 113.345 -0.00649724 113.496 0.00214464 113.649V131.523C-0.0122504 131.677 0.046347 131.83 0.16206 131.939C0.283016 132.033 0.437037 132.08 0.593141 132.071H4.59801C5.01519 132.071 5.22377 131.893 5.22377 131.523V125.75H7.38613L10.6679 131.602C10.7161 131.733 10.7972 131.851 10.9043 131.945C11.0229 132.034 11.1711 132.078 11.3215 132.071H15.9452C16.0806 132.078 16.2148 132.043 16.3276 131.972C16.4275 131.895 16.4819 131.777 16.4736 131.655C16.4645 131.503 16.4115 131.357 16.3206 131.232C16.3053 131.206 16.2903 131.181 16.2756 131.156C16.1975 131.024 16.13 130.91 16.0773 130.809L12.6008 124.607C13.0847 124.34 13.533 124.018 13.9358 123.649C14.3481 123.283 14.706 122.865 14.9995 122.407C15.2968 121.947 15.5304 121.452 15.6948 120.934C15.8634 120.397 15.9478 119.838 15.9452 119.277C15.9512 118.445 15.7736 117.622 15.4237 116.859C15.0883 116.117 14.6042 115.444 13.9983 114.877C13.3972 114.316 12.6894 113.868 11.9125 113.556C11.0882 113.224 10.2008 113.055 9.30513 113.061H0.593141C0.426215 113.05 0.262782 113.11 0.148154 113.226ZM10.4037 118.537C10.4985 118.782 10.5479 119.042 10.5497 119.303L10.5636 119.336C10.5626 119.61 10.5157 119.882 10.4245 120.142C10.3399 120.398 10.2081 120.637 10.0352 120.849C9.85945 121.058 9.64502 121.235 9.40247 121.37C9.14458 121.518 8.85417 121.606 8.55422 121.628C8.41664 121.653 8.27705 121.666 8.13704 121.668C7.99344 121.675 7.84955 121.675 7.70596 121.668H5.22377V116.971H7.108H7.80329L8.49859 117.011C8.79384 117.056 9.07718 117.155 9.33294 117.302C9.58174 117.437 9.80117 117.617 9.97955 117.83C10.1579 118.044 10.301 118.282 10.4037 118.537Z" fill="black"/>
<path fill-rule="evenodd" clip-rule="evenodd" d="M54.5903 141.331C54.4846 141.46 54.4296 141.625 54.4384 141.793V161.012C54.4252 161.178 54.4824 161.342 54.5969 161.46C54.718 161.56 54.8699 161.61 55.0241 161.602H58.9872C59.4077 161.602 59.6059 161.41 59.6059 161.012V154.798H61.7658L65.0068 161.097C65.0574 161.237 65.1367 161.363 65.2424 161.467C65.3591 161.562 65.5044 161.61 65.6541 161.602H70.2162C70.3505 161.611 70.4848 161.571 70.5948 161.488C70.6895 161.407 70.7424 161.282 70.7313 161.154C70.7247 160.992 70.6763 160.834 70.5882 160.7C70.5728 160.672 70.5574 160.644 70.542 160.618C70.4649 160.476 70.3989 160.353 70.3461 160.245L66.9069 153.576C67.3869 153.287 67.8317 152.941 68.2346 152.546C68.6375 152.149 68.9876 151.7 69.2804 151.211C69.5754 150.716 69.8066 150.184 69.9673 149.627C70.1347 149.049 70.2184 148.448 70.2162 147.844C70.2228 146.95 70.0466 146.065 69.7009 145.245C69.3773 144.45 68.9105 143.726 68.3248 143.114C67.7172 142.509 67.0038 142.027 66.2244 141.694C65.4119 141.336 64.5356 141.154 63.6527 141.161H55.0241C54.8611 141.148 54.7026 141.211 54.5903 141.331ZM64.7536 147.084C64.8461 147.348 64.8945 147.627 64.8967 147.908L64.9385 147.979C64.9429 148.563 64.7624 149.132 64.4233 149.599C64.0622 150.076 63.5316 150.383 62.9504 150.451H62.5364C62.3955 150.459 62.2524 150.459 62.1115 150.451H59.6543V145.401H61.4906H62.1798L62.8667 145.444C63.1639 145.487 63.4458 145.594 63.7012 145.756C63.9434 145.902 64.1591 146.095 64.3331 146.324C64.5114 146.552 64.6545 146.809 64.7536 147.084Z" fill="black"/>
<path d="M7.34891 161.332C7.25952 161.176 7.17695 161.013 7.1012 160.849C7.01886 160.689 6.94752 160.523 6.88807 160.352C5.73678 157.232 4.58988 154.138 3.44783 151.069C2.30556 148.001 1.15889 144.904 0.00759605 141.779C0.0146417 141.739 0.0146417 141.699 0.00759605 141.659C-0.00253201 141.621 -0.00253201 141.582 0.00759605 141.545C0.00759605 141.289 0.172741 141.161 0.503004 141.161H4.79641C5.11611 141.15 5.40146 141.368 5.48446 141.687L9.56452 154.237L13.3282 141.723C13.4288 141.392 13.7358 141.174 14.0713 141.197H18.4059C18.5587 141.184 18.7113 141.224 18.8394 141.311C18.9246 141.39 18.9722 141.504 18.9702 141.623C18.9757 141.675 18.9757 141.727 18.9702 141.779V141.815L16.5963 148.846L18.3852 154.258L22.6857 141.723C22.7863 141.392 23.0932 141.174 23.4287 141.197H27.6257C27.7787 141.18 27.9324 141.221 28.0592 141.311C28.1444 141.39 28.192 141.504 28.19 141.623C28.1991 141.675 28.1991 141.728 28.19 141.779V141.815C27.5845 143.434 26.9676 145.046 26.339 146.652L24.44 151.474C23.8002 153.087 23.1742 154.692 22.541 156.304C21.908 157.916 21.3095 159.528 20.7109 161.134C20.6576 161.263 20.575 161.377 20.47 161.467C20.3474 161.591 20.1807 161.658 20.009 161.652H16.7339C16.5795 161.661 16.4261 161.621 16.2935 161.538C16.187 161.463 16.107 161.353 16.0665 161.226L13.9817 155.459C13.6789 156.297 13.3762 157.114 13.0873 157.923C12.7982 158.733 12.4955 159.55 12.2066 160.381L12.0551 160.785C11.9977 160.924 11.9286 161.057 11.8489 161.183C11.7736 161.302 11.6806 161.407 11.5736 161.496C11.4719 161.573 11.3491 161.615 11.2227 161.617H7.94756C7.72122 161.649 7.49841 161.536 7.38348 161.332" fill="black"/>
<path fill-rule="evenodd" clip-rule="evenodd" d="M30.467 148.59C30.225 149.504 30.1048 150.448 30.1092 151.395L30.1024 151.353C30.0951 152.312 30.2155 153.268 30.4601 154.194C30.6959 155.072 31.0405 155.914 31.4853 156.701C31.9296 157.477 32.466 158.193 33.0816 158.832C34.3339 160.12 35.8857 161.054 37.5883 161.545C38.4741 161.794 39.388 161.92 40.3062 161.921C42.118 161.929 43.899 161.439 45.4664 160.501C46.2168 160.04 46.9099 159.487 47.5306 158.853C48.1504 158.218 48.6871 157.501 49.1268 156.722C49.5716 155.936 49.9162 155.093 50.152 154.215C50.6377 152.379 50.6377 150.441 50.152 148.604C49.6834 146.841 48.7803 145.234 47.5306 143.938C46.9134 143.302 46.2196 142.751 45.4664 142.297C44.6967 141.837 43.8737 141.479 43.017 141.232C40.3634 140.48 37.5284 140.864 35.1525 142.297C34.3962 142.746 33.7018 143.298 33.0884 143.938C32.4756 144.58 31.9397 145.295 31.4921 146.069C31.0474 146.86 30.7028 147.708 30.467 148.59ZM35.6825 153.526C35.4275 152.847 35.3014 152.124 35.3108 151.395H35.2765C35.2688 150.667 35.3947 149.944 35.6479 149.265C35.88 148.618 36.2358 148.027 36.6937 147.525C37.6295 146.491 38.9422 145.908 40.313 145.919C41.0233 145.909 41.7272 146.057 42.3771 146.353C42.9813 146.63 43.5262 147.028 43.9802 147.525C44.436 148.028 44.7913 148.62 45.0261 149.265C45.5217 150.639 45.5217 152.152 45.0261 153.526C44.7898 154.169 44.4347 154.757 43.9802 155.259C43.0361 156.286 41.7186 156.858 40.3473 156.836C38.9803 156.857 37.6674 156.285 36.7283 155.259C36.2717 154.759 35.9161 154.17 35.6825 153.526Z" fill="black"/>
<path d="M74.6546 141.772C74.6524 141.614 74.7097 141.462 74.811 141.346C74.9233 141.222 75.0818 141.157 75.2447 141.168H79.188C79.34 141.178 79.4875 141.235 79.6086 141.331C79.7429 141.435 79.8222 141.598 79.82 141.772V149.279C80.7975 147.993 81.7399 146.729 82.6822 145.479C83.6268 144.229 84.5625 142.958 85.5247 141.679C85.6194 141.521 85.7493 141.389 85.9034 141.296C86.0421 141.204 86.205 141.154 86.3702 141.154H91.443C91.6478 141.154 91.7578 141.225 91.7578 141.36C91.7446 141.485 91.6918 141.602 91.6081 141.693L85.3177 150.216L92.2753 161.019C92.3545 161.13 92.4074 161.259 92.425 161.396C92.425 161.531 92.3303 161.594 92.1299 161.594H87.0857C86.9272 161.595 86.7731 161.548 86.6388 161.459C86.4913 161.365 86.3658 161.239 86.2689 161.09C85.7999 160.43 85.3662 159.791 84.9808 159.187C84.5955 158.583 84.2235 157.979 83.8536 157.376L82.7461 155.55C82.374 154.94 81.96 154.293 81.5197 153.604L79.82 155.621V160.991C79.82 161.396 79.6152 161.594 79.188 161.594H75.2601C75.095 161.62 74.9299 161.566 74.811 161.447C74.6943 161.329 74.6348 161.16 74.6546 160.991V141.772Z" fill="black"/>
<path d="M98.0133 155.096C98.1652 155.224 98.3655 155.394 98.5989 155.615C98.8521 155.846 99.1207 156.06 99.4048 156.254C99.8341 156.544 100.296 156.783 100.781 156.964C101.221 157.134 101.686 157.223 102.157 157.227C102.542 157.237 102.928 157.181 103.297 157.063C103.573 156.984 103.824 156.841 104.035 156.644C104.207 156.479 104.334 156.271 104.405 156.041C104.484 155.813 104.524 155.572 104.524 155.33C104.522 155.043 104.407 154.769 104.207 154.57C103.982 154.33 103.725 154.127 103.443 153.967C103.137 153.795 102.82 153.645 102.494 153.519L101.64 153.207C100.673 152.872 99.735 152.457 98.8323 151.964C98.0969 151.571 97.4232 151.068 96.8309 150.472C95.7763 149.434 95.1972 147.984 95.2346 146.481C95.2236 145.674 95.3954 144.876 95.7366 144.151C96.0713 143.449 96.5579 142.837 97.1612 142.361C97.8327 141.841 98.5901 141.452 99.396 141.211C100.349 140.933 101.338 140.797 102.329 140.806C103.11 140.802 103.888 140.897 104.647 141.09C105.413 141.289 106.151 141.592 106.842 141.992C107.151 142.177 107.432 142.368 107.708 142.567C107.948 142.745 108.177 142.934 108.397 143.135C108.575 143.294 108.738 143.47 108.886 143.661C108.987 143.781 109.048 143.929 109.064 144.087C109.066 144.203 109.035 144.317 108.974 144.414C108.901 144.54 108.813 144.657 108.714 144.762L106.649 147.006C106.457 147.259 106.109 147.315 105.851 147.134L105.515 146.857L105.396 146.743C105.217 146.594 105.019 146.431 104.799 146.268C104.583 146.095 104.352 145.943 104.11 145.813C103.859 145.681 103.595 145.572 103.326 145.486C103.053 145.402 102.771 145.359 102.487 145.359C102.21 145.356 101.932 145.379 101.662 145.43C101.422 145.474 101.188 145.555 100.972 145.671C100.783 145.77 100.62 145.92 100.506 146.104C100.385 146.299 100.325 146.527 100.332 146.758C100.323 146.997 100.389 147.234 100.519 147.432C100.669 147.641 100.858 147.818 101.076 147.951C101.371 148.133 101.681 148.285 102.005 148.406C102.377 148.548 102.802 148.704 103.291 148.867C104.233 149.187 105.107 149.521 105.907 149.883C106.646 150.201 107.342 150.624 107.97 151.14C108.544 151.604 109.015 152.194 109.346 152.866C109.685 153.629 109.848 154.463 109.828 155.302C109.841 156.254 109.636 157.196 109.229 158.051C108.837 158.878 108.273 159.605 107.578 160.181C106.844 160.782 106.01 161.237 105.114 161.524C104.132 161.849 103.106 162.009 102.073 162C101.041 162 100.019 161.807 99.0525 161.431C98.0727 161.057 97.1458 160.545 96.3003 159.911C95.9788 159.677 95.675 159.413 95.3998 159.123L94.8141 158.505V158.462V158.427C94.6556 158.279 94.5477 158.082 94.5059 157.866C94.5389 157.658 94.6512 157.473 94.8141 157.348L97.126 155.068C97.2559 154.958 97.4144 154.889 97.5795 154.869C97.6676 154.873 97.7535 154.899 97.8283 154.947C97.945 155.015 98.0551 155.099 98.152 155.195" fill="black"/>
</g>
<defs>
<clipPath id="clip0_7769_75093">
<rect width="110" height="162" fill="white"/>
</clipPath>
</defs>
</svg>
