<svg width="126" height="32" viewBox="0 0 126 32" fill="none" xmlns="http://www.w3.org/2000/svg">
<g clip-path="url(#clip0_7769_75099)">
<path d="M35.82 12.315C35.8195 12.2485 35.8454 12.1842 35.8926 12.135C35.9464 12.083 36.0213 12.0556 36.0979 12.06H37.9105C37.9804 12.0606 38.0476 12.0851 38.1 12.129C38.156 12.1765 38.1891 12.2437 38.1916 12.315V18.648H41.5611C41.6311 18.6475 41.6988 18.6722 41.7505 18.717C41.8045 18.7674 41.8332 18.8373 41.8295 18.909V20.442C41.83 20.508 41.8053 20.572 41.76 20.622C41.711 20.6779 41.6375 20.7089 41.5611 20.706H36.0726C35.9987 20.7162 35.924 20.6927 35.8711 20.6425C35.8183 20.5923 35.7935 20.5213 35.8042 20.451L35.82 12.315Z" fill="black"/>
<path d="M33.7453 18.7109H29.6401V17.2109H32.7064C32.7802 17.215 32.8521 17.1875 32.9022 17.1359C32.944 17.0921 32.9686 17.0359 32.9716 16.9769V15.7199C32.9789 15.6534 32.9504 15.588 32.8958 15.5459C32.8395 15.5084 32.7719 15.4895 32.7032 15.4919H29.6401V14.0489H33.6095C33.6923 14.0542 33.7726 14.0205 33.8243 13.9589C33.8718 13.9061 33.8986 13.8393 33.9001 13.7699V12.3329C33.9043 12.258 33.8771 12.1846 33.8243 12.1289C33.771 12.0761 33.6958 12.0486 33.619 12.0539H27.5274C27.4533 12.0492 27.3806 12.0755 27.3285 12.1259C27.2786 12.1794 27.2525 12.2494 27.2558 12.3209V20.4448C27.2492 20.5156 27.2771 20.5853 27.3316 20.6339C27.3863 20.6772 27.4564 20.6987 27.5274 20.6939H33.7422C33.78 20.6932 33.8175 20.6861 33.8527 20.6729C33.8851 20.6614 33.9128 20.6404 33.9316 20.6129C33.9592 20.5767 33.9796 20.536 33.9916 20.4929C33.9963 20.4741 33.9963 20.4546 33.9916 20.4359V18.9719C34.0031 18.8993 33.9782 18.8259 33.9242 18.7734C33.8702 18.7209 33.7935 18.6956 33.7169 18.7049" fill="black"/>
<path fill-rule="evenodd" clip-rule="evenodd" d="M18.1735 12.1439C18.1246 12.1967 18.0996 12.2657 18.104 12.3359L18.1135 20.4599C18.1069 20.53 18.1336 20.5992 18.1861 20.6489C18.2407 20.6922 18.3109 20.7137 18.3819 20.7089H22.803C23.1566 20.7098 23.5065 20.6392 23.8293 20.5019C24.1473 20.365 24.4354 20.1727 24.6787 19.9349C24.9241 19.6938 25.121 19.4122 25.2598 19.1039C25.4025 18.7862 25.4756 18.4443 25.4745 18.0989C25.4771 17.7112 25.3886 17.3279 25.2156 16.9769C25.0505 16.6302 24.813 16.3189 24.5177 16.0619C24.6944 15.8626 24.8323 15.6351 24.9251 15.3899C25.0225 15.1289 25.0716 14.8538 25.0703 14.5769C25.0714 14.2398 25.0005 13.9061 24.8619 13.5959C24.7267 13.2993 24.5339 13.0296 24.2935 12.8009C24.0537 12.5721 23.7695 12.3898 23.4566 12.2639C23.1352 12.1338 22.7892 12.0675 22.4398 12.0689H18.3724C18.2976 12.0642 18.2246 12.0917 18.1735 12.1439ZM22.7366 14.6309C22.738 14.5184 22.7143 14.407 22.6672 14.3039C22.6227 14.2048 22.5596 14.1143 22.4808 14.0369C22.3945 13.9584 22.2939 13.8954 22.184 13.8509C22.0639 13.8081 21.9365 13.7868 21.8082 13.7879H20.4724V15.4739H21.7703C21.9007 15.4752 22.0302 15.4539 22.1524 15.4109C22.2648 15.3762 22.3673 15.3177 22.4524 15.2399C22.5345 15.1626 22.6 15.0709 22.6451 14.9699C22.6954 14.8634 22.7202 14.7476 22.7177 14.6309H22.7366ZM23.0398 17.9999C23.0382 17.6274 22.8193 17.2866 22.4714 17.1149C22.3561 17.0556 22.2266 17.0256 22.0956 17.0279H20.4724V18.9719H22.0956C22.2252 18.9736 22.3532 18.9447 22.4682 18.8879C22.5876 18.8366 22.695 18.7632 22.784 18.6719C22.8697 18.5847 22.9372 18.4829 22.983 18.3719C23.0294 18.257 23.0529 18.1349 23.0524 18.0119L23.0398 17.9999Z" fill="black"/>
<path d="M16.0451 18.711H11.9399V17.211H15.0093C15.0831 17.2151 15.155 17.1876 15.2051 17.136C15.2463 17.0921 15.2698 17.0357 15.2715 16.977V15.72C15.2787 15.6535 15.2502 15.5881 15.1957 15.546C15.1393 15.5085 15.0717 15.4896 15.003 15.492H11.9399V14.049H15.9093C15.9921 14.0543 16.0724 14.0206 16.1241 13.959C16.1705 13.9058 16.1961 13.839 16.1967 13.77V12.333C16.2019 12.2585 16.1757 12.1852 16.1241 12.129C16.0698 12.0757 15.9934 12.0483 15.9157 12.054H9.82408C9.75078 12.049 9.67898 12.0754 9.62829 12.126C9.57717 12.1789 9.55094 12.2493 9.55566 12.321V20.445C9.54912 20.5151 9.57574 20.5843 9.62829 20.634C9.68353 20.6762 9.75326 20.6976 9.82408 20.694H16.0388C16.0768 20.6943 16.1144 20.6871 16.1493 20.673C16.1821 20.6607 16.2106 20.6399 16.2315 20.613C16.2606 20.5777 16.2811 20.5367 16.2915 20.493C16.3015 20.4755 16.3069 20.4559 16.3072 20.436V18.972C16.3188 18.8994 16.2938 18.826 16.2398 18.7735C16.1858 18.7211 16.1091 18.6957 16.0325 18.705" fill="black"/>
<path fill-rule="evenodd" clip-rule="evenodd" d="M0.35684 12.1559C0.310258 12.2098 0.2866 12.2783 0.290525 12.3479V20.4659C0.283987 20.5361 0.310601 20.6053 0.363156 20.6549C0.418092 20.6977 0.488046 20.7192 0.558946 20.7149H2.37789C2.56737 20.7149 2.6621 20.6339 2.6621 20.4659V17.8439H3.64421L5.13474 20.5019C5.15661 20.5615 5.19347 20.615 5.2421 20.6579C5.29598 20.698 5.36326 20.7182 5.43158 20.7149H7.53158C7.59308 20.7182 7.65403 20.7024 7.70526 20.6699C7.75065 20.635 7.77538 20.5813 7.77158 20.5259C7.76744 20.4571 7.7434 20.3906 7.7021 20.3339C7.69514 20.3221 7.68832 20.3106 7.68168 20.2994C7.64618 20.2393 7.61552 20.1874 7.59158 20.1419L6.01263 17.3249C6.23243 17.2036 6.43601 17.0576 6.61895 16.8899C6.80623 16.7237 6.96878 16.5339 7.1021 16.3259C7.23709 16.1167 7.34322 15.8919 7.41789 15.6569C7.49447 15.4126 7.53278 15.1589 7.53158 14.9039C7.53434 14.5262 7.45366 14.1522 7.29474 13.8059C7.1424 13.4689 6.92253 13.1632 6.64737 12.9059C6.37435 12.6508 6.05288 12.4472 5.7 12.3059C5.32563 12.1547 4.92257 12.0781 4.51579 12.0809H0.558946C0.483131 12.0758 0.408902 12.1033 0.35684 12.1559ZM5.01474 14.5679C5.05782 14.6794 5.08025 14.7972 5.08105 14.9159L5.08737 14.9309C5.08693 15.0553 5.06561 15.1789 5.02421 15.2969C4.98577 15.4131 4.92589 15.5217 4.84737 15.6179C4.76755 15.7129 4.67016 15.7932 4.56 15.8549C4.44287 15.9218 4.31097 15.9618 4.17474 15.9719C4.11225 15.9831 4.04885 15.9892 3.98526 15.9899C3.92004 15.9931 3.85469 15.9931 3.78947 15.9899H2.6621V13.8569H3.51789H3.83368L4.14947 13.8749C4.28357 13.8953 4.41226 13.9401 4.52842 14.0069C4.64142 14.0686 4.74108 14.15 4.8221 14.2469C4.90312 14.344 4.96808 14.4523 5.01474 14.5679Z" fill="black"/>
<path fill-rule="evenodd" clip-rule="evenodd" d="M101.794 12.2388C101.746 12.2971 101.721 12.3721 101.725 12.4485V21.1775C101.719 21.2529 101.745 21.3274 101.797 21.3807C101.852 21.4262 101.921 21.4491 101.991 21.4452H103.791C103.982 21.4452 104.072 21.3581 104.072 21.1775V18.3549H105.053L106.525 21.2162C106.548 21.2796 106.584 21.3369 106.632 21.3839C106.685 21.427 106.751 21.4488 106.819 21.4452H108.891C108.952 21.4493 109.013 21.4311 109.063 21.3936C109.106 21.3567 109.13 21.3001 109.125 21.242C109.122 21.1682 109.1 21.0967 109.06 21.0356C109.053 21.0228 109.046 21.0104 109.039 20.9983C109.004 20.9338 108.974 20.878 108.95 20.8291L107.388 17.8001C107.606 17.6687 107.808 17.5117 107.991 17.3323C108.174 17.1519 108.333 16.9481 108.466 16.7259C108.6 16.5013 108.705 16.2594 108.778 16.0065C108.854 15.7438 108.892 15.471 108.891 15.1968C108.894 14.7907 108.814 14.3885 108.657 14.0162C108.51 13.6552 108.298 13.3266 108.032 13.0485C107.756 12.7736 107.432 12.5548 107.078 12.4033C106.709 12.2407 106.311 12.1583 105.91 12.1614H101.991C101.917 12.1555 101.845 12.1839 101.794 12.2388ZM106.41 14.8517C106.452 14.9716 106.474 15.0982 106.475 15.2259L106.494 15.2581C106.496 15.5232 106.414 15.7817 106.26 15.9936C106.096 16.2104 105.855 16.3499 105.591 16.3807H105.403C105.339 16.3842 105.274 16.3842 105.21 16.3807H104.094V14.0872H104.928H105.241L105.553 14.1065C105.688 14.1264 105.816 14.1747 105.932 14.2485C106.042 14.3148 106.14 14.4024 106.219 14.5065C106.3 14.6101 106.365 14.7267 106.41 14.8517Z" fill="black"/>
<path d="M80.3378 21.3229C80.2972 21.2519 80.2597 21.1778 80.2253 21.1036C80.1879 21.0308 80.1554 20.9553 80.1284 20.8778C79.6055 19.4606 79.0847 18.0552 78.566 16.6616C78.0472 15.2681 77.5263 13.8616 77.0035 12.4423C77.0067 12.4241 77.0067 12.4056 77.0035 12.3874C76.9989 12.3705 76.9989 12.3527 77.0035 12.3358C77.0035 12.2197 77.0785 12.1616 77.2285 12.1616H79.1785C79.3237 12.1565 79.4533 12.2554 79.491 12.4003L81.344 18.1003L83.0535 12.4165C83.0992 12.2661 83.2386 12.1675 83.391 12.1778H85.3597C85.4291 12.1719 85.4984 12.19 85.5566 12.2294C85.5953 12.2656 85.6169 12.3174 85.616 12.3713C85.6185 12.3949 85.6185 12.4187 85.616 12.4423V12.4584L84.5378 15.652L85.3503 18.11L87.3035 12.4165C87.3492 12.2661 87.4886 12.1675 87.641 12.1778H89.5472C89.6167 12.1702 89.6865 12.1885 89.7441 12.2294C89.7828 12.2656 89.8044 12.3174 89.8035 12.3713C89.8076 12.3948 89.8076 12.4188 89.8035 12.4423V12.4584C89.5285 13.1939 89.2483 13.9261 88.9628 14.6552L88.1003 16.8455C87.8097 17.5778 87.5253 18.3068 87.2377 19.039C86.9502 19.7713 86.6784 20.5036 86.4065 21.2326C86.3823 21.2914 86.3449 21.3434 86.2972 21.3842C86.2415 21.4406 86.1658 21.471 86.0878 21.4681H84.6003C84.5302 21.472 84.4605 21.454 84.4003 21.4165C84.3519 21.3821 84.3156 21.3322 84.2972 21.2745L83.3503 18.6552C83.2128 19.0358 83.0753 19.4068 82.9441 19.7745C82.8128 20.1423 82.6753 20.5132 82.5441 20.8907L82.4753 21.0745C82.4492 21.1374 82.4178 21.1979 82.3816 21.2552C82.3474 21.3089 82.3052 21.3568 82.2566 21.3971C82.2104 21.4323 82.1546 21.4515 82.0972 21.452H80.6097C80.5069 21.4665 80.4057 21.4155 80.3535 21.3229" fill="black"/>
<path fill-rule="evenodd" clip-rule="evenodd" d="M90.8376 15.5355C90.7277 15.9507 90.6731 16.3794 90.6751 16.8097L90.672 16.7904C90.6687 17.2261 90.7234 17.6603 90.8345 18.0807C90.9416 18.4794 91.0981 18.8621 91.3001 19.2194C91.5019 19.5718 91.7455 19.8969 92.0251 20.1872C92.5939 20.7721 93.2987 21.1964 94.072 21.4194C94.4743 21.5324 94.8894 21.5899 95.3064 21.5904C96.1293 21.5939 96.9382 21.3713 97.6501 20.9452C97.9909 20.736 98.3057 20.4846 98.5876 20.1968C98.8691 19.9083 99.1129 19.5829 99.3126 19.2291C99.5146 18.8718 99.6711 18.489 99.7782 18.0904C99.9988 17.2562 99.9988 16.3762 99.7782 15.542C99.5654 14.7412 99.1552 14.0111 98.5876 13.4226C98.3073 13.1339 97.9922 12.8835 97.6501 12.6775C97.3005 12.4684 96.9267 12.3059 96.5376 12.1936C95.3324 11.8522 94.0448 12.0266 92.9657 12.6775C92.6222 12.8812 92.3068 13.1318 92.0282 13.4226C91.7499 13.7141 91.5065 14.039 91.3032 14.3904C91.1012 14.75 90.9447 15.1348 90.8376 15.5355ZM93.2064 17.7775C93.0906 17.469 93.0333 17.1405 93.0376 16.8097H93.022C93.0185 16.479 93.0757 16.1507 93.1907 15.842C93.2961 15.5483 93.4577 15.2796 93.6657 15.0517C94.0907 14.582 94.6869 14.3175 95.3095 14.3226C95.6321 14.3179 95.9518 14.385 96.247 14.5194C96.5214 14.6453 96.7689 14.8263 96.9751 15.0517C97.1821 15.2804 97.3435 15.549 97.4501 15.842C97.6752 16.4662 97.6752 17.1532 97.4501 17.7775C97.3428 18.0692 97.1815 18.3365 96.9751 18.5646C96.5463 19.0309 95.9479 19.2906 95.3251 19.2807C94.7042 19.2903 94.1079 19.0305 93.6814 18.5646C93.474 18.3374 93.3125 18.0698 93.2064 17.7775Z" fill="black"/>
<path d="M110.907 12.4388C110.906 12.3672 110.932 12.2981 110.978 12.2453C111.029 12.1892 111.101 12.1596 111.175 12.1646H112.966C113.035 12.1691 113.102 12.1949 113.157 12.2388C113.218 12.2859 113.254 12.3601 113.253 12.4388V15.8485C113.697 15.2646 114.125 14.6904 114.553 14.1227C114.982 13.5549 115.407 12.9775 115.844 12.3969C115.887 12.3251 115.946 12.2652 116.016 12.2227C116.079 12.1808 116.153 12.1584 116.228 12.1582H118.532C118.625 12.1582 118.675 12.1904 118.675 12.2517C118.669 12.3087 118.645 12.3619 118.607 12.4033L115.75 16.2743L118.91 21.1807C118.946 21.231 118.97 21.2897 118.978 21.3517C118.978 21.413 118.935 21.442 118.844 21.442H116.553C116.481 21.4422 116.411 21.4209 116.35 21.3807C116.283 21.3378 116.226 21.2806 116.182 21.213C115.969 20.913 115.772 20.6227 115.597 20.3485C115.422 20.0743 115.253 19.8001 115.085 19.5259L114.582 18.6969C114.413 18.4195 114.225 18.1259 114.025 17.813L113.253 18.7291V21.1678C113.253 21.3517 113.16 21.442 112.966 21.442H111.182C111.107 21.4536 111.032 21.4289 110.978 21.3751C110.925 21.3213 110.898 21.2447 110.907 21.1678V12.4388Z" fill="black"/>
<path d="M121.516 18.4905C121.585 18.5485 121.676 18.626 121.782 18.726C121.897 18.8312 122.019 18.9282 122.148 19.0163C122.343 19.1482 122.553 19.2565 122.773 19.3389C122.973 19.4161 123.184 19.4565 123.398 19.4582C123.573 19.4627 123.748 19.4376 123.916 19.384C124.041 19.3481 124.155 19.283 124.251 19.1937C124.329 19.1187 124.387 19.0243 124.419 18.9195C124.455 18.816 124.473 18.7068 124.473 18.5969C124.472 18.4665 124.42 18.3419 124.329 18.2518C124.227 18.1428 124.11 18.0504 123.982 17.9776C123.843 17.8995 123.699 17.8316 123.551 17.7743L123.163 17.6324C122.724 17.4805 122.298 17.2917 121.888 17.0679C121.554 16.8895 121.248 16.6612 120.979 16.3905C120.5 15.9187 120.237 15.2603 120.254 14.5776C120.249 14.2113 120.327 13.8489 120.482 13.5195C120.634 13.2007 120.855 12.9225 121.129 12.7066C121.434 12.4705 121.778 12.2934 122.144 12.184C122.577 12.058 123.026 11.996 123.476 12.0002C123.831 11.9983 124.184 12.0417 124.529 12.1292C124.877 12.2196 125.212 12.3574 125.526 12.5389C125.666 12.6227 125.794 12.7098 125.919 12.8002C126.028 12.8807 126.132 12.9668 126.232 13.0582C126.313 13.1303 126.387 13.2102 126.454 13.2969C126.5 13.3512 126.528 13.4188 126.535 13.4905C126.536 13.543 126.522 13.5947 126.494 13.6389C126.461 13.696 126.421 13.7491 126.376 13.7969L125.438 14.8163C125.351 14.931 125.193 14.9564 125.076 14.8743L124.923 14.7485L124.869 14.6969C124.788 14.6292 124.698 14.555 124.598 14.4808C124.5 14.4023 124.395 14.3332 124.285 14.2743C124.171 14.2144 124.051 14.1648 123.929 14.126C123.805 14.0875 123.677 14.068 123.548 14.0679C123.422 14.0666 123.296 14.0774 123.173 14.1002C123.064 14.1202 122.958 14.1572 122.86 14.2098C122.774 14.2548 122.7 14.3227 122.648 14.4066C122.593 14.495 122.566 14.5986 122.569 14.7034C122.565 14.8122 122.595 14.9195 122.654 15.0098C122.722 15.1047 122.808 15.1848 122.907 15.2453C123.041 15.328 123.182 15.3971 123.329 15.4518C123.498 15.5163 123.691 15.5872 123.913 15.6614C124.341 15.8066 124.738 15.9582 125.101 16.1227C125.437 16.2672 125.753 16.4594 126.038 16.6937C126.299 16.9047 126.513 17.1723 126.663 17.4776C126.817 17.8244 126.891 18.2028 126.882 18.584C126.888 19.0165 126.795 19.4442 126.61 19.8324C126.432 20.208 126.176 20.5385 125.86 20.8002C125.527 21.0731 125.148 21.2798 124.741 21.4098C124.295 21.5574 123.829 21.6304 123.36 21.626C122.891 21.6261 122.427 21.5386 121.988 21.3679C121.543 21.1978 121.122 20.9655 120.738 20.6776C120.592 20.5712 120.454 20.4514 120.329 20.3195L120.063 20.0389V20.0195V20.0034C119.991 19.9363 119.942 19.8469 119.923 19.7485C119.938 19.6543 119.989 19.5699 120.063 19.5131L121.113 18.4776C121.172 18.4278 121.244 18.3965 121.319 18.3872C121.359 18.389 121.398 18.4012 121.432 18.4227C121.485 18.4539 121.535 18.4918 121.579 18.5356" fill="black"/>
<path fill-rule="evenodd" clip-rule="evenodd" d="M65.0795 20.034C69.7908 18.4509 72.723 13.859 72.1076 9.02773C71.4921 4.19651 67.4973 0.447194 62.5327 0.0411637C62.254 0.0158322 61.9721 0 61.6902 0H48V18.815V20.6008V32H74L65.0795 20.034ZM70.4033 10.2941C70.4033 14.1568 67.7433 17.536 63.9227 18.5268C63.6916 18.5859 63.4583 18.6366 63.2228 18.6788V1.91253C67.3754 2.63763 70.4001 6.16553 70.4033 10.2878V10.2941ZM49.8308 18.8055H61.3986V1.77321H49.8308V18.8055ZM49.8308 30.1951V20.5913H61.3986V30.2078L49.8308 30.1951ZM63.2293 20.5913V30.1951L70.4033 30.211L63.2293 20.5913Z" fill="black"/>
<path d="M70.4033 30.2078L63.2261 20.5881V30.2078H70.4033Z" fill="#FFDE17"/>
<path d="M61.3984 1.77319H49.8306V18.8023H61.3984V1.77319Z" fill="#FFDE17"/>
<path d="M61.3984 20.5881H49.8306V30.2078H61.3984V20.5881Z" fill="#FFDE17"/>
<path d="M63.2295 1.91248V18.6598C67.3831 17.9378 70.4088 14.4088 70.4088 10.2861C70.4088 6.16342 67.3831 2.63438 63.2295 1.91248Z" fill="#FFDE17"/>
</g>
<defs>
<clipPath id="clip0_7769_75099">
<rect width="126" height="32" fill="white"/>
</clipPath>
</defs>
</svg>
